<svg xmlns="http://www.w3.org/2000/svg" xmlns:xlink="http://www.w3.org/1999/xlink" width="500" zoomAndPan="magnify" viewBox="0 0 375 374.999991" height="500" preserveAspectRatio="xMidYMid meet" version="1.0"><defs><g/><clipPath id="e60d5b8d99"><path d="M 64.726562 138.101562 L 163.726562 138.101562 L 163.726562 237 L 64.726562 237 Z M 64.726562 138.101562 " clip-rule="nonzero"/></clipPath><clipPath id="f0dd8cf0f4"><path d="M 136.285156 172.40625 L 136.25 172.390625 C 136.230469 172.382812 136.210938 172.375 136.191406 172.359375 C 136.132812 172.292969 136.105469 172.207031 136.121094 172.117188 L 138.109375 159.960938 L 147.445312 169.289062 L 137.734375 173.414062 C 137.707031 173.425781 137.679688 173.433594 137.652344 173.429688 L 137.613281 173.429688 C 137.601562 173.421875 137.589844 173.414062 137.5625 173.386719 C 137.199219 172.984375 136.769531 172.652344 136.285156 172.40625 Z M 149.828125 171.667969 L 159.808594 181.636719 C 161.882812 183.710938 162.921875 184.746094 163.300781 185.941406 C 163.355469 186.121094 163.402344 186.296875 163.4375 186.484375 L 139.585938 176.390625 C 139.570312 176.382812 139.558594 176.378906 139.546875 176.375 C 139.449219 176.335938 139.339844 176.292969 139.339844 176.195312 C 139.339844 176.097656 139.453125 176.050781 139.546875 176.011719 L 139.578125 176 Z M 163.03125 189.679688 C 162.515625 190.648438 161.511719 191.652344 159.8125 193.351562 L 148.558594 204.589844 L 134 201.5625 L 133.925781 201.546875 C 133.796875 201.527344 133.660156 201.503906 133.660156 201.390625 C 133.546875 200.175781 132.9375 199.066406 131.976562 198.320312 C 131.914062 198.261719 131.929688 198.167969 131.949219 198.082031 C 131.949219 198.066406 131.949219 198.058594 131.953125 198.046875 L 134.691406 181.257812 L 134.699219 181.203125 C 134.714844 181.074219 134.738281 180.921875 134.855469 180.921875 C 136.039062 180.777344 137.113281 180.160156 137.84375 179.210938 C 137.867188 179.1875 137.882812 179.15625 137.914062 179.144531 C 137.992188 179.105469 138.09375 179.144531 138.179688 179.179688 Z M 145.96875 207.175781 L 127.464844 225.664062 L 130.628906 206.214844 L 130.636719 206.191406 C 130.636719 206.164062 130.644531 206.136719 130.652344 206.113281 C 130.675781 206.050781 130.746094 206.023438 130.8125 206 L 130.84375 205.984375 C 131.535156 205.691406 132.148438 205.234375 132.628906 204.65625 C 132.691406 204.585938 132.765625 204.519531 132.863281 204.503906 C 132.886719 204.5 132.910156 204.5 132.9375 204.503906 L 145.96875 207.179688 Z M 123.546875 229.574219 L 121.460938 231.65625 L 98.398438 198.363281 C 98.390625 198.351562 98.382812 198.339844 98.375 198.332031 C 98.339844 198.28125 98.300781 198.230469 98.308594 198.175781 C 98.308594 198.132812 98.335938 198.097656 98.363281 198.066406 L 98.390625 198.035156 C 98.460938 197.929688 98.519531 197.828125 98.582031 197.71875 L 98.632812 197.628906 L 98.640625 197.621094 C 98.679688 197.558594 98.710938 197.496094 98.773438 197.464844 C 98.828125 197.441406 98.902344 197.449219 98.960938 197.464844 L 124.511719 202.726562 C 124.582031 202.738281 124.652344 202.765625 124.703125 202.8125 C 124.738281 202.847656 124.746094 202.878906 124.753906 202.921875 C 125.117188 204.285156 126.09375 205.402344 127.402344 205.945312 C 127.476562 205.976562 127.445312 206.058594 127.410156 206.144531 C 127.394531 206.183594 127.382812 206.222656 127.371094 206.257812 C 127.050781 208.21875 124.289062 225.035156 123.550781 229.574219 Z M 119.191406 233.921875 C 117.652344 235.445312 116.746094 236.25 115.71875 236.574219 C 114.710938 236.894531 113.628906 236.894531 112.613281 236.574219 C 111.414062 236.191406 110.375 235.160156 108.304688 233.085938 L 85.144531 209.949219 L 91.195312 200.582031 C 91.222656 200.535156 91.25 200.492188 91.296875 200.460938 C 91.363281 200.414062 91.453125 200.433594 91.53125 200.460938 C 92.921875 200.878906 94.410156 200.804688 95.75 200.246094 C 95.820312 200.222656 95.890625 200.203125 95.945312 200.253906 C 95.96875 200.277344 95.996094 200.304688 96.015625 200.332031 L 119.191406 233.925781 Z M 82.914062 207.71875 L 77.597656 202.414062 L 88.089844 197.945312 C 88.117188 197.933594 88.148438 197.925781 88.175781 197.925781 C 88.265625 197.925781 88.316406 198.015625 88.363281 198.089844 C 88.46875 198.253906 88.578125 198.410156 88.695312 198.566406 L 88.730469 198.609375 C 88.761719 198.648438 88.742188 198.695312 88.710938 198.734375 Z M 75.25 200.0625 L 68.527344 193.351562 C 67.382812 192.207031 66.554688 191.378906 65.976562 190.671875 L 86.414062 194.90625 C 86.441406 194.910156 86.464844 194.914062 86.492188 194.917969 C 86.617188 194.9375 86.757812 194.957031 86.757812 195.078125 C 86.757812 195.207031 86.605469 195.265625 86.476562 195.3125 L 86.417969 195.339844 Z M 64.804688 187.21875 C 64.828125 186.78125 64.90625 186.355469 65.035156 185.941406 C 65.417969 184.746094 66.453125 183.710938 68.527344 181.636719 L 77.128906 173.046875 C 81.089844 178.789062 85.058594 184.519531 89.042969 190.246094 C 89.109375 190.339844 89.1875 190.441406 89.109375 190.519531 C 88.734375 190.933594 88.355469 191.386719 88.089844 191.875 C 88.0625 191.941406 88.019531 191.996094 87.960938 192.039062 C 87.929688 192.058594 87.894531 192.050781 87.855469 192.042969 L 87.847656 192.042969 L 64.804688 187.214844 Z M 79.429688 170.746094 L 90.996094 159.191406 C 92.082031 159.667969 96.039062 161.335938 99.578125 162.832031 C 102.253906 163.960938 104.695312 164.992188 105.464844 165.324219 C 105.539062 165.355469 105.609375 165.386719 105.644531 165.464844 C 105.664062 165.511719 105.65625 165.570312 105.644531 165.617188 C 105.269531 167.3125 105.777344 169.078125 106.992188 170.320312 C 107.070312 170.398438 106.992188 170.507812 106.921875 170.605469 L 106.890625 170.65625 L 95.144531 188.828125 C 95.113281 188.878906 95.085938 188.921875 95.035156 188.957031 C 94.972656 188.996094 94.886719 188.976562 94.8125 188.960938 C 94.355469 188.839844 93.886719 188.773438 93.414062 188.765625 C 92.992188 188.765625 92.535156 188.84375 92.070312 188.929688 L 92.066406 188.929688 C 92.015625 188.9375 91.96875 188.949219 91.929688 188.917969 C 91.882812 188.878906 91.84375 188.835938 91.8125 188.785156 Z M 93.332031 156.859375 L 108.304688 141.902344 C 110.375 139.832031 111.414062 138.796875 112.613281 138.417969 C 113.628906 138.097656 114.710938 138.097656 115.71875 138.417969 C 116.921875 138.796875 117.957031 139.832031 120.03125 141.902344 L 123.273438 145.144531 L 112.628906 161.617188 C 112.601562 161.667969 112.566406 161.707031 112.523438 161.742188 C 112.460938 161.785156 112.367188 161.765625 112.289062 161.742188 C 110.585938 161.226562 108.738281 161.582031 107.347656 162.695312 C 107.277344 162.765625 107.175781 162.722656 107.085938 162.6875 C 105.695312 162.082031 94.878906 157.515625 93.332031 156.859375 Z M 125.535156 147.402344 L 135.371094 157.226562 L 133 171.882812 L 133 171.921875 C 133 171.953125 132.992188 171.988281 132.980469 172.019531 C 132.953125 172.070312 132.902344 172.082031 132.855469 172.097656 C 132.34375 172.25 131.867188 172.488281 131.441406 172.796875 C 131.421875 172.8125 131.40625 172.824219 131.390625 172.84375 C 131.363281 172.871094 131.332031 172.902344 131.285156 172.90625 C 131.246094 172.90625 131.210938 172.902344 131.171875 172.886719 L 116.195312 166.53125 L 116.164062 166.515625 C 116.070312 166.476562 115.953125 166.429688 115.953125 166.332031 C 115.867188 165.5 115.597656 164.695312 115.15625 163.980469 C 115.082031 163.863281 115.007812 163.738281 115.070312 163.617188 Z M 115.410156 169.542969 L 129.460938 175.484375 C 129.535156 175.519531 129.621094 175.554688 129.652344 175.632812 C 129.667969 175.679688 129.667969 175.730469 129.652344 175.78125 C 129.613281 175.984375 129.574219 176.21875 129.574219 176.457031 L 129.574219 176.851562 C 129.574219 176.945312 129.476562 176.988281 129.382812 177.027344 L 129.355469 177.039062 C 127.128906 177.988281 98.117188 190.34375 98.074219 190.34375 C 98.03125 190.34375 97.984375 190.34375 97.9375 190.300781 C 97.863281 190.222656 97.9375 190.117188 98.007812 190.019531 C 98.019531 190 98.03125 189.984375 98.042969 189.964844 L 109.585938 172.113281 L 109.609375 172.082031 C 109.675781 171.976562 109.75 171.855469 109.875 171.855469 L 109.992188 171.871094 C 110.253906 171.90625 110.488281 171.941406 110.71875 171.941406 C 112.472656 171.941406 114.09375 171.089844 115.074219 169.632812 C 115.09375 169.59375 115.125 169.558594 115.160156 169.53125 C 115.230469 169.480469 115.332031 169.503906 115.410156 169.542969 Z M 99.328125 193.171875 L 130.949219 179.699219 C 130.949219 179.699219 130.996094 179.699219 131.042969 179.738281 C 131.210938 179.914062 131.363281 180.027344 131.5 180.136719 L 131.570312 180.183594 C 131.636719 180.21875 131.703125 180.261719 131.707031 180.324219 C 131.707031 180.351562 131.707031 180.367188 131.703125 180.390625 L 128.992188 197.011719 L 128.980469 197.078125 C 128.960938 197.210938 128.945312 197.355469 128.824219 197.355469 C 127.359375 197.453125 126.035156 198.269531 125.285156 199.53125 L 125.273438 199.554688 C 125.242188 199.613281 125.207031 199.671875 125.148438 199.703125 C 125.09375 199.726562 125.023438 199.71875 124.964844 199.703125 L 99.746094 194.507812 C 99.722656 194.5 99.355469 193.171875 99.328125 193.171875 Z M 99.328125 193.171875 " clip-rule="nonzero"/></clipPath><radialGradient gradientTransform="matrix(0.999995, 0, 0, 1.000005, 64.803226, 138.178317)" gradientUnits="userSpaceOnUse" r="98.635427" cx="49.317713" id="cb7fcad368" cy="-49.317713" fx="49.317713" fy="-49.317713"><stop stop-opacity="1" stop-color="rgb(0%, 18.159485%, 42.112732%)" offset="0"/><stop stop-opacity="1" stop-color="rgb(0.00152588%, 18.479919%, 42.338562%)" offset="0.00390625"/><stop stop-opacity="1" stop-color="rgb(0.00305176%, 18.800354%, 42.565918%)" offset="0.0078125"/><stop stop-opacity="1" stop-color="rgb(0.00457764%, 19.120789%, 42.791748%)" offset="0.0117188"/><stop stop-opacity="1" stop-color="rgb(0.00610352%, 19.441223%, 43.019104%)" offset="0.015625"/><stop stop-opacity="1" stop-color="rgb(0.00762939%, 19.761658%, 43.244934%)" offset="0.0195312"/><stop stop-opacity="1" stop-color="rgb(0.00915527%, 20.080566%, 43.47229%)" offset="0.0234375"/><stop stop-opacity="1" stop-color="rgb(0.0106812%, 20.401001%, 43.69812%)" offset="0.0273438"/><stop stop-opacity="1" stop-color="rgb(0.012207%, 20.721436%, 43.92395%)" offset="0.03125"/><stop stop-opacity="1" stop-color="rgb(0.0137329%, 21.04187%, 44.151306%)" offset="0.0351562"/><stop stop-opacity="1" stop-color="rgb(0.0152588%, 21.362305%, 44.377136%)" offset="0.0390625"/><stop stop-opacity="1" stop-color="rgb(0.0167847%, 21.682739%, 44.604492%)" offset="0.0429688"/><stop stop-opacity="1" stop-color="rgb(0.0183105%, 22.003174%, 44.830322%)" offset="0.046875"/><stop stop-opacity="1" stop-color="rgb(0.0198364%, 22.323608%, 45.057678%)" offset="0.0507812"/><stop stop-opacity="1" stop-color="rgb(0.0213623%, 22.644043%, 45.283508%)" offset="0.0546875"/><stop stop-opacity="1" stop-color="rgb(0.0228882%, 22.964478%, 45.510864%)" offset="0.0585938"/><stop stop-opacity="1" stop-color="rgb(0.0244141%, 23.284912%, 45.736694%)" offset="0.0625"/><stop stop-opacity="1" stop-color="rgb(0.0259399%, 23.605347%, 45.96405%)" offset="0.0664062"/><stop stop-opacity="1" stop-color="rgb(0.0274658%, 23.924255%, 46.18988%)" offset="0.0703125"/><stop stop-opacity="1" stop-color="rgb(0.0289917%, 24.24469%, 46.417236%)" offset="0.0742188"/><stop stop-opacity="1" stop-color="rgb(0.0305176%, 24.565125%, 46.643066%)" offset="0.078125"/><stop stop-opacity="1" stop-color="rgb(0.0320435%, 24.885559%, 46.870422%)" offset="0.0820312"/><stop stop-opacity="1" stop-color="rgb(0.0335693%, 25.205994%, 47.096252%)" offset="0.0859375"/><stop stop-opacity="1" stop-color="rgb(0.0350952%, 25.526428%, 47.323608%)" offset="0.0898438"/><stop stop-opacity="1" stop-color="rgb(0.0366211%, 25.846863%, 47.549438%)" offset="0.09375"/><stop stop-opacity="1" stop-color="rgb(0.038147%, 26.167297%, 47.776794%)" offset="0.0976562"/><stop stop-opacity="1" stop-color="rgb(0.0396729%, 26.487732%, 48.002625%)" offset="0.101562"/><stop stop-opacity="1" stop-color="rgb(0.0411987%, 26.808167%, 48.22998%)" offset="0.105469"/><stop stop-opacity="1" stop-color="rgb(0.0427246%, 27.128601%, 48.455811%)" offset="0.109375"/><stop stop-opacity="1" stop-color="rgb(0.0442505%, 27.449036%, 48.683167%)" offset="0.113281"/><stop stop-opacity="1" stop-color="rgb(0.0457764%, 27.76947%, 48.908997%)" offset="0.117188"/><stop stop-opacity="1" stop-color="rgb(0.0473022%, 28.088379%, 49.136353%)" offset="0.121094"/><stop stop-opacity="1" stop-color="rgb(0.0488281%, 28.408813%, 49.362183%)" offset="0.125"/><stop stop-opacity="1" stop-color="rgb(0.050354%, 28.729248%, 49.588013%)" offset="0.128906"/><stop stop-opacity="1" stop-color="rgb(0.0518799%, 29.049683%, 49.815369%)" offset="0.132812"/><stop stop-opacity="1" stop-color="rgb(0.0534058%, 29.370117%, 50.041199%)" offset="0.136719"/><stop stop-opacity="1" stop-color="rgb(0.0549316%, 29.690552%, 50.268555%)" offset="0.140625"/><stop stop-opacity="1" stop-color="rgb(0.0564575%, 30.010986%, 50.494385%)" offset="0.144531"/><stop stop-opacity="1" stop-color="rgb(0.0579834%, 30.331421%, 50.721741%)" offset="0.148438"/><stop stop-opacity="1" stop-color="rgb(0.0595093%, 30.651855%, 50.947571%)" offset="0.152344"/><stop stop-opacity="1" stop-color="rgb(0.0610352%, 30.97229%, 51.174927%)" offset="0.15625"/><stop stop-opacity="1" stop-color="rgb(0.0640869%, 31.292725%, 51.400757%)" offset="0.160156"/><stop stop-opacity="1" stop-color="rgb(0.0656128%, 31.613159%, 51.628113%)" offset="0.164062"/><stop stop-opacity="1" stop-color="rgb(0.0671387%, 31.932068%, 51.853943%)" offset="0.167969"/><stop stop-opacity="1" stop-color="rgb(0.0686646%, 32.252502%, 52.081299%)" offset="0.171875"/><stop stop-opacity="1" stop-color="rgb(0.0701904%, 32.572937%, 52.307129%)" offset="0.175781"/><stop stop-opacity="1" stop-color="rgb(0.0717163%, 32.893372%, 52.534485%)" offset="0.179688"/><stop stop-opacity="1" stop-color="rgb(0.0732422%, 33.213806%, 52.760315%)" offset="0.183594"/><stop stop-opacity="1" stop-color="rgb(0.0747681%, 33.534241%, 52.987671%)" offset="0.1875"/><stop stop-opacity="1" stop-color="rgb(0.0762939%, 33.854675%, 53.213501%)" offset="0.191406"/><stop stop-opacity="1" stop-color="rgb(0.0778198%, 34.17511%, 53.440857%)" offset="0.195312"/><stop stop-opacity="1" stop-color="rgb(0.0793457%, 34.495544%, 53.666687%)" offset="0.199219"/><stop stop-opacity="1" stop-color="rgb(0.0808716%, 34.815979%, 53.894043%)" offset="0.203125"/><stop stop-opacity="1" stop-color="rgb(0.0823975%, 35.136414%, 54.119873%)" offset="0.207031"/><stop stop-opacity="1" stop-color="rgb(0.0839233%, 35.456848%, 54.347229%)" offset="0.210938"/><stop stop-opacity="1" stop-color="rgb(0.0854492%, 35.777283%, 54.573059%)" offset="0.214844"/><stop stop-opacity="1" stop-color="rgb(0.0869751%, 36.096191%, 54.800415%)" offset="0.21875"/><stop stop-opacity="1" stop-color="rgb(0.088501%, 36.416626%, 55.026245%)" offset="0.222656"/><stop stop-opacity="1" stop-color="rgb(0.0900269%, 36.737061%, 55.252075%)" offset="0.226562"/><stop stop-opacity="1" stop-color="rgb(0.0915527%, 37.057495%, 55.479431%)" offset="0.230469"/><stop stop-opacity="1" stop-color="rgb(0.0930786%, 37.37793%, 55.705261%)" offset="0.234375"/><stop stop-opacity="1" stop-color="rgb(0.0946045%, 37.698364%, 55.932617%)" offset="0.238281"/><stop stop-opacity="1" stop-color="rgb(0.0961304%, 38.018799%, 56.158447%)" offset="0.242188"/><stop stop-opacity="1" stop-color="rgb(0.0976562%, 38.339233%, 56.385803%)" offset="0.246094"/><stop stop-opacity="1" stop-color="rgb(0.0991821%, 38.659668%, 56.611633%)" offset="0.25"/><stop stop-opacity="1" stop-color="rgb(0.100708%, 38.980103%, 56.838989%)" offset="0.253906"/><stop stop-opacity="1" stop-color="rgb(0.102234%, 39.300537%, 57.064819%)" offset="0.257812"/><stop stop-opacity="1" stop-color="rgb(0.10376%, 39.620972%, 57.292175%)" offset="0.261719"/><stop stop-opacity="1" stop-color="rgb(0.105286%, 39.93988%, 57.518005%)" offset="0.265625"/><stop stop-opacity="1" stop-color="rgb(0.106812%, 40.260315%, 57.745361%)" offset="0.269531"/><stop stop-opacity="1" stop-color="rgb(0.108337%, 40.58075%, 57.971191%)" offset="0.273438"/><stop stop-opacity="1" stop-color="rgb(0.109863%, 40.901184%, 58.198547%)" offset="0.277344"/><stop stop-opacity="1" stop-color="rgb(0.111389%, 41.221619%, 58.424377%)" offset="0.28125"/><stop stop-opacity="1" stop-color="rgb(0.112915%, 41.542053%, 58.651733%)" offset="0.285156"/><stop stop-opacity="1" stop-color="rgb(0.114441%, 41.862488%, 58.877563%)" offset="0.289062"/><stop stop-opacity="1" stop-color="rgb(0.115967%, 42.182922%, 59.104919%)" offset="0.292969"/><stop stop-opacity="1" stop-color="rgb(0.117493%, 42.503357%, 59.33075%)" offset="0.296875"/><stop stop-opacity="1" stop-color="rgb(0.119019%, 42.823792%, 59.558105%)" offset="0.300781"/><stop stop-opacity="1" stop-color="rgb(0.120544%, 43.144226%, 59.783936%)" offset="0.304688"/><stop stop-opacity="1" stop-color="rgb(0.12207%, 43.464661%, 60.011292%)" offset="0.308594"/><stop stop-opacity="1" stop-color="rgb(0.123596%, 43.785095%, 60.237122%)" offset="0.3125"/><stop stop-opacity="1" stop-color="rgb(0.125122%, 44.104004%, 60.464478%)" offset="0.316406"/><stop stop-opacity="1" stop-color="rgb(0.126648%, 44.424438%, 60.690308%)" offset="0.320312"/><stop stop-opacity="1" stop-color="rgb(0.1297%, 44.744873%, 60.916138%)" offset="0.324219"/><stop stop-opacity="1" stop-color="rgb(0.131226%, 45.065308%, 61.143494%)" offset="0.328125"/><stop stop-opacity="1" stop-color="rgb(0.132751%, 45.385742%, 61.369324%)" offset="0.332031"/><stop stop-opacity="1" stop-color="rgb(0.134277%, 45.706177%, 61.59668%)" offset="0.335938"/><stop stop-opacity="1" stop-color="rgb(0.135803%, 46.026611%, 61.82251%)" offset="0.339844"/><stop stop-opacity="1" stop-color="rgb(0.137329%, 46.347046%, 62.049866%)" offset="0.34375"/><stop stop-opacity="1" stop-color="rgb(0.138855%, 46.66748%, 62.275696%)" offset="0.347656"/><stop stop-opacity="1" stop-color="rgb(0.140381%, 46.987915%, 62.503052%)" offset="0.351562"/><stop stop-opacity="1" stop-color="rgb(0.141907%, 47.30835%, 62.728882%)" offset="0.355469"/><stop stop-opacity="1" stop-color="rgb(0.143433%, 47.628784%, 62.956238%)" offset="0.359375"/><stop stop-opacity="1" stop-color="rgb(0.144958%, 47.947693%, 63.182068%)" offset="0.363281"/><stop stop-opacity="1" stop-color="rgb(0.146484%, 48.268127%, 63.409424%)" offset="0.367188"/><stop stop-opacity="1" stop-color="rgb(0.14801%, 48.588562%, 63.635254%)" offset="0.371094"/><stop stop-opacity="1" stop-color="rgb(0.149536%, 48.908997%, 63.86261%)" offset="0.375"/><stop stop-opacity="1" stop-color="rgb(0.151062%, 49.229431%, 64.08844%)" offset="0.378906"/><stop stop-opacity="1" stop-color="rgb(0.152588%, 49.549866%, 64.315796%)" offset="0.382812"/><stop stop-opacity="1" stop-color="rgb(0.154114%, 49.8703%, 64.541626%)" offset="0.386719"/><stop stop-opacity="1" stop-color="rgb(0.15564%, 50.190735%, 64.768982%)" offset="0.390625"/><stop stop-opacity="1" stop-color="rgb(0.157166%, 50.511169%, 64.994812%)" offset="0.394531"/><stop stop-opacity="1" stop-color="rgb(0.158691%, 50.831604%, 65.222168%)" offset="0.398438"/><stop stop-opacity="1" stop-color="rgb(0.160217%, 51.152039%, 65.447998%)" offset="0.402344"/><stop stop-opacity="1" stop-color="rgb(0.161743%, 51.472473%, 65.675354%)" offset="0.40625"/><stop stop-opacity="1" stop-color="rgb(0.163269%, 51.792908%, 65.901184%)" offset="0.410156"/><stop stop-opacity="1" stop-color="rgb(0.164795%, 52.111816%, 66.12854%)" offset="0.414062"/><stop stop-opacity="1" stop-color="rgb(0.166321%, 52.432251%, 66.35437%)" offset="0.417969"/><stop stop-opacity="1" stop-color="rgb(0.167847%, 52.752686%, 66.5802%)" offset="0.421875"/><stop stop-opacity="1" stop-color="rgb(0.169373%, 53.07312%, 66.807556%)" offset="0.425781"/><stop stop-opacity="1" stop-color="rgb(0.170898%, 53.393555%, 67.033386%)" offset="0.429688"/><stop stop-opacity="1" stop-color="rgb(0.172424%, 53.713989%, 67.260742%)" offset="0.433594"/><stop stop-opacity="1" stop-color="rgb(0.17395%, 54.034424%, 67.486572%)" offset="0.4375"/><stop stop-opacity="1" stop-color="rgb(0.175476%, 54.354858%, 67.713928%)" offset="0.441406"/><stop stop-opacity="1" stop-color="rgb(0.177002%, 54.675293%, 67.939758%)" offset="0.445312"/><stop stop-opacity="1" stop-color="rgb(0.178528%, 54.995728%, 68.167114%)" offset="0.449219"/><stop stop-opacity="1" stop-color="rgb(0.180054%, 55.316162%, 68.392944%)" offset="0.453125"/><stop stop-opacity="1" stop-color="rgb(0.18158%, 55.636597%, 68.6203%)" offset="0.457031"/><stop stop-opacity="1" stop-color="rgb(0.183105%, 55.955505%, 68.84613%)" offset="0.460938"/><stop stop-opacity="1" stop-color="rgb(0.184631%, 56.27594%, 69.073486%)" offset="0.464844"/><stop stop-opacity="1" stop-color="rgb(0.186157%, 56.596375%, 69.299316%)" offset="0.46875"/><stop stop-opacity="1" stop-color="rgb(0.187683%, 56.916809%, 69.526672%)" offset="0.472656"/><stop stop-opacity="1" stop-color="rgb(0.189209%, 57.237244%, 69.752502%)" offset="0.476562"/><stop stop-opacity="1" stop-color="rgb(0.190735%, 57.557678%, 69.979858%)" offset="0.480469"/><stop stop-opacity="1" stop-color="rgb(0.193787%, 57.878113%, 70.205688%)" offset="0.484375"/><stop stop-opacity="1" stop-color="rgb(0.195312%, 58.198547%, 70.433044%)" offset="0.488281"/><stop stop-opacity="1" stop-color="rgb(0.196838%, 58.518982%, 70.658875%)" offset="0.492188"/><stop stop-opacity="1" stop-color="rgb(0.198364%, 58.839417%, 70.88623%)" offset="0.496094"/><stop stop-opacity="1" stop-color="rgb(0.19989%, 59.159851%, 71.112061%)" offset="0.5"/><stop stop-opacity="1" stop-color="rgb(0.201416%, 59.480286%, 71.339417%)" offset="0.503906"/><stop stop-opacity="1" stop-color="rgb(0.202942%, 59.80072%, 71.565247%)" offset="0.507812"/><stop stop-opacity="1" stop-color="rgb(0.204468%, 60.119629%, 71.792603%)" offset="0.511719"/><stop stop-opacity="1" stop-color="rgb(0.205994%, 60.440063%, 72.018433%)" offset="0.515625"/><stop stop-opacity="1" stop-color="rgb(0.20752%, 60.760498%, 72.244263%)" offset="0.519531"/><stop stop-opacity="1" stop-color="rgb(0.209045%, 61.080933%, 72.471619%)" offset="0.523438"/><stop stop-opacity="1" stop-color="rgb(0.210571%, 61.401367%, 72.697449%)" offset="0.527344"/><stop stop-opacity="1" stop-color="rgb(0.212097%, 61.721802%, 72.924805%)" offset="0.53125"/><stop stop-opacity="1" stop-color="rgb(0.213623%, 62.042236%, 73.150635%)" offset="0.535156"/><stop stop-opacity="1" stop-color="rgb(0.215149%, 62.362671%, 73.377991%)" offset="0.539062"/><stop stop-opacity="1" stop-color="rgb(0.216675%, 62.683105%, 73.603821%)" offset="0.542969"/><stop stop-opacity="1" stop-color="rgb(0.218201%, 63.00354%, 73.831177%)" offset="0.546875"/><stop stop-opacity="1" stop-color="rgb(0.219727%, 63.323975%, 74.057007%)" offset="0.550781"/><stop stop-opacity="1" stop-color="rgb(0.221252%, 63.644409%, 74.284363%)" offset="0.554688"/><stop stop-opacity="1" stop-color="rgb(0.222778%, 63.963318%, 74.510193%)" offset="0.558594"/><stop stop-opacity="1" stop-color="rgb(0.224304%, 64.283752%, 74.737549%)" offset="0.5625"/><stop stop-opacity="1" stop-color="rgb(0.22583%, 64.604187%, 74.963379%)" offset="0.566406"/><stop stop-opacity="1" stop-color="rgb(0.227356%, 64.924622%, 75.190735%)" offset="0.570312"/><stop stop-opacity="1" stop-color="rgb(0.228882%, 65.245056%, 75.416565%)" offset="0.574219"/><stop stop-opacity="1" stop-color="rgb(0.230408%, 65.565491%, 75.643921%)" offset="0.578125"/><stop stop-opacity="1" stop-color="rgb(0.231934%, 65.885925%, 75.869751%)" offset="0.582031"/><stop stop-opacity="1" stop-color="rgb(0.233459%, 66.20636%, 76.097107%)" offset="0.585938"/><stop stop-opacity="1" stop-color="rgb(0.234985%, 66.526794%, 76.322937%)" offset="0.589844"/><stop stop-opacity="1" stop-color="rgb(0.236511%, 66.847229%, 76.550293%)" offset="0.59375"/><stop stop-opacity="1" stop-color="rgb(0.238037%, 67.167664%, 76.776123%)" offset="0.597656"/><stop stop-opacity="1" stop-color="rgb(0.239563%, 67.488098%, 77.003479%)" offset="0.601562"/><stop stop-opacity="1" stop-color="rgb(0.241089%, 67.808533%, 77.229309%)" offset="0.605469"/><stop stop-opacity="1" stop-color="rgb(0.242615%, 68.127441%, 77.456665%)" offset="0.609375"/><stop stop-opacity="1" stop-color="rgb(0.244141%, 68.447876%, 77.682495%)" offset="0.613281"/><stop stop-opacity="1" stop-color="rgb(0.245667%, 68.768311%, 77.908325%)" offset="0.617188"/><stop stop-opacity="1" stop-color="rgb(0.247192%, 69.088745%, 78.135681%)" offset="0.621094"/><stop stop-opacity="1" stop-color="rgb(0.248718%, 69.40918%, 78.361511%)" offset="0.625"/><stop stop-opacity="1" stop-color="rgb(0.250244%, 69.729614%, 78.588867%)" offset="0.628906"/><stop stop-opacity="1" stop-color="rgb(0.25177%, 70.050049%, 78.814697%)" offset="0.632812"/><stop stop-opacity="1" stop-color="rgb(0.253296%, 70.370483%, 79.042053%)" offset="0.636719"/><stop stop-opacity="1" stop-color="rgb(0.254822%, 70.690918%, 79.267883%)" offset="0.640625"/><stop stop-opacity="1" stop-color="rgb(0.256348%, 71.011353%, 79.495239%)" offset="0.644531"/><stop stop-opacity="1" stop-color="rgb(0.259399%, 71.331787%, 79.721069%)" offset="0.648438"/><stop stop-opacity="1" stop-color="rgb(0.260925%, 71.652222%, 79.948425%)" offset="0.652344"/><stop stop-opacity="1" stop-color="rgb(0.262451%, 71.97113%, 80.174255%)" offset="0.65625"/><stop stop-opacity="1" stop-color="rgb(0.263977%, 72.291565%, 80.401611%)" offset="0.660156"/><stop stop-opacity="1" stop-color="rgb(0.265503%, 72.612%, 80.627441%)" offset="0.664062"/><stop stop-opacity="1" stop-color="rgb(0.267029%, 72.932434%, 80.854797%)" offset="0.667969"/><stop stop-opacity="1" stop-color="rgb(0.268555%, 73.252869%, 81.080627%)" offset="0.671875"/><stop stop-opacity="1" stop-color="rgb(0.270081%, 73.573303%, 81.307983%)" offset="0.675781"/><stop stop-opacity="1" stop-color="rgb(0.271606%, 73.893738%, 81.533813%)" offset="0.679688"/><stop stop-opacity="1" stop-color="rgb(0.273132%, 74.214172%, 81.761169%)" offset="0.683594"/><stop stop-opacity="1" stop-color="rgb(0.274658%, 74.534607%, 81.987%)" offset="0.6875"/><stop stop-opacity="1" stop-color="rgb(0.276184%, 74.855042%, 82.214355%)" offset="0.691406"/><stop stop-opacity="1" stop-color="rgb(0.27771%, 75.175476%, 82.440186%)" offset="0.695312"/><stop stop-opacity="1" stop-color="rgb(0.279236%, 75.495911%, 82.667542%)" offset="0.699219"/><stop stop-opacity="1" stop-color="rgb(0.280762%, 75.816345%, 82.893372%)" offset="0.703125"/><stop stop-opacity="1" stop-color="rgb(0.282288%, 76.135254%, 83.120728%)" offset="0.707031"/><stop stop-opacity="1" stop-color="rgb(0.283813%, 76.455688%, 83.346558%)" offset="0.710938"/><stop stop-opacity="1" stop-color="rgb(0.285339%, 76.776123%, 83.572388%)" offset="0.714844"/><stop stop-opacity="1" stop-color="rgb(0.286865%, 77.096558%, 83.799744%)" offset="0.71875"/><stop stop-opacity="1" stop-color="rgb(0.288391%, 77.416992%, 84.025574%)" offset="0.722656"/><stop stop-opacity="1" stop-color="rgb(0.289917%, 77.737427%, 84.25293%)" offset="0.726562"/><stop stop-opacity="1" stop-color="rgb(0.291443%, 78.057861%, 84.47876%)" offset="0.730469"/><stop stop-opacity="1" stop-color="rgb(0.292969%, 78.378296%, 84.706116%)" offset="0.734375"/><stop stop-opacity="1" stop-color="rgb(0.294495%, 78.69873%, 84.931946%)" offset="0.738281"/><stop stop-opacity="1" stop-color="rgb(0.296021%, 79.019165%, 85.159302%)" offset="0.742188"/><stop stop-opacity="1" stop-color="rgb(0.297546%, 79.3396%, 85.385132%)" offset="0.746094"/><stop stop-opacity="1" stop-color="rgb(0.299072%, 79.660034%, 85.612488%)" offset="0.75"/><stop stop-opacity="1" stop-color="rgb(0.300598%, 79.978943%, 85.838318%)" offset="0.753906"/><stop stop-opacity="1" stop-color="rgb(0.302124%, 80.299377%, 86.065674%)" offset="0.757812"/><stop stop-opacity="1" stop-color="rgb(0.30365%, 80.619812%, 86.291504%)" offset="0.761719"/><stop stop-opacity="1" stop-color="rgb(0.305176%, 80.940247%, 86.51886%)" offset="0.765625"/><stop stop-opacity="1" stop-color="rgb(0.306702%, 81.260681%, 86.74469%)" offset="0.769531"/><stop stop-opacity="1" stop-color="rgb(0.308228%, 81.581116%, 86.972046%)" offset="0.773438"/><stop stop-opacity="1" stop-color="rgb(0.309753%, 81.90155%, 87.197876%)" offset="0.777344"/><stop stop-opacity="1" stop-color="rgb(0.311279%, 82.221985%, 87.425232%)" offset="0.78125"/><stop stop-opacity="1" stop-color="rgb(0.312805%, 82.542419%, 87.651062%)" offset="0.785156"/><stop stop-opacity="1" stop-color="rgb(0.314331%, 82.862854%, 87.878418%)" offset="0.789062"/><stop stop-opacity="1" stop-color="rgb(0.315857%, 83.183289%, 88.104248%)" offset="0.792969"/><stop stop-opacity="1" stop-color="rgb(0.317383%, 83.503723%, 88.331604%)" offset="0.796875"/><stop stop-opacity="1" stop-color="rgb(0.318909%, 83.824158%, 88.557434%)" offset="0.800781"/><stop stop-opacity="1" stop-color="rgb(0.320435%, 84.143066%, 88.78479%)" offset="0.804688"/><stop stop-opacity="1" stop-color="rgb(0.32196%, 84.463501%, 89.01062%)" offset="0.808594"/><stop stop-opacity="1" stop-color="rgb(0.325012%, 84.783936%, 89.23645%)" offset="0.8125"/><stop stop-opacity="1" stop-color="rgb(0.326538%, 85.10437%, 89.463806%)" offset="0.816406"/><stop stop-opacity="1" stop-color="rgb(0.328064%, 85.424805%, 89.689636%)" offset="0.820312"/><stop stop-opacity="1" stop-color="rgb(0.32959%, 85.745239%, 89.916992%)" offset="0.824219"/><stop stop-opacity="1" stop-color="rgb(0.331116%, 86.065674%, 90.142822%)" offset="0.828125"/><stop stop-opacity="1" stop-color="rgb(0.332642%, 86.386108%, 90.370178%)" offset="0.832031"/><stop stop-opacity="1" stop-color="rgb(0.334167%, 86.706543%, 90.596008%)" offset="0.835938"/><stop stop-opacity="1" stop-color="rgb(0.335693%, 87.026978%, 90.823364%)" offset="0.839844"/><stop stop-opacity="1" stop-color="rgb(0.337219%, 87.347412%, 91.049194%)" offset="0.84375"/><stop stop-opacity="1" stop-color="rgb(0.338745%, 87.667847%, 91.27655%)" offset="0.847656"/><stop stop-opacity="1" stop-color="rgb(0.340271%, 87.986755%, 91.50238%)" offset="0.851562"/><stop stop-opacity="1" stop-color="rgb(0.341797%, 88.30719%, 91.729736%)" offset="0.855469"/><stop stop-opacity="1" stop-color="rgb(0.343323%, 88.627625%, 91.955566%)" offset="0.859375"/><stop stop-opacity="1" stop-color="rgb(0.344849%, 88.948059%, 92.182922%)" offset="0.863281"/><stop stop-opacity="1" stop-color="rgb(0.346375%, 89.268494%, 92.408752%)" offset="0.867188"/><stop stop-opacity="1" stop-color="rgb(0.3479%, 89.588928%, 92.636108%)" offset="0.871094"/><stop stop-opacity="1" stop-color="rgb(0.349426%, 89.909363%, 92.861938%)" offset="0.875"/><stop stop-opacity="1" stop-color="rgb(0.350952%, 90.229797%, 93.089294%)" offset="0.878906"/><stop stop-opacity="1" stop-color="rgb(0.352478%, 90.550232%, 93.315125%)" offset="0.882812"/><stop stop-opacity="1" stop-color="rgb(0.354004%, 90.870667%, 93.54248%)" offset="0.886719"/><stop stop-opacity="1" stop-color="rgb(0.35553%, 91.191101%, 93.768311%)" offset="0.890625"/><stop stop-opacity="1" stop-color="rgb(0.357056%, 91.511536%, 93.995667%)" offset="0.894531"/><stop stop-opacity="1" stop-color="rgb(0.358582%, 91.83197%, 94.221497%)" offset="0.898438"/><stop stop-opacity="1" stop-color="rgb(0.360107%, 92.150879%, 94.448853%)" offset="0.902344"/><stop stop-opacity="1" stop-color="rgb(0.361633%, 92.471313%, 94.674683%)" offset="0.90625"/><stop stop-opacity="1" stop-color="rgb(0.363159%, 92.791748%, 94.900513%)" offset="0.910156"/><stop stop-opacity="1" stop-color="rgb(0.364685%, 93.112183%, 95.127869%)" offset="0.914062"/><stop stop-opacity="1" stop-color="rgb(0.366211%, 93.432617%, 95.353699%)" offset="0.917969"/><stop stop-opacity="1" stop-color="rgb(0.367737%, 93.753052%, 95.581055%)" offset="0.921875"/><stop stop-opacity="1" stop-color="rgb(0.369263%, 94.073486%, 95.806885%)" offset="0.925781"/><stop stop-opacity="1" stop-color="rgb(0.370789%, 94.393921%, 96.034241%)" offset="0.929688"/><stop stop-opacity="1" stop-color="rgb(0.372314%, 94.714355%, 96.260071%)" offset="0.933594"/><stop stop-opacity="1" stop-color="rgb(0.37384%, 95.03479%, 96.487427%)" offset="0.9375"/><stop stop-opacity="1" stop-color="rgb(0.375366%, 95.355225%, 96.713257%)" offset="0.941406"/><stop stop-opacity="1" stop-color="rgb(0.376892%, 95.675659%, 96.940613%)" offset="0.945312"/><stop stop-opacity="1" stop-color="rgb(0.378418%, 95.994568%, 97.166443%)" offset="0.949219"/><stop stop-opacity="1" stop-color="rgb(0.379944%, 96.315002%, 97.393799%)" offset="0.953125"/><stop stop-opacity="1" stop-color="rgb(0.38147%, 96.635437%, 97.619629%)" offset="0.957031"/><stop stop-opacity="1" stop-color="rgb(0.382996%, 96.955872%, 97.846985%)" offset="0.960938"/><stop stop-opacity="1" stop-color="rgb(0.384521%, 97.276306%, 98.072815%)" offset="0.964844"/><stop stop-opacity="1" stop-color="rgb(0.386047%, 97.596741%, 98.300171%)" offset="0.96875"/><stop stop-opacity="1" stop-color="rgb(0.389099%, 97.917175%, 98.526001%)" offset="0.972656"/><stop stop-opacity="1" stop-color="rgb(0.390625%, 98.23761%, 98.753357%)" offset="0.976562"/><stop stop-opacity="1" stop-color="rgb(0.392151%, 98.558044%, 98.979187%)" offset="0.980469"/><stop stop-opacity="1" stop-color="rgb(0.393677%, 98.878479%, 99.206543%)" offset="0.984375"/><stop stop-opacity="1" stop-color="rgb(0.395203%, 99.198914%, 99.432373%)" offset="0.988281"/><stop stop-opacity="1" stop-color="rgb(0.396729%, 99.519348%, 99.659729%)" offset="0.992188"/><stop stop-opacity="1" stop-color="rgb(0.398254%, 99.839783%, 99.885559%)" offset="0.996094"/><stop stop-opacity="1" stop-color="rgb(0.39978%, 100%, 100%)" offset="1"/></radialGradient></defs><rect x="-37.5" width="450" fill="#ffffff" y="-37.499999" height="449.999989" fill-opacity="1"/><rect x="-37.5" width="450" fill="#ffffff" y="-37.499999" height="449.999989" fill-opacity="1"/><g clip-path="url(#e60d5b8d99)"><g clip-path="url(#f0dd8cf0f4)"><path fill="url(#cb7fcad368)" d="M 64.804688 138.101562 L 64.804688 236.894531 L 163.4375 236.894531 L 163.4375 138.101562 Z M 64.804688 138.101562 " fill-rule="nonzero"/></g></g><g fill="#002e6b" fill-opacity="1"><g transform="translate(170.741931, 194.999987)"><g><path d="M 25.859375 -19.0625 C 25.859375 -16.9375 25.300781 -15.316406 24.1875 -14.203125 C 25.414062 -13.085938 26.03125 -11.425781 26.03125 -9.21875 L 26.03125 -6.96875 C 26.03125 -6.457031 26.003906 -5.957031 25.953125 -5.46875 C 25.910156 -4.988281 25.847656 -4.539062 25.765625 -4.125 C 25.671875 -3.695312 25.550781 -3.296875 25.40625 -2.921875 C 25.257812 -2.554688 25.078125 -2.21875 24.859375 -1.90625 C 24.472656 -1.300781 23.914062 -0.820312 23.1875 -0.46875 C 22.507812 -0.132812 21.671875 0.03125 20.671875 0.03125 L 5.59375 0.03125 C 5.082031 0.03125 4.597656 -0.09375 4.140625 -0.34375 C 3.679688 -0.601562 3.316406 -0.957031 3.046875 -1.40625 C 2.867188 -1.71875 2.75 -2.066406 2.6875 -2.453125 L 2.71875 -25.328125 C 2.757812 -25.460938 2.804688 -25.601562 2.859375 -25.75 C 2.921875 -25.894531 2.984375 -26.03125 3.046875 -26.15625 C 3.585938 -27.03125 4.359375 -27.503906 5.359375 -27.578125 L 5.359375 -27.609375 L 20.171875 -27.609375 C 22.222656 -27.609375 23.6875 -27.035156 24.5625 -25.890625 C 25.425781 -24.796875 25.859375 -23.144531 25.859375 -20.9375 Z M 7.609375 -5.125 C 7.609375 -5.0625 7.613281 -5.015625 7.625 -4.984375 C 7.632812 -4.960938 7.640625 -4.953125 7.640625 -4.953125 L 19.296875 -4.953125 C 19.960938 -4.953125 20.429688 -5.097656 20.703125 -5.390625 C 20.972656 -5.703125 21.109375 -6.238281 21.109375 -7 L 21.109375 -9.28125 C 21.109375 -9.988281 20.960938 -10.523438 20.671875 -10.890625 C 20.359375 -11.242188 19.773438 -11.421875 18.921875 -11.421875 L 12.421875 -11.421875 C 12.140625 -11.421875 11.882812 -11.523438 11.65625 -11.734375 C 11.4375 -11.953125 11.328125 -12.21875 11.328125 -12.53125 L 11.328125 -15.28125 C 11.328125 -15.59375 11.4375 -15.851562 11.65625 -16.0625 C 11.882812 -16.269531 12.140625 -16.375 12.421875 -16.375 L 18.921875 -16.375 C 19.796875 -16.375 20.367188 -16.53125 20.640625 -16.84375 C 20.929688 -17.15625 21.078125 -17.648438 21.078125 -18.328125 L 21.078125 -20.640625 C 21.078125 -21.367188 20.941406 -21.878906 20.671875 -22.171875 C 20.398438 -22.484375 19.941406 -22.640625 19.296875 -22.640625 L 7.671875 -22.640625 C 7.628906 -22.640625 7.609375 -22.570312 7.609375 -22.4375 Z M 7.609375 -5.125 "/></g></g></g><g fill="#002e6b" fill-opacity="1"><g transform="translate(201.119367, 194.999987)"><g><path d="M 25.828125 -27.609375 C 25.984375 -27.609375 26.175781 -27.546875 26.40625 -27.421875 C 26.644531 -27.296875 26.765625 -26.976562 26.765625 -26.46875 L 26.765625 -10.484375 C 26.765625 -9.546875 26.726562 -8.675781 26.65625 -7.875 C 26.59375 -7.070312 26.484375 -6.34375 26.328125 -5.6875 C 26.015625 -4.3125 25.535156 -3.21875 24.890625 -2.40625 C 24.242188 -1.5625 23.375 -0.9375 22.28125 -0.53125 C 21.269531 -0.175781 20.003906 0 18.484375 0 L 10.953125 0 C 9.429688 0 8.171875 -0.175781 7.171875 -0.53125 C 6.660156 -0.738281 6.179688 -1 5.734375 -1.3125 C 5.285156 -1.625 4.90625 -1.988281 4.59375 -2.40625 C 3.894531 -3.257812 3.398438 -4.351562 3.109375 -5.6875 C 2.953125 -6.34375 2.84375 -7.070312 2.78125 -7.875 C 2.71875 -8.675781 2.6875 -9.546875 2.6875 -10.484375 L 2.6875 -26.46875 C 2.6875 -26.976562 2.804688 -27.296875 3.046875 -27.421875 C 3.296875 -27.546875 3.5 -27.609375 3.65625 -27.609375 L 6.703125 -27.609375 C 6.859375 -27.609375 7.050781 -27.546875 7.28125 -27.421875 C 7.519531 -27.296875 7.640625 -26.976562 7.640625 -26.46875 L 7.640625 -9.953125 C 7.640625 -9.460938 7.65625 -9 7.6875 -8.5625 C 7.71875 -8.125 7.757812 -7.75 7.8125 -7.4375 C 7.9375 -6.832031 8.125 -6.328125 8.375 -5.921875 C 8.644531 -5.585938 8.976562 -5.34375 9.375 -5.1875 C 9.601562 -5.125 9.863281 -5.066406 10.15625 -5.015625 C 10.445312 -4.972656 10.769531 -4.953125 11.125 -4.953125 L 18.359375 -4.953125 C 18.710938 -4.953125 19.035156 -4.972656 19.328125 -5.015625 C 19.617188 -5.066406 19.875 -5.125 20.09375 -5.1875 C 20.5 -5.34375 20.835938 -5.585938 21.109375 -5.921875 C 21.210938 -6.109375 21.316406 -6.328125 21.421875 -6.578125 C 21.523438 -6.835938 21.597656 -7.125 21.640625 -7.4375 C 21.679688 -7.75 21.71875 -8.125 21.75 -8.5625 C 21.789062 -9 21.8125 -9.460938 21.8125 -9.953125 L 21.8125 -26.46875 C 21.8125 -26.976562 21.925781 -27.296875 22.15625 -27.421875 C 22.394531 -27.546875 22.59375 -27.609375 22.75 -27.609375 Z M 25.828125 -27.609375 "/></g></g></g><g fill="#002e6b" fill-opacity="1"><g transform="translate(232.23363, 194.999987)"><g><path d="M 25.359375 -27.609375 C 25.492188 -27.609375 25.679688 -27.539062 25.921875 -27.40625 C 26.171875 -27.269531 26.296875 -26.945312 26.296875 -26.4375 L 26.296875 -23.8125 C 26.296875 -23.28125 26.171875 -22.953125 25.921875 -22.828125 C 25.679688 -22.703125 25.492188 -22.640625 25.359375 -22.640625 L 11.125 -22.640625 C 10.769531 -22.640625 10.445312 -22.617188 10.15625 -22.578125 C 9.863281 -22.535156 9.601562 -22.476562 9.375 -22.40625 C 8.976562 -22.25 8.644531 -22.003906 8.375 -21.671875 C 8.101562 -21.273438 7.925781 -20.785156 7.84375 -20.203125 C 7.707031 -19.535156 7.640625 -18.695312 7.640625 -17.6875 L 7.640625 -9.921875 C 7.640625 -8.910156 7.707031 -8.070312 7.84375 -7.40625 C 7.925781 -6.800781 8.101562 -6.304688 8.375 -5.921875 C 8.644531 -5.566406 8.976562 -5.320312 9.375 -5.1875 C 9.78125 -5.03125 10.363281 -4.953125 11.125 -4.953125 L 20.5 -4.953125 C 20.882812 -4.953125 21.15625 -5.078125 21.3125 -5.328125 C 21.375 -5.441406 21.4375 -5.617188 21.5 -5.859375 C 21.570312 -6.109375 21.609375 -6.488281 21.609375 -7 C 21.609375 -7 21.609375 -7.15625 21.609375 -7.46875 C 21.609375 -7.78125 21.609375 -8.171875 21.609375 -8.640625 C 21.609375 -9.109375 21.601562 -9.578125 21.59375 -10.046875 C 21.582031 -10.515625 21.578125 -10.90625 21.578125 -11.21875 C 21.578125 -11.53125 21.578125 -11.6875 21.578125 -11.6875 L 13.234375 -11.6875 C 13.097656 -11.6875 12.90625 -11.75 12.65625 -11.875 C 12.414062 -12 12.296875 -12.335938 12.296875 -12.890625 L 12.296875 -15.4375 C 12.296875 -15.976562 12.414062 -16.316406 12.65625 -16.453125 C 12.90625 -16.585938 13.097656 -16.65625 13.234375 -16.65625 L 25.09375 -16.65625 C 25.3125 -16.65625 25.5625 -16.566406 25.84375 -16.390625 C 26.125 -16.222656 26.265625 -15.816406 26.265625 -15.171875 L 26.265625 -6.203125 C 26.265625 -3.984375 25.941406 -2.394531 25.296875 -1.4375 C 24.617188 -0.457031 23.65625 0.03125 22.40625 0.03125 L 10.953125 0.03125 C 9.503906 0.03125 8.242188 -0.15625 7.171875 -0.53125 C 6.140625 -0.894531 5.28125 -1.507812 4.59375 -2.375 C 3.894531 -3.269531 3.398438 -4.363281 3.109375 -5.65625 C 2.953125 -6.332031 2.84375 -7.070312 2.78125 -7.875 C 2.71875 -8.675781 2.6875 -9.546875 2.6875 -10.484375 L 2.6875 -17.125 C 2.6875 -18.03125 2.71875 -18.882812 2.78125 -19.6875 C 2.84375 -20.5 2.953125 -21.226562 3.109375 -21.875 C 3.265625 -22.539062 3.46875 -23.144531 3.71875 -23.6875 C 3.96875 -24.238281 4.257812 -24.726562 4.59375 -25.15625 C 5.21875 -25.976562 6.078125 -26.601562 7.171875 -27.03125 C 8.242188 -27.414062 9.503906 -27.609375 10.953125 -27.609375 Z M 25.359375 -27.609375 "/></g></g></g><g fill="#002e6b" fill-opacity="1"><g transform="translate(262.878994, 194.999987)"><g><path d="M 20.640625 -24.484375 L 30.046875 -1.265625 C 30.179688 -0.953125 30.21875 -0.6875 30.15625 -0.46875 C 30.125 -0.375 30.054688 -0.265625 29.953125 -0.140625 C 29.859375 -0.0234375 29.675781 0.03125 29.40625 0.03125 L 25.828125 0.03125 C 25.359375 0.03125 25.035156 -0.210938 24.859375 -0.703125 L 16.546875 -21.4375 C 16.523438 -21.476562 16.515625 -21.5 16.515625 -21.5 L 16.375 -21.5 C 16.375 -21.5 16.367188 -21.492188 16.359375 -21.484375 C 16.347656 -21.472656 16.332031 -21.445312 16.3125 -21.40625 L 12.03125 -10.546875 L 16.1875 -10.546875 C 16.65625 -10.546875 16.976562 -10.320312 17.15625 -9.875 L 18.359375 -6.90625 C 18.472656 -6.519531 18.425781 -6.191406 18.21875 -5.921875 C 18.039062 -5.609375 17.753906 -5.453125 17.359375 -5.453125 L 10.015625 -5.453125 L 8.109375 -0.671875 C 7.929688 -0.203125 7.617188 0.03125 7.171875 0.03125 L 3.484375 0.03125 C 3.210938 0.03125 3.023438 -0.0234375 2.921875 -0.140625 C 2.828125 -0.265625 2.769531 -0.375 2.75 -0.46875 C 2.675781 -0.664062 2.695312 -0.929688 2.8125 -1.265625 L 12.15625 -24.484375 C 12.601562 -25.671875 13.097656 -26.488281 13.640625 -26.9375 C 13.703125 -26.976562 13.773438 -27.03125 13.859375 -27.09375 C 13.953125 -27.164062 14.046875 -27.222656 14.140625 -27.265625 C 14.804688 -27.734375 15.578125 -27.96875 16.453125 -27.96875 C 17.367188 -27.96875 18.191406 -27.6875 18.921875 -27.125 C 19.660156 -26.570312 20.164062 -25.859375 20.4375 -24.984375 C 20.476562 -24.921875 20.515625 -24.84375 20.546875 -24.75 C 20.585938 -24.664062 20.617188 -24.578125 20.640625 -24.484375 Z M 20.640625 -24.484375 "/></g></g></g></svg>