<svg xmlns="http://www.w3.org/2000/svg" xmlns:xlink="http://www.w3.org/1999/xlink" width="428" height="926" viewBox="0 0 428 926">
  <defs>
    <linearGradient id="linear-gradient" x1="0.11" y1="0.139" x2="0.803" y2="1" gradientUnits="objectBoundingBox">
      <stop offset="0" stop-color="#f7c735"/>
      <stop offset="1" stop-color="#e29d01"/>
    </linearGradient>
    <linearGradient id="linear-gradient-2" x1="0.871" y1="-0.212" x2="0.117" y2="0.278" xlink:href="#linear-gradient"/>
    <filter id="Path_777" x="45.146" y="820.225" width="399.76" height="104.949" filterUnits="userSpaceOnUse">
      <feOffset dy="3" input="SourceAlpha"/>
      <feGaussianBlur stdDeviation="3" result="blur"/>
      <feFlood flood-opacity="0.161"/>
      <feComposite operator="in" in2="blur"/>
      <feComposite in="SourceGraphic"/>
    </filter>
    <filter id="Path_775" x="260.723" y="813" width="199.307" height="88.93" filterUnits="userSpaceOnUse">
      <feOffset dy="3" input="SourceAlpha"/>
      <feGaussianBlur stdDeviation="3" result="blur-2"/>
      <feFlood flood-opacity="0.161"/>
      <feComposite operator="in" in2="blur-2"/>
      <feComposite in="SourceGraphic"/>
    </filter>
    <linearGradient id="linear-gradient-3" x1="0.5" x2="0.5" y2="1" gradientUnits="objectBoundingBox">
      <stop offset="0" stop-color="#01ffff"/>
      <stop offset="1" stop-color="#068b8b"/>
    </linearGradient>
    <filter id="Path_776" x="-48.029" y="855.307" width="379.111" height="82.863" filterUnits="userSpaceOnUse">
      <feOffset dy="3" input="SourceAlpha"/>
      <feGaussianBlur stdDeviation="3" result="blur-3"/>
      <feFlood flood-opacity="0.161"/>
      <feComposite operator="in" in2="blur-3"/>
      <feComposite in="SourceGraphic"/>
    </filter>
    <clipPath id="clip-_1_Onboarding_Screen">
      <rect width="428" height="926"/>
    </clipPath>
  </defs>
  <g id="_1_Onboarding_Screen" data-name="1 Onboarding Screen" clip-path="url(#clip-_1_Onboarding_Screen)">
    <rect width="428" height="926" fill="#fff"/>
    <g id="Symbols" transform="translate(25 44.74)">
      <g id="Scene_Home" data-name="Scene/Home" transform="translate(0 0)">
        <g id="Lamp" transform="translate(0 0)">
          <path id="Body" d="M108.1,27.293,97.466,16.654a4.581,4.581,0,0,0-6.478,0h0l-28.3,28.319A9.162,9.162,0,0,0,60,51.45V239.019" transform="translate(-43.395 -7.689)" fill="none" stroke="#cbcbcb" stroke-width="8" fill-rule="evenodd"/>
          <rect id="Lamp-Base" width="33.783" height="4.008" rx="2.004" transform="translate(0 230.757)" fill="#afb9c5"/>
          <g id="Lamp-Top" transform="translate(98.62 26.95) rotate(135)">
            <path id="Lamp-2" data-name="Lamp" d="M18.9,34.929h0a18.9,18.9,0,0,0,18.9-18.9V0H0V16.033A18.9,18.9,0,0,0,18.9,34.929Z" transform="translate(0 3.185)" fill="#c5cfd6" fill-rule="evenodd"/>
            <ellipse id="Lamp-3" data-name="Lamp" cx="18.896" cy="3.722" rx="18.896" ry="3.722" transform="translate(0.102 0)" fill="#f2f2f2"/>
          </g>
        </g>
      </g>
    </g>
    <g id="Group_160517" data-name="Group 160517" transform="translate(1943.369 340.672)">
      <g id="Group_2113" data-name="Group 2113" transform="translate(-1827.369 -106.332)">
        <rect id="Rectangle_425" data-name="Rectangle 425" width="5.924" height="68.804" transform="translate(42.479 4.047)" fill="#353535"/>
        <path id="Path_797" data-name="Path 797" d="M297.9,192.847a4.068,4.068,0,0,1-4.034,4.047H211.934a4.068,4.068,0,0,1-4.033-4.047h0a4.068,4.068,0,0,1,4.033-4.047h81.933a3.989,3.989,0,0,1,4.034,4.047Z" transform="translate(-207.9 -188.8)" fill="#353535"/>
      </g>
    </g>
    <g id="Symbols-2" data-name="Symbols" transform="translate(16 107.261)">
      <g id="Scene_Plants" data-name="Scene/Plants" transform="translate(0 -0.596)">
        <path id="Leaf-Top" d="M42.965,3.764c1.156-.5,2.624.227,1.92,1.671-.754,1.547-3.237,1.436-4.637,1.331.141,0,.668-1.427.835-1.638A4.759,4.759,0,0,1,42.965,3.764ZM28.481,31.9C28.066,32.223,28.447,31.934,28.481,31.9ZM43.89,11.177a1.346,1.346,0,0,1,.049,2.029,3.35,3.35,0,0,1-2.78.486c-.4-.053-2.552-.336-2.022-.659a1.792,1.792,0,0,0-.215.088q-.084.253-.176.5c.012.008.022.016.036.024-.014-.007-.024-.015-.037-.022a19.572,19.572,0,0,1-2.481,4.713A4.707,4.707,0,0,1,37.4,18.1c1.134-.083,3.457.907,2.118,2.326-1.283,1.361-3.082-.264-4.442-.546a63.8,63.8,0,0,1-4.612,5.076.365.365,0,0,1,.214.2,9.065,9.065,0,0,1,1.875-.778c.832-.13,2.525-.147,3.109.614.718.937-.141,1.623-1.054,1.748-1.324.182-3.006-.542-4.245-1.036a.419.419,0,0,1-.389-.151l-.081-.031c-1.645,1.613-3.347,3.167-5.037,4.686h.052a4.391,4.391,0,0,1,1.387-.542,3.731,3.731,0,0,1,3.337.709,2.106,2.106,0,0,1,.127,3.126c-1.981,1.709-4.541-2.554-5.483-2.775-1.717,1.526-3.521,2.942-5.352,4.326a3.148,3.148,0,0,1,.621-.092c1.727-.074,5.649,2.222,3.432,4.165-1.932,1.693-3.877-1.86-5.294-3.14-1.724,1.289-3.456,2.568-5.145,3.9a4.745,4.745,0,0,1,2.673.156c.961.343,2.5,1.155,1.811,2.428-.7,1.295-2.557.593-3.52.12a26.832,26.832,0,0,0-2.49-1.465A32.23,32.23,0,0,0,4.084,48.97a27.994,27.994,0,0,0-2.744,6.05A18.135,18.135,0,0,0,.127,60.413c-.487-3.6.961-7.809,2.445-10.924a26.8,26.8,0,0,1,5.555-7.542c-.448-1.613-4.808-4.132-2.051-5.466,1.463-.705,2.852.663,3.09,2.048a5.757,5.757,0,0,1-.618,3.012q1.057-1.005,2.184-1.939c1.036-.861,2.095-1.693,3.162-2.514-1.6-1.653-2.956-6.211-.661-6.826,3.389-.9,1.461,5.117,1.168,6.249a.183.183,0,0,1-.152-.067c.013.106.029.219.049.334,2.042-1.563,4.113-3.092,6.121-4.7a8.7,8.7,0,0,1-.617-.9,9.759,9.759,0,0,1-1.2-1.931c-.482-1.1-.91-2.837.55-3.394,1.588-.607,2.223,1.366,2.173,2.52a15.158,15.158,0,0,1-.45,2.321c-.049.242.031,1.349-.28.858a2.3,2.3,0,0,1-.011.391q.541-.434,1.075-.878a.417.417,0,0,1-.023-.134.4.4,0,0,1,.6-.346q.705-.6,1.4-1.215c.972-.875,1.96-1.775,2.941-2.7-.193-.182-.1-.416-.279-.608s-.545-.311-.757-.492a5.313,5.313,0,0,1-1.267-1.725c-.5-1.036-1.1-3.186.538-3.583,1.688-.409,2.424,1.669,2.464,2.946a32.272,32.272,0,0,1-.481,3.257c1.817-1.711,3.609-3.492,5.244-5.314a5.971,5.971,0,0,1-1.987-1.312c-.617-.662-1.578-2.1-.4-2.779,1.049-.6,2.248.41,2.633,1.349a12.751,12.751,0,0,1,.227,2.2c.678-.773,1.326-1.553,1.933-2.337q.607-.782,1.144-1.608a.756.756,0,0,1-.212-.23c-1.676-.372-3.694-3.1-1.659-3.9.969-.383,1.947.562,2.372,1.317a9.622,9.622,0,0,1,.295,1.513,31.227,31.227,0,0,0,2.53-5.79.367.367,0,0,1-.271-.354,5.026,5.026,0,0,1-1.951-1.847c-.327-.572-.9-1.871.162-2.124,1.383-.329,2.129,1.775,2.187,2.8.007.118-.012.461-.033.775a.463.463,0,0,1,.142.01c.38-1.246.7-2.512.963-3.782C39.38,4.779,39.457.907,39.98.383c1.171-1.175,1.858.646,1.749,1.584a6.193,6.193,0,0,1-1.341,2.953c-.07.091-.051.088-.061-.045a.265.265,0,0,1-.072.145,16.648,16.648,0,0,1-.027,1.7,39.045,39.045,0,0,1-.745,4.4q-.121.528-.267,1.046a8.69,8.69,0,0,1,1.776-1C41.829,10.846,43.11,10.519,43.89,11.177ZM0,60.265a2.719,2.719,0,0,0,.321,1.285A7.019,7.019,0,0,1,0,60.265Z" transform="translate(24.448 2.359) rotate(-3)" fill="#c1dee2" fill-rule="evenodd" opacity="0.2"/>
        <g id="Plant-Left" transform="translate(0 16.58)" opacity="0.5">
          <path id="Leaf" d="M133.959,95.534c1.35-1.925,3.856-6.816,5.757-7.5,1.224-.443.867,4.141.882,5.015a73.287,73.287,0,0,1-.677,10.1,39.446,39.446,0,0,1-6.413,16.581c-1.69,2.649-3.673,5.329-6.419,6.982-1.264.761-2.785.889-4.033,1.544-1.454.763-.662.146-1.318,1.661a34.55,34.55,0,0,0-1.622,7.062c-1.933,10.3-6.613,64.768-5.8,75.248.072.929-1.223,1.151-1.288.017-.344-6.013,2.63-47.652,4.131-61.269s3.019-25.647,4.541-30.358a127.555,127.555,0,0,1,7.959-17.919A63.409,63.409,0,0,1,133.959,95.534Z" transform="translate(-76.688 -59.722)" fill="#69a1ac" fill-rule="evenodd"/>
          <path id="Leaf-2" data-name="Leaf" d="M141.267,317.732c3.514-2.58,7.318,2.289,4.138,4.869a3.185,3.185,0,0,1-4.63-.27c-.672.819-1.3,1.675-1.9,2.4-1.84,2.2-3.579,4.459-5.242,6.767-3.453,4.8-6.412,9.862-9.507,14.835-3.053,4.909-6.082,9.843-8.85,14.876-2.345,4.264-5.47,9.281-6.272,13.956,1.218-9.915,5.839-19.445,11.343-28.185,5.459-8.669,11.723-18.136,20.175-24.977A2.994,2.994,0,0,1,141.267,317.732Z" transform="translate(-73.974 -215.134)" fill="#c1dee2" fill-rule="evenodd"/>
          <path id="Leaf-3" data-name="Leaf" d="M.615,244.01c1.966.384,5.179,4.833,6.8,6.527a63.475,63.475,0,0,1,5.321,6.41A108.418,108.418,0,0,1,22.151,272.3a142.736,142.736,0,0,1,10.476,27.262,112.421,112.421,0,0,1,3.178,17.882c.113,1.132,1.3,9.861-.41,10.1-1.538.212-1.063-6.628-1.137-7.559a120.846,120.846,0,0,0-6.848-30.6,34.884,34.884,0,0,0-2.687-6.735c-.877-1.4-.006-.91-1.547-1.438-1.323-.454-2.831-.343-4.186-.9-2.944-1.207-5.3-3.551-7.367-5.908a39.7,39.7,0,0,1-8.856-15.408A74.171,74.171,0,0,1,.533,249.11C.412,248.243-.652,243.762.615,244.01Z" transform="translate(0 -165.592)" fill="#69a1ac" fill-rule="evenodd"/>
          <path id="Leaf-4" data-name="Leaf" d="M16.519,4.408A178.194,178.194,0,0,1,33.942,45.655c2.381,8.659,4.047,17.545,5.7,26.366,2.562,13.659,4.985,27.317,5.674,41.218.693,13.982,2.065,30.109-2.514,43.576,2.287-13.673.11-28.226-.276-41.984-.184-6.568-.718-13.071-1.418-19.6-.68-6.334-1.79-12.637-2.824-18.921q-.755-4.591-1.571-9.17c-.161-.911-.229-3.615-.807-4.238s-3.55-.882-4.482-1.342a24.052,24.052,0,0,1-5.2-3.631,41.568,41.568,0,0,1-7.656-9.577c-4.758-7.94-6.66-17.63-6.563-26.825C12.022,19.743,14.893.517,13.74.253q.1-.122.2-.253Q15.247,2.193,16.519,4.408Z" transform="translate(-8.144)" fill="#89c5cc" fill-rule="evenodd"/>
          <path id="Leaf-5" data-name="Leaf" d="M162.972,155.249c.114-.165.858-1.311.484-1.238.763-.149-1.049,1.264.851.4-.9.852-.381,1.959-.37,3.106a27.823,27.823,0,0,1-.642,5.531,37.93,37.93,0,0,1-2.578,8.359,37.458,37.458,0,0,1-12.311,15.107c-2.6,1.8-5.146,2.416-8.11,3.245-1.872.524-2.021,1.493-3.015,3.31-2.069,3.784-4.1,7.554-5.926,11.466-2.179,4.671-4.294,9.348-6.289,14.1-6.722,16.011-12.192,32.6-15.065,49.766-.07-10.116,2.27-20.535,5.222-30.178a180.129,180.129,0,0,1,7.936-20.5,25.962,25.962,0,0,0,2.127-5.506c.215-1.256-.443-2.464-.744-3.788a39.641,39.641,0,0,1-.059-16.108c1.137-5.713,4.424-8.365,9.985-9.174,2.034-.3,4.619-.188,6.484-1.055,2.032-.944,2.87-4.048,4.025-6.041a82.148,82.148,0,0,1,11.024-15,35.76,35.76,0,0,1,3.77-3.469C160.616,156.909,162.4,156.079,162.972,155.249Z" transform="translate(-74.652 -104.513)" fill="#89c5cc" fill-rule="evenodd"/>
          <path id="Base" d="M77.4,476H97.134a1.607,1.607,0,0,1,1.607,1.607,1.587,1.587,0,0,1-.017.234L97.2,488.185a6.427,6.427,0,0,1-6.358,5.489H83.692a6.427,6.427,0,0,1-6.358-5.489l-1.525-10.344a1.607,1.607,0,0,1,1.355-1.824A1.632,1.632,0,0,1,77.4,476Z" transform="translate(-51.436 -323.04)" fill="#c1dee2" fill-rule="evenodd"/>
        </g>
      </g>
    </g>
    <g id="Symbols-3" data-name="Symbols" transform="translate(189.323 142.668)">
      <g id="Scene_Plants-2" data-name="Scene/Plants" transform="translate(-12.002 -1.002)">
        <path id="Leaf-Bottom" d="M67.173,91.1c1.84.8,4.178-.362,3.057-2.661-1.2-2.462-5.153-2.286-7.381-2.119.224,0,1.064,2.271,1.329,2.607A7.574,7.574,0,0,0,67.173,91.1ZM44.14,47.038C43.667,46.675,44.1,47,44.14,47.038ZM68.3,79.62a2.131,2.131,0,0,0,.076-3.191c-1.081-1.088-2.943-.949-4.329-.765-.627.083-3.974.529-3.149,1.037a2.717,2.717,0,0,1-.334-.138q-.132-.4-.274-.793c.019-.012.035-.026.056-.038-.022.011-.038.023-.057.034a30.888,30.888,0,0,0-3.864-7.411,7.285,7.285,0,0,0,1.764.373c1.765.13,5.383-1.426,3.3-3.658-2-2.14-4.8.415-6.918.858a99.923,99.923,0,0,0-7.182-7.982.571.571,0,0,0,.334-.309,14.064,14.064,0,0,0,2.92,1.223c1.3.2,3.933.232,4.842-.966,1.118-1.473-.22-2.552-1.641-2.749-2.062-.285-4.681.852-6.61,1.629a.65.65,0,0,0-.606.238l-.127.049c-2.562-2.537-5.213-4.981-7.845-7.369h.081a6.806,6.806,0,0,0,2.161.852c1.776.335,3.84.229,5.2-1.114s1.738-3.574.2-4.916c-3.085-2.686-7.072,4.016-8.538,4.364-2.674-2.4-5.484-4.626-8.334-6.8a4.876,4.876,0,0,0,.966.145c2.689.116,8.8-3.494,5.345-6.549-3.009-2.662-6.037,2.924-8.244,4.938-2.685-2.027-5.382-4.038-8.012-6.137a7.323,7.323,0,0,0,4.163-.244c1.5-.54,3.889-1.816,2.821-3.818-1.087-2.036-3.983-.932-5.482-.189a41.625,41.625,0,0,1-3.878,2.3A50.521,50.521,0,0,1,6.313,20.187,44.213,44.213,0,0,1,2.04,10.674C1.368,8.554.076,5,.15,2.192c-.759,5.655,1.5,12.281,3.808,17.178a42.138,42.138,0,0,0,8.652,11.86c-.7,2.537-7.487,6.5-3.195,8.6,2.279,1.109,4.441-1.042,4.813-3.22a9.124,9.124,0,0,0-.962-4.736q1.646,1.581,3.4,3.05c1.613,1.353,3.262,2.663,4.924,3.954-2.492,2.6-4.6,9.767-1.029,10.734,5.277,1.423,2.276-8.046,1.82-9.827a.283.283,0,0,0-.237.1c.021-.166.045-.344.077-.524,3.181,2.458,6.4,4.862,9.532,7.385a13.727,13.727,0,0,0-.962,1.418A15.367,15.367,0,0,0,28.93,51.2c-.75,1.73-1.417,4.462.856,5.337,2.473.954,3.462-2.148,3.384-3.963a24.1,24.1,0,0,0-.7-3.65c-.076-.381.048-2.121-.436-1.35a3.665,3.665,0,0,0-.016-.615q.842.683,1.674,1.381a.651.651,0,0,0-.036.211.628.628,0,0,0,.929.544q1.1.94,2.173,1.911c1.514,1.375,3.052,2.791,4.581,4.239-.3.286-.156.654-.434.956s-.848.49-1.18.774a8.362,8.362,0,0,0-1.972,2.713c-.776,1.629-1.713,5.011.837,5.634,2.629.644,3.775-2.624,3.837-4.633a51.083,51.083,0,0,0-.75-5.122c2.83,2.692,5.621,5.492,8.167,8.356-.724.045-2.7,1.637-3.094,2.063-.961,1.041-2.457,3.308-.62,4.37,1.633.942,3.5-.644,4.1-2.121a20.266,20.266,0,0,0,.353-3.467c1.055,1.216,2.065,2.442,3.01,3.675q.945,1.23,1.781,2.529a1.187,1.187,0,0,0-.33.361c-2.61.585-5.753,4.87-2.584,6.138,1.509.6,3.032-.885,3.694-2.071a15.328,15.328,0,0,0,.459-2.379,49.362,49.362,0,0,1,3.94,9.105.576.576,0,0,0-.421.557,7.855,7.855,0,0,0-3.038,2.9c-.509.9-1.4,2.941.251,3.339,2.154.518,3.316-2.791,3.406-4.4.011-.186-.019-.725-.052-1.218a.713.713,0,0,0,.221-.015c.591,1.96,1.085,3.95,1.5,5.948-1.138.433-1.02,6.522-.2,7.347,1.824,1.847,2.892-1.015,2.723-2.49a9.781,9.781,0,0,0-2.089-4.644c-.109-.144-.08-.138-.095.071a.421.421,0,0,0-.112-.228,26.488,26.488,0,0,0-.042-2.676A62.054,62.054,0,0,0,61.44,79.7q-.187-.83-.415-1.645a13.489,13.489,0,0,0,2.765,1.577C65.094,80.14,67.09,80.653,68.3,79.62ZM0,2.192A6.561,6.561,0,0,1,.365,0,17.105,17.105,0,0,0,0,2.192Z" transform="matrix(-0.999, -0.052, 0.052, -0.999, 70.425, 100.754)" fill="#f2f2f2" fill-rule="evenodd"/>
        <g id="Plant-Right" transform="translate(33.205 19.143)" opacity="0.7">
          <path id="Leaf-Me-Alone_" data-name="Leaf-Me-Alone!" d="M24.447,86.584c-4.988-.264-10.82-3.8-10.782-9.253.027-3.959.557-7.853.373-11.829a31.853,31.853,0,0,0-1.911-9.277c-1.032-2.878-3.524-5.5-3.929-8.5a12.621,12.621,0,0,1,1.089-6.266c.994-2.137.571-2-.75-4.024A50.773,50.773,0,0,1,2.232,24.906C.166,18.347-.851,10.827.882,4.068,1.1,3.21,1.584.1,2.808,0c1.367-.1.552,1.62.419,2.191A38,38,0,0,0,1.8,12.82C2.4,27.5,11.767,38.108,17.229,51.083c.3.672.93,2.26,1.37,3.311.7,1.659,1.246,4.736,2.288,6.021,1.962,2.422.41-2.2.071-3.081-.428-1.121-.9-2.314-1.359-3.3-2.079-4.588-4.41-9.6-6.558-14.331,11.585-1.389,18.123,13.05,20.219,22.311,1.727,7.63,2.91,25.17-8.813,24.575" transform="matrix(-0.995, 0.105, -0.105, -0.995, 43.211, 125.715)" fill="#69a1ac" fill-rule="evenodd"/>
          <path id="Leaf-Me-Alone_2" data-name="Leaf-Me-Alone!" d="M146.2,78.044c-8.339.662-13.693,6.164-16.185,13.861-1.343,4.148-1.5,8.409-2.244,12.671a27.069,27.069,0,0,1-8.26,15.842,15.937,15.937,0,0,0-3.306,4.422,18.838,18.838,0,0,0-3.817,5.455,10.076,10.076,0,0,0-.16,8.766,8.984,8.984,0,0,0,2.345,2.88,56.454,56.454,0,0,0-5.555,25.356c.14,5.25.4,10.5.7,15.745.08,1.408.539,3.733,1.227,1.372.63-2.16-.16-5.55-.233-7.806-.356-10.992-.66-20.985,3.864-31.255.475-1.076.978-2.144,1.5-3.2a1.048,1.048,0,0,0,.088-.06l.058.047c.033-.06.079-.131.133-.21a2.857,2.857,0,0,0,.406-.57,4.135,4.135,0,0,0,.858-1.568s0-.007,0-.01a148,148,0,0,1,9.286-13.128c-.024.031,3.555-4.842,3-2.147-.267,1.3-2.9,3.772-3.963,5.148a128.186,128.186,0,0,0-7.409,10.688,5.4,5.4,0,0,0-1.061,1.7c-.174.329-.337.66-.5.949,8.133,2.687,14.459-2.726,18.773-9.021l.015-.023A27.363,27.363,0,0,1,140.1,129.1c2.8-2.295,5.8-2.7,9.109-3.829,9.012-3.079,12.844-14.759,14.06-23.425,1.373-9.777-5.343-24.769-17.068-23.805" transform="translate(-69.49 -49.64)" fill="#89c5cc" fill-rule="evenodd"/>
          <path id="Leaf-Me-Alone_3" data-name="Leaf-Me-Alone!" d="M35.841.834c-9.716,7.63-15.53,19.29-20.389,30.337C10.025,43.508,5.8,56.217,3.831,69.561,2.537,78.328,1.058,87.125.338,95.963a94.189,94.189,0,0,0-.323,9.45c.005.259.143,7.29,1.424,5.836.729-.827-.129-7.292-.114-8.347a135.22,135.22,0,0,1,1.6-17.718C4.345,75.513,5.413,65.843,7.75,56.337a32.976,32.976,0,0,1,1.217-4.276c.574-1.447.019-.858,1.285-1.284,1.23-.415,2.639-.133,3.933-.688,5.133-2.2,8.589-9.231,11.151-13.8a93.5,93.5,0,0,0,6.932-16.607A122.862,122.862,0,0,0,35.7,7.057a33.746,33.746,0,0,1,.953-4.081,9.415,9.415,0,0,0,.607-1.263c.068-.682-.286-1.139-.239-1.713q-.6.4-1.182.834" transform="translate(24.628 5.187) rotate(-8)" fill="#89c5cc" fill-rule="evenodd"/>
          <path id="Base-2" data-name="Base" d="M38,328a26.674,26.674,0,0,0,53.348,0" transform="translate(-24.433 -208.291)" fill="#89c5cc" fill-rule="evenodd"/>
          <path id="Leaf-Me-Alone_4" data-name="Leaf-Me-Alone!" d="M114.409,287.47H113a47.319,47.319,0,0,1,.523-5.282c1.131-6.688,4.666-16.51,12.42-17.6a20.028,20.028,0,0,1,2.613.028,4.708,4.708,0,0,1,1.994-.589c6.6-.487,13.974,4.839,17.158,10.382,2.567,4.468,2.135,10.336.549,15.084-1.062,3.178-3.379,7.71-7.244,7.754-4.835.055-5.068-5.921-5.162-9.414-.124-4.645-.711-8.69-4.371-11.856-.853-.737-1.785-1.386-2.647-2.113-1.349-1.138-2.84-2.3-3.014-4.187-.24-2.6,1.227-3.066,3.466-2.583.382.082,4.227,1.808,3.658.444a2.536,2.536,0,0,0-1.61-.994,30.135,30.135,0,0,0-5.257-.331c-7.672,1.683-10.659,12.31-11.452,19.062C114.539,286.007,114.47,286.738,114.409,287.47Z" transform="translate(-72.028 -167.677)" fill="#69a1ac" fill-rule="evenodd"/>
        </g>
      </g>
    </g>
    <g id="Group_160480" data-name="Group 160480" transform="translate(-39.029 819)">
      <path id="Path_774" data-name="Path 774" d="M37.361,50.113a50.96,50.96,0,0,1,4.6-4.241c2.458-1.72,5.9-4.668,10.57-7.862,4.425-3.44,10.57-6.879,17.207-10.811a97.015,97.015,0,0,1,11.308-5.9,124.149,124.149,0,0,1,12.783-5.9c4.671-1.72,9.341-3.685,14.5-5.405,5.162-1.474,10.57-3.194,15.978-4.668C135.621,2.876,147.666.665,160.695.665c3.2,0,6.391-.246,9.587,0s6.637.491,9.833.491a63.265,63.265,0,0,1,9.833,1.228c3.2.491,6.637.983,9.833,1.72,13.274,2.457,26.3,6.879,38.594,11.793a312,312,0,0,1,35.152,17.444c11.062,6.142,21.386,12.53,31.465,18.427A297.775,297.775,0,0,0,333.507,67a125.7,125.7,0,0,0,26.3,9.336c2.212.491,4.179.983,6.146,1.228s4.179.491,6.146.737c.983.246,1.967.246,2.95.491H378a43.54,43.54,0,0,1,5.654.246,138.727,138.727,0,0,0,19.174-1.72c5.408-.737,9.587-1.966,12.537-2.457,2.95-.737,4.671-.983,4.671-.983s-1.229.983-3.687,2.7-5.9,4.668-11.062,7.125c-2.458,1.228-5.408,2.948-8.6,4.423-3.2,1.228-6.883,2.7-10.816,3.931-1.967.491-4.179.983-6.146,1.474-.983.246-2.212.491-3.2.737-1.229.246-2.212.246-3.441.491a70.967,70.967,0,0,0-7.129.983c-2.458.246-4.917.246-7.62.246a121.1,121.1,0,0,1-32.94-4.668A253.827,253.827,0,0,1,291.717,78.8c-11.062-5.16-22.124-10.565-32.94-15.97s-21.632-10.811-32.694-15.233c-2.7-1.228-5.408-2.211-8.112-3.194s-5.408-2.211-8.112-2.948-5.408-1.72-8.112-2.7c-2.7-.737-5.408-1.474-8.358-2.211a195.829,195.829,0,0,0-32.94-5.405,228.233,228.233,0,0,0-31.711-.246c-5.162.246-10.079.983-15,1.474s-9.587,1.474-14.012,2.211c-4.671.491-8.85,1.72-13.029,2.457-4.179.983-8.112,1.474-11.8,2.457C67.529,41.45,61.137,42.678,55.729,44.4s-9.587,2.7-12.537,3.44A13.968,13.968,0,0,0,37.361,50.113Z" transform="translate(55.874 1.102)" fill="url(#linear-gradient)"/>
      <g transform="matrix(1, 0, 0, 1, 39.03, -819)" filter="url(#Path_777)">
        <path id="Path_777-2" data-name="Path 777" d="M38.3,44.527l3.687-2.686c2.458-1.567,5.9-4.253,10.57-7.163,4.425-3.134,10.57-6.267,17.207-9.849a100.709,100.709,0,0,1,11.308-5.372,130.194,130.194,0,0,1,12.783-5.372c4.671-1.567,9.341-3.358,14.5-4.924,5.162-1.343,10.57-2.91,15.978-4.253C135.645,2.67,147.69.655,160.719.655c3.2,0,6.391-.224,9.587,0s6.637.448,9.833.448a69.151,69.151,0,0,1,9.833,1.119c3.2.448,6.637.9,9.833,1.567,13.274,2.238,26.3,6.267,38.594,10.744a325.3,325.3,0,0,1,35.152,15.892c11.062,5.6,21.386,11.416,31.465,16.788a308.537,308.537,0,0,0,28.515,13.878,134.033,134.033,0,0,0,26.3,8.506c2.212.448,4.179.9,6.146,1.119s4.179.448,6.146.672c.983.224,1.967.224,2.95.448h2.95a47.761,47.761,0,0,1,5.654.224,151.923,151.923,0,0,0,19.174-1.567c5.408-.672,9.587-1.791,12.537-2.238,2.95-.672,4.671-.9,4.671-.9s-1.229.9-3.687,2.462a67.931,67.931,0,0,1-11.062,6.491c-2.458,1.119-5.408,2.686-8.6,4.029-3.2,1.119-6.883,2.462-10.816,3.581-1.967.448-4.179.9-6.146,1.343-.983.224-2.212.448-3.2.672-1.229.224-2.212.224-3.441.448-2.458.224-4.671.448-7.129.9-2.458.224-4.916.224-7.62.224a132.167,132.167,0,0,1-32.94-4.253,269.981,269.981,0,0,1-33.677-11.416c-11.062-4.7-22.124-9.625-32.94-14.549s-21.632-9.849-32.694-13.878c-2.7-1.119-5.408-2.015-8.112-2.91s-5.408-2.015-8.112-2.686-5.408-1.567-8.112-2.462c-2.7-.672-5.408-1.343-8.358-2.015a213.459,213.459,0,0,0-32.94-4.924,250.464,250.464,0,0,0-31.711-.224c-5.162.224-10.079.9-15,1.343s-9.587,1.343-14.012,2.015c-4.671.448-8.85,1.567-13.028,2.238-4.179.9-8.112,1.343-11.8,2.238-7.375,1.791-13.766,2.91-19.174,4.477s-9.587,2.462-12.537,3.134A34.523,34.523,0,0,0,38.3,44.527Z" transform="translate(15.85 825.67)" fill="url(#linear-gradient-2)"/>
      </g>
      <g transform="matrix(1, 0, 0, 1, 39.03, -819)" filter="url(#Path_775)">
        <path id="Path_775-2" data-name="Path 775" d="M125.6,10.493s4.179.983,11.308,3.194c3.687,1.228,7.866,2.457,12.783,4.177s10.325,3.685,16.47,6.142c5.9,2.457,12.291,4.914,19.174,7.862,6.637,2.948,13.766,5.9,21.141,8.845,7.129,3.194,14.749,6.142,22.37,8.845A128.353,128.353,0,0,0,251.952,55.7a62.1,62.1,0,0,0,22.37-.246,40.706,40.706,0,0,0,5.162-1.474c.737-.246,1.721-.737,2.458-.983l1.229-.491h0s-.737.246-.246.246h.246l.246-.246.737-.246a5.376,5.376,0,0,0,1.229-.737c.246-.246.492-.246.492-.491A6.518,6.518,0,0,0,287.35,49.8a16.919,16.919,0,0,0,2.7-3.194c3.441-4.914,4.671-11.548,4.179-17.444a24.606,24.606,0,0,0-6.391-15.233C284.4,10,279.484,7.79,275.059,6.562a49.22,49.22,0,0,0-12.537-1.474,70.567,70.567,0,0,0-8.6.491,26.8,26.8,0,0,1-2.95.246s.983-.491,2.7-1.228a39.164,39.164,0,0,1,8.358-2.948,38.992,38.992,0,0,1,14.012-1.72,31.33,31.33,0,0,1,18.191,6.634c5.9,4.668,10.325,12.285,12.045,20.638a39.638,39.638,0,0,1-4.425,26.535,36.845,36.845,0,0,1-4.671,6.142,18.366,18.366,0,0,1-3.2,2.7l-1.967,1.228a8.08,8.08,0,0,1-1.475.737l-.738.246-.246.246h-.246l-.492.246-1.721.737a17.074,17.074,0,0,1-3.2,1.228,56.271,56.271,0,0,1-6.883,1.966A67.368,67.368,0,0,1,249,69.459a134.757,134.757,0,0,1-25.565-7.617c-7.866-3.194-15.487-6.879-22.616-10.565-14.258-7.371-27.04-14.742-38.1-20.884C140.349,18.6,125.6,10.493,125.6,10.493Z" transform="translate(144.12 819.12)" fill="#002e6b"/>
      </g>
      <g transform="matrix(1, 0, 0, 1, 39.03, -819)" filter="url(#Path_776)">
        <path id="Path_776-2" data-name="Path 776" d="M361.111,81.963C343.9,65.01,265.732,17.1,192.478,17.1,120.7,17.346,81.121,60.1,0,53.463,72.026,91.3,138.4,65.993,189.036,55.674,279.252,37,361.111,81.963,361.111,81.963Z" transform="translate(-39.03 844.21)" fill="url(#linear-gradient-3)"/>
      </g>
    </g>
    <g id="Group_165588" data-name="Group 165588" transform="translate(-1.441 15)">
      <g id="Icon_material-bubble-chart" data-name="Icon material-bubble-chart" transform="translate(39.881 408)">
        <path id="Path_83154" data-name="Path 83154" d="M62.1,44.848A28.048,28.048,0,1,1,34.048,16.8,28.048,28.048,0,0,1,62.1,44.848Z" transform="translate(0 52.308)" fill="#f2e200"/>
        <path id="Path_83155" data-name="Path 83155" d="M54.26,41.53A17.53,17.53,0,1,1,36.73,24,17.53,17.53,0,0,1,54.26,41.53Z" transform="translate(63.932 87.18)" fill="#01ffff"/>
        <path id="Path_83156" data-name="Path 83156" d="M99.744,48.072A42.072,42.072,0,1,1,57.672,6,42.072,42.072,0,0,1,99.744,48.072Z" transform="translate(46.496 0)" fill="#002e6b"/>
      </g>
      <text id="buga" transform="translate(292 509)" fill="#002e6b" font-size="70" font-family="Poppins-Regular, Poppins"><tspan x="-93.38" y="0">buga</tspan></text>
    </g>
    <text id="The_All-in-One_Business_Solutions_for_Thriving_Organizations" data-name="The All-in-One Business Solutions for
Thriving Organizations" transform="translate(214 707)" fill="#002e6b" font-size="20" font-family="Poppins-Regular, Poppins"><tspan x="-182.61" y="0">The All-in-One Business Solutions for</tspan><tspan x="-111.3" y="30">Thriving Organizations</tspan></text>
    <g id="Group_160516" data-name="Group 160516" transform="translate(1923.828 93.286)">
      <g id="Objects_Seat_Cube" data-name="Objects/Seat/Cube" transform="translate(-1808.544 208.529) rotate(180)">
        <g id="Seat" transform="translate(0 0)">
          <path id="Seat-Stuff" d="M15.387,69.071H58.419L64.058,0H0Z" fill="#c5cfd6" fill-rule="evenodd"/>
          <path id="Seat-Stuff-2" data-name="Seat-Stuff" d="M15.387,69.071H28.622L36.543,0H0Z" fill="rgba(0,0,0,0.1)" fill-rule="evenodd"/>
        </g>
      </g>
      <g id="humaaans_standing-12" data-name="humaaans/standing-12" transform="translate(-1819.675 -5.832)">
        <g id="A-Human_Standing" data-name="A-Human/Standing" transform="translate(0 0)">
          <g id="Head_Front_Afro" data-name="Head/Front/Afro" transform="translate(30.869)">
            <path id="Hair-Back" d="M47.082,49.043c6.366,0,8.682-7.622,12.3-11.8,2.588-2.993,7-2.1,8.312-6.29C70.98,20.415,62.181,13,50.7,13S31.485,19.5,29.814,29.278A17.108,17.108,0,0,0,47.082,49.043Z" transform="translate(-29.581 -13)" fill="#191847" fill-rule="evenodd"/>
            <g id="Head" transform="translate(13.602 10.026)">
              <path id="Path_83167" data-name="Path 83167" d="M4.6,19.212A15.09,15.09,0,0,1,.589,8.37c.836-11.921,17.43-9.3,20.658-3.282s2.844,21.278-1.327,22.353c-1.664.429-5.208-.622-8.815-2.8l2.264,16.018H0Z" transform="translate(0 0)" fill="#b28b67" fill-rule="evenodd"/>
            </g>
            <path id="Hair" d="M61.863,39.721a3.484,3.484,0,0,0-1.634-.4A3.387,3.387,0,0,0,56.8,42.66a3.272,3.272,0,0,0,.687,2.007,10.706,10.706,0,0,0-1.549,4.193c-2.816,0-13.1-10.657-2.856-20.683S78.121,32.464,73.674,33.3C71.117,33.779,65.969,36.22,61.863,39.721Z" transform="translate(-38.023 -18.151)" fill="#191847" fill-rule="evenodd"/>
          </g>
          <g id="Bottom_Standing_Shorts" data-name="Bottom/Standing/Shorts" transform="translate(16.063 96.923)">
            <path id="Leg" d="M128,0l20.961,68.528,10.154,58.278h7.962L156.348,0Z" transform="translate(-104.048 0)" fill="#997659" fill-rule="evenodd"/>
            <path id="Leg-2" data-name="Leg" d="M102.146,0c1.424,37.625-.252,57.033-.57,60.452s-4.682,25.584-15.012,67.5l8.484-2.913c16.325-38.445,21.888-58.426,23.761-63.474S125.653,36,133.727,0Z" transform="translate(-85.693)" fill="#b28b67" fill-rule="evenodd"/>
            <g id="Accessories_Shoe_Flat-Sneaker" data-name="Accessories/Shoe/Flat-Sneaker" transform="translate(0 121.617)">
              <path id="shoe" d="M1.935,22.713A11.96,11.96,0,0,0,1,26.447a27.95,27.95,0,0,0,.5,4.4H32.919q1.225-4.049-1.414-4.371t-4.384-.583l-14.6-6.51a.557.557,0,0,0-.736.282l-.006.014-.939,2.277a10.017,10.017,0,0,1-3.97,1.14,8.99,8.99,0,0,1-3.427-1h0a1.114,1.114,0,0,0-1.477.549Q1.949,22.676,1.935,22.713Z" transform="translate(-1 -19.332)" fill="#01ffff" fill-rule="evenodd"/>
            </g>
            <g id="Accessories_Shoe_Flat-Sneaker-2" data-name="Accessories/Shoe/Flat-Sneaker" transform="translate(52.36 121.617)">
              <path id="shoe-2" data-name="shoe" d="M1.935,22.713A11.96,11.96,0,0,0,1,26.447a27.95,27.95,0,0,0,.5,4.4H32.919q1.225-4.049-1.414-4.371t-4.384-.583l-14.6-6.51a.557.557,0,0,0-.736.282l-.006.014-.939,2.277a10.017,10.017,0,0,1-3.97,1.14,8.99,8.99,0,0,1-3.427-1h0a1.114,1.114,0,0,0-1.477.549Q1.949,22.676,1.935,22.713Z" transform="translate(-1 -19.332)" fill="#01ffff" fill-rule="evenodd"/>
            </g>
            <path id="Bottom" d="M123,0l8.912,34.914h27.222L155.076,0Z" transform="translate(-101.833)" fill="#69a1ac" fill-rule="evenodd"/>
            <path id="Bottom-2" data-name="Bottom" d="M111.841,0q-4.4,13.185-1.671,34.914h27.779L145.588,0Z" transform="translate(-95.687 0)" fill="#89c5cc" fill-rule="evenodd"/>
          </g>
          <g id="Body_Jacket" data-name="Body/Jacket" transform="translate(0 38.435)">
            <path id="Skin" d="M123.221,89.122,139,104.516A47.824,47.824,0,0,1,150.286,111c.66.8,1.377,2.319-1.726,1.638s-6.4-1.26-6.98-.251,1.135,2.555.057,3.876q-1.078,1.32-7.249-8.4L117.98,98.191ZM53.182,91.293l11.64.046q-10.781,34.8-11.64,36.933c-1.289,3.194,1.439,8.059,2.605,10.673-3.8,1.7-3.394-4.6-8.186-2.366-4.374,2.035-7.7,5.722-12.755,2.6-.621-.383-1.3-1.826.343-2.954,4.1-2.81,10-7.729,10.8-9.348Q47.624,123.57,53.182,91.293Z" transform="translate(-34.163 -39.479)" fill="#b28b67" fill-rule="evenodd"/>
            <path id="Coat-Back" d="M0,1.243,4.726,0q15.1,29.871,48.191,52.469l-13.9,20.259C16.332,50.514,1.477,26.847,0,1.243Z" transform="translate(52.208 1.732) rotate(5)" fill="#191847" fill-rule="evenodd"/>
            <path id="Shirt" d="M90,63.5h42.891Q117.986,27.26,117.986,1.928L105.048,0C94.879,16.353,92.008,36.488,90,63.5Z" transform="translate(-58.897 0)" fill="#dde3e9" fill-rule="evenodd"/>
            <path id="Coat-Front" d="M89.269.009,89.275,0h.844q1.516.052,4.618.188l3.126,8.934q.5,16.339,5.794,65.857H75.541q.111,3.42.365,6.9H55Q59.691,28.963,89.259,0Z" transform="translate(-43.393 0)" fill="#2f3676" fill-rule="evenodd"/>
            <path id="Shade" d="M93.666,82.233q1.2,21.319,6.01,29.393h-7.86A146.968,146.968,0,0,1,93.666,82.233Z" transform="translate(-59.661 -36.427)" fill="rgba(0,0,0,0.1)" fill-rule="evenodd"/>
            <path id="Light" d="M103.111,98.874l13.864-6.445v6.445Z" transform="translate(-64.705 -40.944)" fill="rgba(255,255,255,0.2)" fill-rule="evenodd"/>
          </g>
        </g>
      </g>
      <g id="Group_2118" data-name="Group 2118" transform="translate(-1884.676 13.637)">
        <path id="Path_798" data-name="Path 798" d="M219.433,168.2a15.081,15.081,0,0,0-6.055,8.353c-1.7,5.7,2.46,18.226,10.691,18.8,14.191.949,15.7-6.55,25.354-1.614s19.016,1.519,20.435-2.563,7.663-21.453-9.744-22.687C240.814,167.911,219.433,168.2,219.433,168.2Z" transform="translate(-203.157 -58.556)" fill="#006163"/>
        <g id="Group_2115" data-name="Group 2115">
          <path id="Path_799" data-name="Path 799" d="M222.1,101.015s2.081-13,9.366-14.334S248.874,88.1,248.874,88.1,256.537,94.749,259,99.97C261.361,105.1,227.4,110.317,222.1,101.015Z" transform="translate(-203.648 -54.406)" fill="#707070"/>
          <g id="Group_2114" data-name="Group 2114" transform="translate(15.618)">
            <path id="Path_800" data-name="Path 800" d="M230.844,62s7.379,1.424,9.555-1.9c2.271-3.322,4.352-1.614,7.1,1.993,2.838,3.607,7.569,11.391,8.136,17.561a9.552,9.552,0,0,1-.567,5.885,4.355,4.355,0,0,1-3.122,1.424c-2.081.095-4.446,3.227-4.446,8.354,0,6.36-3.122,7.025-3.122,7.025s-12.015,4.177-12.3-6.55c-.189-6.36.473-7.5-.189-9.4s-4.92-1.9-7.285-5.411C222.329,77.666,215.423,63.522,230.844,62Z" transform="translate(-219.211 -52.985)" fill="#fabb86"/>
            <path id="Path_801" data-name="Path 801" d="M246.914,54.314s1.23,4.272,0,6.74c-.568,1.234-4.825,4.746-8.514,4.651a18.062,18.062,0,0,0-6.528,1.044h4.163s1.135,2.943,1.7,4.936-1.7,2.183-1.324,3.892,2.649,4.841,2.649,4.841l-2.176,1.139s-2.46-5.316-4.163-5.7c-2.744-.57-4.73,2.278-2.649,4.556,2.46,2.563,3.122,3.038,2.081,9.683-.473-2.468-7.285-4.651-11.069-11.771-3.784-7.025-1.514-12.53,1.514-15.188-.378-4.177,4.541-7.4,7.852-7.025S236.7,52.7,236.7,52.7a5.012,5.012,0,0,1-1.7,2.943c1.419.19,2.649-1.614,2.649-1.993a2.371,2.371,0,0,1-.379,1.993s2.649,0,3.406-1.424a2.065,2.065,0,0,1-.757,1.709,3.3,3.3,0,0,0,3.311-1.329,2.1,2.1,0,0,1-1.419,2.183c2.176.38,3.217-2.088,3.311-2.658a5.449,5.449,0,0,1-.662,3.417C245.684,57.826,246.631,55.833,246.914,54.314Z" transform="translate(-219.105 -52.7)" fill="#7f3f22"/>
          </g>
          <path id="Path_802" data-name="Path 802" d="M272.8,134.31c-2.744-9.777-8.42-30.661-10.312-31.705-1.987-1.044-5.771-1.234-9.839-2.468a10.976,10.976,0,0,1-5.96-4.556c-1.041,7.214-4.447,8.638-7.758,8.828-3.973-.38-6.812-2.088-7.852-9.208a10.4,10.4,0,0,1-5.866,4.936c-4.068,1.234-7.852,1.519-9.839,2.468-1.987,1.044-7.663,21.928-10.312,31.705-2.744,9.777-3.784,12.056,0,13.764,2.46,1.139,8.893,1.9,12.961,2.373-.095,5.7-.095,10.727.095,13.385,13.056,5.6,29.517,7.594,41.532,0,.189-2.563.189-7.689.095-13.385,4.068-.475,10.5-1.234,12.961-2.373C276.487,146.46,275.446,144.087,272.8,134.31Zm-54.588,7.309a28.511,28.511,0,0,1-4.446-.57c-.851-.38,5.014-16.043,5.014-16.043S218.494,132.791,218.21,141.619ZM264,140.955a28.547,28.547,0,0,1-4.447.57c-.189-8.828-.568-16.612-.568-16.612S264.85,140.575,264,140.955Z" transform="translate(-202.596 -54.856)" fill="#7c80bc"/>
          <path id="Path_803" data-name="Path 803" d="M275.386,134.416c-2.744-9.777-8.42-30.661-10.312-31.705a57.95,57.95,0,0,0-9.271-4.082c-.473-.19-1.892-1.139-2.271-1.329-5.014,23.542-2.933,69.2.946,75.087,4.73-2.658,7.852-6.36,14.1-5.885,1.324.095-6.055-8.733-6.244-16.043,4.068-.475,10.5-1.234,12.961-2.373C279.075,146.567,278.035,144.194,275.386,134.416Zm-8.8,6.645a28.515,28.515,0,0,1-4.446.57c-.189-8.828-.568-16.612-.568-16.612S267.439,140.682,266.587,141.061Z" transform="translate(-205.184 -54.963)" fill="#939393"/>
          <path id="Path_804" data-name="Path 804" d="M256.171,97.4c-.473-.19-2.271.19-2.649,0a182.57,182.57,0,0,0-3.122,21.928,67.7,67.7,0,0,1,10.123-18.8C259.1,99.865,257.874,97.967,256.171,97.4Z" transform="translate(-205.175 -54.965)" fill="#707070"/>
          <path id="Path_805" data-name="Path 805" d="M228.243,96.7a19.945,19.945,0,0,1-3.879,2.658,48.892,48.892,0,0,0-8.893,3.417c-1.987,1.044-7.663,21.928-10.312,31.705-2.744,9.777-3.784,12.056,0,13.764,2.46,1.139,8.893,1.9,12.961,2.373-.095,7.309-7.1,16.517-4.92,21.358,0,0,1.324-6.93,17.786,0C236,158.877,235.812,120.432,228.243,96.7Zm-10.028,45a28.531,28.531,0,0,1-4.446-.57c-.851-.38,5.014-16.043,5.014-16.043S218.5,132.867,218.215,141.7Z" transform="translate(-202.601 -54.932)" fill="#939393"/>
          <path id="Path_806" data-name="Path 806" d="M229.312,96.7c-.852.664-2.933.19-4.163.57-1.041.285-1.8,2.658-2.649,2.943a61.444,61.444,0,0,1,11.353,15.948A138.183,138.183,0,0,0,229.312,96.7Z" transform="translate(-203.67 -54.932)" fill="#707070"/>
        </g>
        <g id="Group_2116" data-name="Group 2116" transform="translate(9.731 112.988)">
          <path id="Path_807" data-name="Path 807" d="M242.036,242.991s13.245-23.922,19.678-34.174,11.826-20.409,11.637-27.529-1.8-8.448-4.73-9.4c-2.933-.854-9.555,1.709-12.488,5.791-2.933,4.177-8.7,22.5-14.758,39.964L233.9,239.289C233.805,239.479,236.454,242.991,242.036,242.991Z" transform="translate(-214.015 -171.727)" fill="#006a72"/>
          <path id="Path_808" data-name="Path 808" d="M234,238.2s-5.2,9.3-9.745,12.53c-4.541,3.132-9.271,4.746-11.353,8.353-.662,2.468,17.975,1.8,24.408-1.519,2.933-1.519,4.446-8.449,5.866-14.239C244.592,237.439,234,238.2,234,238.2Z" transform="translate(-212.882 -175.098)" fill="#002e6b"/>
          <path id="Path_809" data-name="Path 809" d="M248.156,236.691s-9.366,1.044-10.974-5.79a62.026,62.026,0,0,0-5.582,6.455s4.257,7.025,14.38,6.645A36.176,36.176,0,0,0,248.156,236.691Z" transform="translate(-213.892 -174.729)" fill="#494949"/>
        </g>
        <g id="Group_2117" data-name="Group 2117" transform="translate(9.648 112.988)">
          <path id="Path_810" data-name="Path 810" d="M244.114,242.991s-13.245-23.922-19.678-34.174S212.61,188.408,212.8,181.289s1.8-8.448,4.73-9.4c2.933-.854,9.555,1.709,12.488,5.791,2.933,4.177,8.7,22.5,14.759,39.964l7.474,21.643C252.345,239.479,249.6,242.991,244.114,242.991Z" transform="translate(-212.795 -171.727)" fill="#007686"/>
          <path id="Path_811" data-name="Path 811" d="M252.669,238.2s5.2,9.3,9.744,12.53c4.541,3.132,9.271,4.746,11.353,8.353.662,2.468-17.975,1.8-24.408-1.519-2.933-1.519-4.446-8.449-5.866-14.239C242.073,237.439,252.669,238.2,252.669,238.2Z" transform="translate(-214.444 -175.098)" fill="#002e6b"/>
          <path id="Path_812" data-name="Path 812" d="M239.792,235.6s8.7,3.133,10.312-3.8c2.46,0,5.771,5.506,5.771,5.506s-4.257,7.025-14.38,6.645C238.941,240.344,239.792,235.6,239.792,235.6Z" transform="translate(-214.244 -174.775)" fill="#595959"/>
        </g>
      </g>
      <g id="Group_160513" data-name="Group 160513" transform="translate(-1663.428 39.25)">
        <g id="Accessories_Shoe_Flat-Sneaker-3" data-name="Accessories/Shoe/Flat-Sneaker" transform="translate(32.308 182.705) rotate(180)">
          <path id="shoe-3" data-name="shoe" d="M.935,8.132A11.96,11.96,0,0,1,0,4.4,27.95,27.95,0,0,1,.5,0H31.919q1.225,4.049-1.414,4.371t-4.384.583l-14.6,6.51a.557.557,0,0,1-.736-.282l-.006-.014L9.839,8.891a10.017,10.017,0,0,0-3.97-1.14,8.99,8.99,0,0,0-3.427,1h0A1.114,1.114,0,0,1,.965,8.2Q.949,8.169.935,8.132Z" transform="translate(0 0)" fill="#002e6b" fill-rule="evenodd"/>
        </g>
        <g id="Symbols-4" data-name="Symbols" transform="translate(69.628 0)">
          <g id="Head_Front_Caesar" data-name="Head/Front/Caesar" transform="translate(0)">
            <g id="Head-2" data-name="Head" transform="translate(0 1.114)">
              <path id="Path_83165" data-name="Path 83165" d="M18.793,19.212A15.09,15.09,0,0,0,22.806,8.37C21.97-3.551,5.376-.929,2.148,5.088S-.7,26.366,3.476,27.441c1.664.429,5.208-.622,8.815-2.8L10.026,40.663H23.4Z" transform="translate(0 0)" fill="#b28b67" fill-rule="evenodd"/>
            </g>
            <path id="Combined-Shape" d="M64.405,42.852a2.68,2.68,0,0,1,1.521-.483,2.869,2.869,0,0,1,2.785,2.785,3.307,3.307,0,0,1-1.686,3.09c.53,1.035,1.062,1.787,1.686,1.923,2.407-.244,5.57-6.227,5.57-11.141C74.281,33.649,70,29,62.026,29,54.858,29,52.14,31.956,52,34.57c3.072.844,8.439,1.169,16.154,1.114v.557l-6.684.557-1.114,3.342C62.128,40.008,63.394,41.224,64.405,42.852Z" transform="translate(-49.772 -29)" fill="#191847" fill-rule="evenodd"/>
          </g>
        </g>
        <path id="Skin-2" data-name="Skin" d="M37.809,78.583c4.588,2.755,12.286-.785,12.281-4.725C50.074,62.069,39.315,6.506,38.753,2.994s-6.579-4.44-6.929-.011c-.558,7.046-1.594,31.441-.557,42.732.428,4.661.888,9.1,1.342,13.059Q24.14,43.481,6.415,14.983L0,17.914q7.556,24.9,12.392,35.151c5.52,11.707,10.7,21.732,12.875,25.264C28.693,83.884,34.657,81.945,37.809,78.583Z" transform="translate(61.787 180.383) rotate(180)" fill="#b28b67" fill-rule="evenodd"/>
        <path id="LegLower" d="M0,0,2.851,56.544c2.054,9.777,19.444,5.24,19.437,0-.016-11.9-7.162-52.988-7.167-56.532Z" transform="translate(61.329 153.252) rotate(160)" fill="#1f28cf" fill-rule="evenodd"/>
        <g id="Accessories_Shoe_Flat-Sneaker-4" data-name="Accessories/Shoe/Flat-Sneaker" transform="matrix(-0.866, 0.5, -0.5, -0.866, 67.427, 165.755)">
          <path id="shoe-4" data-name="shoe" d="M.935,8.132A11.961,11.961,0,0,1,0,4.4,27.95,27.95,0,0,1,.5,0H31.919q1.225,4.049-1.414,4.371t-4.384.583l-14.6,6.51a.557.557,0,0,1-.736-.282l-.006-.014L9.839,8.891a10.017,10.017,0,0,0-3.97-1.14,8.99,8.99,0,0,0-3.427,1h0A1.114,1.114,0,0,1,.965,8.2Q.949,8.169.935,8.132Z" transform="translate(0 0)" fill="#002e6b" fill-rule="evenodd"/>
        </g>
        <path id="Leg-and-Butt" d="M95.123,52.588c0-14.8-7.027-49.317-7.032-52.576L72.97,0q3.32,46.2,2.355,46.7c-.966.5-39.577-3.855-51.158-3.855C7.469,42.844.56,53.375,0,72.882H33.08c6.736-.721,41.868-7.807,54.915-10.243C93.58,61.6,95.123,56.664,95.123,52.588Z" transform="translate(105.278 163.12) rotate(180)" fill="#2b44ff" fill-rule="evenodd"/>
        <g id="Body_Pointing-Forward" data-name="Body/Pointing-Forward" transform="translate(112.395 112.426) rotate(180)">
          <path id="Skin-3" data-name="Skin" d="M0,17.457,19.334,28.046a47.829,47.829,0,0,0,9.5,8.9c.954.4,2.621.639,1.062-2.129s-3.075-5.749-2.281-6.6,2.776.339,3.724-1.078q.948-1.417-10.153-4.476L7.14,9.794ZM30.281,8.523l8.493,4.665q1.787,6.8,4.273,6.844c1.273.592-.944-5.137,1.469-4.64s8.3,4.878,9.319,3.988c1.5-1.316.163-5.357-1.415-7.367C49.472,8.257,47.031,6.972,41,5.289A33.174,33.174,0,0,1,30.765,0Z" transform="translate(45.35 39.433)" fill="#997659" fill-rule="evenodd"/>
          <path id="Sleeve" d="M3.066,13.569a47.508,47.508,0,0,1,26.317,3.545L31.8,8.187C24.2,2.712,14.126-1.179,6.091.326A7.382,7.382,0,0,0,3.066,13.569Z" transform="translate(35.028 45.368) rotate(9)" fill="#2026a2" fill-rule="evenodd"/>
          <path id="Clothes" d="M45.052,45.716q10.784-2.69,36.169,6.343,6.3-13.026,5.821-18.573C72.525,25.9,60.083,22.522,49.831,22.3A35.276,35.276,0,0,0,46.93,5.14c-5.113-10.872-35.053-.8-45.12-2.785C-4.494,22.828,7.695,31.148,7.7,44.248c.011,14.346,11.53,36.428,13.225,36.428H36.385C37.238,69.72,41.53,57.645,45.052,45.716Z" transform="translate(0 0)" fill="#1f28cf" fill-rule="evenodd"/>
        </g>
        <g id="Group_2138" data-name="Group 2138" transform="translate(40.204 30.546)">
          <g id="Group_2137" data-name="Group 2137" transform="translate(1.782 91.01)">
            <path id="Path_848" data-name="Path 848" d="M138.905,262.613s-31.6,4.469-32.344,4.578-1.028-3.161,2.711-4.578,26.642-6.213,26.642-6.213Z" transform="translate(-106.1 -206.045)" fill="#353535"/>
            <path id="Path_849" data-name="Path 849" d="M70.962,262.613s31.5,4.469,32.344,4.578,1.028-3.161-2.711-4.578S73.953,256.4,73.953,256.4Z" transform="translate(-38.157 -206.045)" fill="#353535"/>
            <rect id="Rectangle_430" data-name="Rectangle 430" width="8.226" height="57.222" transform="translate(28.692)" fill="#545454"/>
          </g>
          <rect id="Rectangle_431" data-name="Rectangle 431" width="12.433" height="9.809" transform="translate(28.324 93.953)" fill="#353535"/>
          <path id="Path_850" data-name="Path 850" d="M48.7,223.7l67.96-.218,20.285-95.7L133.3,126.7l-20.192,91.555-64.314.109Z" transform="translate(-48.7 -126.7)" fill="#353535"/>
          <path id="Path_851" data-name="Path 851" d="M76.7,127.714s-9.909-2.943-11.778,15.7S58.1,197.688,54.266,203.356c-3.926,5.668,1.122,13.188,2.524,14.823C59.688,204.882,76.7,127.714,76.7,127.714Z" transform="translate(7.711 -126.624)" fill="#515feb"/>
          <path id="Path_852" data-name="Path 852" d="M74.119,211.484h62.631s-.654-8.283-7.385-8.283-22.061,5.777-28.418,4.469C94.4,206.47,73.372,199.167,74.119,211.484Z" transform="translate(-72.25 -119.819)" fill="#515feb"/>
        </g>
      </g>
      <g id="Group_2125" data-name="Group 2125" transform="translate(-1782.635 87.11)">
        <path id="Path_825" data-name="Path 825" d="M266.205,150.622a1.6,1.6,0,0,1-1.6,1.609H211.7a1.6,1.6,0,0,1-1.6-1.609V116.308a1.6,1.6,0,0,1,1.6-1.608h52.9a1.6,1.6,0,0,1,1.6,1.608Z" transform="translate(-210.1 -114.7)" fill="#dbdbdb"/>
        <path id="Path_826" data-name="Path 826" d="M266.205,159.1c0,.179-.356.358-.712.358h-54.68c-.356,0-.712-.179-.712-.358v-2.145c0-.179.356-.357.712-.357h54.68c.356,0,.712.179.712.357Z" transform="translate(-210.1 -119.159)" fill="#515151"/>
      </g>
      <g id="Group_2135" data-name="Group 2135" transform="translate(-1869.08 93.998)">
        <g id="Group_2134" data-name="Group 2134" transform="translate(0)">
          <path id="Path_845" data-name="Path 845" d="M383,152.331a1.219,1.219,0,0,1-1.247,1.251h-43.1a1.22,1.22,0,0,1-1.247-1.251v-27.88a1.22,1.22,0,0,1,1.247-1.251h43.1A1.219,1.219,0,0,1,383,124.451Z" transform="translate(-337.4 -123.2)" fill="#dbdbdb"/>
          <path id="Path_846" data-name="Path 846" d="M383,159.166c0,.179-.267.268-.534.268H337.934q-.534,0-.534-.268v-1.7c0-.179.267-.268.534-.268h44.528q.534,0,.534.268Z" transform="translate(-337.4 -126.818)" fill="#515151"/>
        </g>
      </g>
      <g id="Group_2144" data-name="Group 2144" transform="translate(-1719.748 111.432)">
        <path id="Path_868" data-name="Path 868" d="M288.9,145.8v8.845a8.182,8.182,0,0,0,3.5,6.8h9.719a8.182,8.182,0,0,0,3.5-6.8V145.8Z" transform="translate(-284.606 -145.8)" fill="#dbdbdb"/>
        <path id="Path_869" data-name="Path 869" d="M310.981,159.994a.774.774,0,0,1-.791.794h-24.3a.774.774,0,0,1-.791-.794h0a.774.774,0,0,1,.791-.794h24.3a.774.774,0,0,1,.791.794Z" transform="translate(-285.1 -144.004)" fill="#a3a3a3"/>
        <g id="Group_2143" data-name="Group 2143" transform="translate(19.326 2.608)">
          <path id="Path_870" data-name="Path 870" d="M302.991,158.306H302.2l.226-1.134a7.513,7.513,0,0,0,3.5-.567c1.243-.454,2.034-4.309,1.582-6.464-.113-.794-.339-.907-.339-.907h-4.747V148.1h4.747c.452,0,1.243.227,1.469,1.814.452,2.155-.226,6.917-2.374,7.711A6.72,6.72,0,0,1,302.991,158.306Z" transform="translate(-302.2 -148.1)" fill="#dbdbdb"/>
        </g>
      </g>
      <g id="Group_2146" data-name="Group 2146" transform="translate(-1807.571 111.432)">
        <path id="Path_871" data-name="Path 871" d="M185.9,145.9v8.845a8.181,8.181,0,0,0,3.5,6.8h9.719a8.181,8.181,0,0,0,3.5-6.8V145.9Z" transform="translate(-181.606 -145.9)" fill="#dbdbdb"/>
        <path id="Path_872" data-name="Path 872" d="M207.981,160.094a.774.774,0,0,1-.791.794h-24.3a.774.774,0,0,1-.791-.794h0a.774.774,0,0,1,.791-.794h24.3a.774.774,0,0,1,.791.794Z" transform="translate(-182.1 -144.104)" fill="#a3a3a3"/>
        <g id="Group_2145" data-name="Group 2145" transform="translate(19.326 2.722)">
          <path id="Path_873" data-name="Path 873" d="M199.991,158.506H199.2l.226-1.134a7.513,7.513,0,0,0,3.5-.567c1.243-.454,2.034-4.309,1.582-6.464-.113-.794-.339-.907-.339-.907h-4.747V148.3h4.747c.452,0,1.243.227,1.469,1.814.452,2.155-.226,6.917-2.373,7.711A8.762,8.762,0,0,1,199.991,158.506Z" transform="translate(-199.2 -148.3)" fill="#dbdbdb"/>
        </g>
      </g>
      <g id="Group_160514" data-name="Group 160514" transform="translate(-1704.043 65.812)">
        <rect id="Rectangle_426" data-name="Rectangle 426" width="58.494" height="1.413" transform="translate(20.688 57.104)" fill="#303030"/>
        <path id="Path_815" data-name="Path 815" d="M196.593,112.688a1.064,1.064,0,0,0-1.408-.771h0a1.069,1.069,0,0,0-.768,1.413l17.408,57.023a1.064,1.064,0,0,0,1.408.771h0a1.069,1.069,0,0,0,.768-1.413Z" transform="translate(-194.337 -111.837)" fill="#8c8c8c"/>
        <path id="Path_816" data-name="Path 816" d="M208.122,157v.514c0,1.669-1.024,3.082-2.432,3.082H148.732c-1.28,0-2.432-1.413-2.432-3.082V157Z" transform="translate(-126.892 -98.997)" fill="#515151"/>
      </g>
      <g id="Group_160511" data-name="Group 160511" transform="translate(-1877.747 128.215)">
        <g id="Group_2136" data-name="Group 2136" transform="translate(27.518 3.753)">
          <rect id="Rectangle_429" data-name="Rectangle 429" width="5.611" height="86.767" transform="translate(3.918)" fill="#d67838"/>
          <path id="Path_847" data-name="Path 847" d="M174.737,261.825a.61.61,0,0,1-.623.625h-12.29a.61.61,0,0,1-.623-.625h0a.61.61,0,0,1,.623-.625h12.29a.61.61,0,0,1,.623.625Z" transform="translate(-161.2 -175.059)" fill="#d67838"/>
        </g>
        <g id="Group_2147" data-name="Group 2147" transform="translate(244.281 3.753)">
          <path id="Path_874" data-name="Path 874" d="M418.137,261.825a.61.61,0,0,1-.624.625h-12.29a.61.61,0,0,1-.624-.625h0a.61.61,0,0,1,.624-.625h12.29a.61.61,0,0,1,.624.625Z" transform="translate(-404.6 -175.059)" fill="#d67838"/>
          <rect id="Rectangle_432" data-name="Rectangle 432" width="5.611" height="86.767" transform="translate(3.918)" fill="#d67838"/>
        </g>
        <rect id="Rectangle_433" data-name="Rectangle 433" width="285.87" height="6.97" transform="translate(0 0)" fill="#ff9a55"/>
      </g>
    </g>
    <g id="Symbols-5" data-name="Symbols" transform="translate(237 54)">
      <g id="Scene_Home-2" data-name="Scene/Home">
        <g id="Clock">
          <circle id="Clock-Frame" cx="33.5" cy="33.5" r="33.5" fill="#f2f2f2"/>
          <circle id="Time" cx="2" cy="2" r="2" transform="translate(31 5)" fill="rgba(0,0,0,0.1)"/>
          <circle id="Time-2" data-name="Time" cx="2" cy="2" r="2" transform="translate(5 31)" fill="rgba(0,0,0,0.1)"/>
          <circle id="Time-3" data-name="Time" cx="2" cy="2" r="2" transform="translate(58 31)" fill="rgba(0,0,0,0.1)"/>
          <circle id="Time-4" data-name="Time" cx="2" cy="2" r="2" transform="translate(31 58)" fill="rgba(0,0,0,0.1)"/>
          <path id="Hand" d="M52.258,17l1.258,22.012H51Z" transform="translate(-18.925 -6.308)" fill="#afb9c5" fill-rule="evenodd"/>
          <path id="Hand-2" data-name="Hand" d="M1.258,0,2.516,15.094H0Z" transform="translate(45.353 43.574) rotate(135)" fill="#afb9c5" fill-rule="evenodd"/>
          <circle id="Time-5" data-name="Time" cx="2.5" cy="2.5" r="2.5" transform="translate(31 31)" fill="#c5cfd6"/>
        </g>
      </g>
    </g>
    <line id="Line_861" data-name="Line 861" x2="340" transform="translate(44.5 324.5)" fill="none" stroke="#d1d2d9" stroke-linecap="round" stroke-width="3"/>
  </g>
</svg>
