<svg xmlns="http://www.w3.org/2000/svg" xmlns:xlink="http://www.w3.org/1999/xlink" width="428" height="926" viewBox="0 0 428 926">
  <defs>
    <filter id="Heading_Container" x="-15" y="-14" width="458" height="516" filterUnits="userSpaceOnUse">
      <feOffset dy="1" input="SourceAlpha"/>
      <feGaussianBlur stdDeviation="5" result="blur"/>
      <feFlood flood-color="#c7c7c7" flood-opacity="0.161"/>
      <feComposite operator="in" in2="blur"/>
      <feComposite in="SourceGraphic"/>
    </filter>
    <filter id="Heading_Container-2" x="-15" y="-15" width="458" height="118" filterUnits="userSpaceOnUse">
      <feOffset dy="1" input="SourceAlpha"/>
      <feGaussianBlur stdDeviation="5" result="blur-2"/>
      <feFlood flood-color="#c7c7c7" flood-opacity="0.161"/>
      <feComposite operator="in" in2="blur-2"/>
      <feComposite in="SourceGraphic"/>
    </filter>
    <clipPath id="clip-path">
      <rect width="370" height="71" fill="none"/>
    </clipPath>
    <filter id="Ellipse_46" x="65.5" y="370.5" width="109" height="109" filterUnits="userSpaceOnUse">
      <feOffset dy="13" input="SourceAlpha"/>
      <feGaussianBlur stdDeviation="5.5" result="blur-3"/>
      <feFlood flood-color="#494b4e" flood-opacity="0.161"/>
      <feComposite operator="in" in2="blur-3"/>
      <feComposite in="SourceGraphic"/>
    </filter>
    <filter id="Ellipse_46-2" x="157.5" y="370.5" width="109" height="109" filterUnits="userSpaceOnUse">
      <feOffset dy="13" input="SourceAlpha"/>
      <feGaussianBlur stdDeviation="5.5" result="blur-4"/>
      <feFlood flood-color="#494b4e" flood-opacity="0.161"/>
      <feComposite operator="in" in2="blur-4"/>
      <feComposite in="SourceGraphic"/>
    </filter>
    <filter id="Ellipse_46-3" x="249.5" y="370.5" width="109" height="109" filterUnits="userSpaceOnUse">
      <feOffset dy="13" input="SourceAlpha"/>
      <feGaussianBlur stdDeviation="5.5" result="blur-5"/>
      <feFlood flood-color="#494b4e" flood-opacity="0.161"/>
      <feComposite operator="in" in2="blur-5"/>
      <feComposite in="SourceGraphic"/>
    </filter>
    <filter id="Ellipse_46-4" x="65.5" y="462.5" width="109" height="109" filterUnits="userSpaceOnUse">
      <feOffset dy="13" input="SourceAlpha"/>
      <feGaussianBlur stdDeviation="5.5" result="blur-6"/>
      <feFlood flood-color="#494b4e" flood-opacity="0.161"/>
      <feComposite operator="in" in2="blur-6"/>
      <feComposite in="SourceGraphic"/>
    </filter>
    <filter id="Ellipse_46-5" x="157.5" y="462.5" width="109" height="109" filterUnits="userSpaceOnUse">
      <feOffset dy="13" input="SourceAlpha"/>
      <feGaussianBlur stdDeviation="5.5" result="blur-7"/>
      <feFlood flood-color="#494b4e" flood-opacity="0.161"/>
      <feComposite operator="in" in2="blur-7"/>
      <feComposite in="SourceGraphic"/>
    </filter>
    <filter id="Ellipse_46-6" x="249.5" y="462.5" width="109" height="109" filterUnits="userSpaceOnUse">
      <feOffset dy="13" input="SourceAlpha"/>
      <feGaussianBlur stdDeviation="5.5" result="blur-8"/>
      <feFlood flood-color="#494b4e" flood-opacity="0.161"/>
      <feComposite operator="in" in2="blur-8"/>
      <feComposite in="SourceGraphic"/>
    </filter>
    <filter id="Ellipse_46-7" x="65.5" y="554.5" width="109" height="109" filterUnits="userSpaceOnUse">
      <feOffset dy="13" input="SourceAlpha"/>
      <feGaussianBlur stdDeviation="5.5" result="blur-9"/>
      <feFlood flood-color="#494b4e" flood-opacity="0.161"/>
      <feComposite operator="in" in2="blur-9"/>
      <feComposite in="SourceGraphic"/>
    </filter>
    <filter id="Ellipse_46-8" x="157.5" y="554.5" width="109" height="109" filterUnits="userSpaceOnUse">
      <feOffset dy="13" input="SourceAlpha"/>
      <feGaussianBlur stdDeviation="5.5" result="blur-10"/>
      <feFlood flood-color="#494b4e" flood-opacity="0.161"/>
      <feComposite operator="in" in2="blur-10"/>
      <feComposite in="SourceGraphic"/>
    </filter>
    <filter id="Ellipse_46-9" x="249.5" y="554.5" width="109" height="109" filterUnits="userSpaceOnUse">
      <feOffset dy="13" input="SourceAlpha"/>
      <feGaussianBlur stdDeviation="5.5" result="blur-11"/>
      <feFlood flood-color="#494b4e" flood-opacity="0.161"/>
      <feComposite operator="in" in2="blur-11"/>
      <feComposite in="SourceGraphic"/>
    </filter>
    <filter id="Ellipse_46-10" x="157.5" y="647.5" width="109" height="109" filterUnits="userSpaceOnUse">
      <feOffset dy="13" input="SourceAlpha"/>
      <feGaussianBlur stdDeviation="5.5" result="blur-12"/>
      <feFlood flood-color="#494b4e" flood-opacity="0.161"/>
      <feComposite operator="in" in2="blur-12"/>
      <feComposite in="SourceGraphic"/>
    </filter>
    <filter id="Ellipse_721" x="249.5" y="647.5" width="109" height="109" filterUnits="userSpaceOnUse">
      <feOffset dy="13" input="SourceAlpha"/>
      <feGaussianBlur stdDeviation="5.5" result="blur-13"/>
      <feFlood flood-color="#494b4e" flood-opacity="0.161"/>
      <feComposite operator="in" in2="blur-13"/>
      <feComposite in="SourceGraphic"/>
    </filter>
    <filter id="Ellipse_720" x="61.5" y="647.5" width="109" height="109" filterUnits="userSpaceOnUse">
      <feOffset dy="13" input="SourceAlpha"/>
      <feGaussianBlur stdDeviation="5.5" result="blur-14"/>
      <feFlood flood-color="#494b4e" flood-opacity="0.161"/>
      <feComposite operator="in" in2="blur-14"/>
      <feComposite in="SourceGraphic"/>
    </filter>
    <filter id="Rectangle_148373" x="40" y="787" width="348" height="67" filterUnits="userSpaceOnUse">
      <feOffset dy="8" input="SourceAlpha"/>
      <feGaussianBlur stdDeviation="3" result="blur-15"/>
      <feFlood flood-color="#d5ffe0" flood-opacity="0.161"/>
      <feComposite operator="in" in2="blur-15"/>
      <feComposite in="SourceGraphic"/>
    </filter>
    <clipPath id="clip-_11_Identity_Verification_Screen">
      <rect width="428" height="926"/>
    </clipPath>
  </defs>
  <g id="_11_Identity_Verification_Screen" data-name="11 Identity Verification Screen" clip-path="url(#clip-_11_Identity_Verification_Screen)">
    <rect width="428" height="926" fill="#fff"/>
    <g transform="matrix(1, 0, 0, 1, 0, 0)" filter="url(#Heading_Container)">
      <rect id="Heading_Container-3" data-name="Heading Container" width="428" height="486" fill="#002d6a"/>
    </g>
    <path id="Rectangle_148366" data-name="Rectangle 148366" d="M25,0H403a25,25,0,0,1,25,25V694a0,0,0,0,1,0,0H0a0,0,0,0,1,0,0V25A25,25,0,0,1,25,0Z" transform="translate(0 232)" fill="#fff"/>
    <text id="Heading_Text" data-name="Heading Text" transform="translate(19.088 129.5)" fill="#fff" font-size="18" font-family="Poppins-SemiBold, Poppins" font-weight="600"><tspan x="0" y="0">Verify your Number</tspan></text>
    <text id="Body_Text" data-name="Body Text" transform="translate(21.08 162)" fill="#fff" font-size="15" font-family="Poppins-Regular, Poppins"><tspan x="0" y="0">A 6-Digit PIN has been sent to your phone number,</tspan><tspan x="0" y="25">enter it below to verify your phone number</tspan></text>
    <g transform="matrix(1, 0, 0, 1, 0, 0)" filter="url(#Heading_Container-2)">
      <g id="Heading_Container-4" data-name="Heading Container" transform="translate(0 -1)" fill="#fff" stroke="rgba(199,199,199,0.16)" stroke-width="1">
        <path d="M0,0H428a0,0,0,0,1,0,0V74a14,14,0,0,1-14,14H14A14,14,0,0,1,0,74V0A0,0,0,0,1,0,0Z" stroke="none"/>
        <path d="M.5.5h427a0,0,0,0,1,0,0V74A13.5,13.5,0,0,1,414,87.5H14A13.5,13.5,0,0,1,.5,74V.5A0,0,0,0,1,.5.5Z" fill="none"/>
      </g>
    </g>
    <g id="Stautus_Bar" data-name="Stautus Bar" transform="translate(7 10)">
      <g id="Pin-Right" transform="translate(354.729 0.5)">
        <path id="Battery" d="M37.494,2.5H57.006A1.5,1.5,0,0,1,58.5,4.005v6.489A1.5,1.5,0,0,1,57.006,12H37.494A1.5,1.5,0,0,1,36,10.495V4.005A1.5,1.5,0,0,1,37.494,2.5ZM59,5.5h.75a.744.744,0,0,1,.75.742V8.258A.748.748,0,0,1,59.75,9H59ZM37.508,3A1.012,1.012,0,0,0,36.5,4.008v6.483A1.007,1.007,0,0,0,37.508,11.5H56.992A1.012,1.012,0,0,0,58,10.492V4.008A1.007,1.007,0,0,0,56.992,3Zm0,.5H56.993a.5.5,0,0,1,.507.492v6.516a.5.5,0,0,1-.507.492H37.507A.5.5,0,0,1,37,10.508V3.992A.5.5,0,0,1,37.507,3.5Z" transform="translate(-2.854 1.5)" fill-rule="evenodd"/>
        <text id="_100_" data-name="100%" transform="translate(0 13)" font-size="12" font-family="Poppins-Regular, Poppins"><tspan x="0" y="0">100%</tspan></text>
      </g>
      <text id="_9:41_AM" data-name="9:41 AM" transform="translate(182.123 13)" font-size="12" font-family="Poppins-Regular, Poppins"><tspan x="0" y="0">9:41 AM</tspan></text>
      <g id="Signal" transform="translate(0 0.5)">
        <path id="Wi-Fi" d="M96.144,12.439,94.023,14.5,91.86,12.405a2.884,2.884,0,0,1,4.284.033Zm2.179-2.117h0l-1.089,1.058a4.46,4.46,0,0,0-6.465-.031l-1.09-1.056a6.036,6.036,0,0,1,8.644.029ZM100.5,8.207,99.412,9.264A7.612,7.612,0,0,0,88.59,9.237L87.5,8.182a9.188,9.188,0,0,1,13,.025Z" transform="translate(-6.5 -1.5)" fill-rule="evenodd"/>
        <text id="Sketch" transform="translate(37.5 13)" font-size="12" font-family="Poppins-Regular, Poppins"><tspan x="0" y="0">Sunny</tspan></text>
        <path id="Mobile-Signal" d="M9.25,13A2.75,2.75,0,1,1,12,10.25,2.75,2.75,0,0,1,9.25,13Zm7,0A2.75,2.75,0,1,1,19,10.25,2.75,2.75,0,0,1,16.25,13Zm7,0A2.75,2.75,0,1,1,26,10.25,2.75,2.75,0,0,1,23.25,13Zm7,0A2.75,2.75,0,1,1,33,10.25,2.75,2.75,0,0,1,30.25,13Zm7,0A2.75,2.75,0,1,1,40,10.25,2.75,2.75,0,0,1,37.25,13Z" transform="translate(-6.5 -1.5)" fill-rule="evenodd"/>
      </g>
    </g>
    <g id="Group_165447" data-name="Group 165447" transform="translate(-10 -250)">
      <rect id="Rectangle_31" data-name="Rectangle 31" width="146" height="41" rx="20.5" transform="translate(151 285)" fill="#01ffff"/>
      <text id="Verification" transform="translate(173 312)" fill="#002d6a" font-size="18" font-family="Poppins-Regular, Poppins"><tspan x="0" y="0">Verification</tspan></text>
    </g>
    <path id="Icon_ionic-ios-arrow-down" data-name="Icon ionic-ios-arrow-down" d="M15.006,18.288l6.666-6.672a1.255,1.255,0,0,1,1.779,0,1.271,1.271,0,0,1,0,1.785L15.9,20.96A1.258,1.258,0,0,1,14.161,21l-7.606-7.59a1.26,1.26,0,0,1,1.779-1.785Z" transform="translate(31.327 36.813) rotate(90)" fill="#002d6a" opacity="0.8"/>
    <g id="Icon_material-bubble-chart" data-name="Icon material-bubble-chart" transform="translate(365.833 93.753)">
      <path id="Path_83893" data-name="Path 83893" d="M21.064,20.5A8.365,8.365,0,1,1,12.7,12.133,8.365,8.365,0,0,1,21.064,20.5Z" transform="translate(0 11.022)" fill="#f2f6f7"/>
      <path id="Path_83894" data-name="Path 83894" d="M24.323,22.562A5.228,5.228,0,1,1,19.1,17.333a5.228,5.228,0,0,1,5.228,5.228Z" transform="translate(13.471 18.37)" fill="#f2f6f7"/>
      <path id="Path_83895" data-name="Path 83895" d="M36.363,16.881A12.548,12.548,0,1,1,23.815,4.333,12.548,12.548,0,0,1,36.363,16.881Z" transform="translate(9.797)" fill="#f2f6f7"/>
    </g>
    <g id="Repeat_Grid_159" data-name="Repeat Grid 159" transform="translate(29 277)" clip-path="url(#clip-path)">
      <g transform="translate(-55 -408)">
        <text id="_" data-name="*" transform="translate(83 461)" fill="#002e6b" font-size="50" font-family="Poppins-Regular, Poppins"><tspan x="-12.15" y="0">*</tspan></text>
        <g id="Rectangle_2529" data-name="Rectangle 2529" transform="translate(55 408)" fill="none" stroke="#01ffff" stroke-width="3">
          <rect width="55" height="55" rx="9" stroke="none"/>
          <rect x="1.5" y="1.5" width="52" height="52" rx="7.5" fill="none"/>
        </g>
      </g>
      <g transform="translate(6 -408)">
        <text id="_2" data-name="*" transform="translate(83 461)" fill="#002e6b" font-size="50" font-family="Poppins-Regular, Poppins"><tspan x="-12.15" y="0">*</tspan></text>
        <g id="Rectangle_2529-2" data-name="Rectangle 2529" transform="translate(55 408)" fill="none" stroke="#01ffff" stroke-width="3">
          <rect width="55" height="55" rx="9" stroke="none"/>
          <rect x="1.5" y="1.5" width="52" height="52" rx="7.5" fill="none"/>
        </g>
      </g>
      <g transform="translate(67 -408)">
        <text id="_3" data-name="*" transform="translate(83 461)" fill="#002e6b" font-size="50" font-family="Poppins-Regular, Poppins"><tspan x="-12.15" y="0">*</tspan></text>
        <g id="Rectangle_2529-3" data-name="Rectangle 2529" transform="translate(55 408)" fill="none" stroke="#01ffff" stroke-width="3">
          <rect width="55" height="55" rx="9" stroke="none"/>
          <rect x="1.5" y="1.5" width="52" height="52" rx="7.5" fill="none"/>
        </g>
      </g>
      <g transform="translate(128 -408)">
        <text id="_4" data-name="*" transform="translate(83 461)" fill="#002e6b" font-size="50" font-family="Poppins-Regular, Poppins"><tspan x="-12.15" y="0">*</tspan></text>
        <g id="Rectangle_2529-4" data-name="Rectangle 2529" transform="translate(55 408)" fill="none" stroke="#01ffff" stroke-width="3">
          <rect width="55" height="55" rx="9" stroke="none"/>
          <rect x="1.5" y="1.5" width="52" height="52" rx="7.5" fill="none"/>
        </g>
      </g>
      <g transform="translate(189 -408)">
        <text id="_5" data-name="*" transform="translate(83 461)" fill="#002e6b" font-size="50" font-family="Poppins-Regular, Poppins"><tspan x="-12.15" y="0">*</tspan></text>
        <g id="Rectangle_2529-5" data-name="Rectangle 2529" transform="translate(55 408)" fill="none" stroke="#01ffff" stroke-width="3">
          <rect width="55" height="55" rx="9" stroke="none"/>
          <rect x="1.5" y="1.5" width="52" height="52" rx="7.5" fill="none"/>
        </g>
      </g>
      <g transform="translate(250 -408)">
        <text id="_6" data-name="*" transform="translate(83 461)" fill="#002e6b" font-size="50" font-family="Poppins-Regular, Poppins"><tspan x="-12.15" y="0">*</tspan></text>
        <g id="Rectangle_2529-6" data-name="Rectangle 2529" transform="translate(55 408)" fill="none" stroke="#01ffff" stroke-width="3">
          <rect width="55" height="55" rx="9" stroke="none"/>
          <rect x="1.5" y="1.5" width="52" height="52" rx="7.5" fill="none"/>
        </g>
      </g>
    </g>
    <g id="Keypad" transform="translate(78 374)">
      <g transform="matrix(1, 0, 0, 1, -78, -374)" filter="url(#Ellipse_46)">
        <g id="Ellipse_46-11" data-name="Ellipse 46" transform="translate(82 374)" fill="none" stroke="#002e6b" stroke-width="3">
          <circle cx="38" cy="38" r="38" stroke="none"/>
          <circle cx="38" cy="38" r="36.5" fill="none"/>
        </g>
      </g>
      <g transform="matrix(1, 0, 0, 1, -78, -374)" filter="url(#Ellipse_46-2)">
        <g id="Ellipse_46-12" data-name="Ellipse 46" transform="translate(174 374)" fill="none" stroke="#002e6b" stroke-width="3">
          <circle cx="38" cy="38" r="38" stroke="none"/>
          <circle cx="38" cy="38" r="36.5" fill="none"/>
        </g>
      </g>
      <g transform="matrix(1, 0, 0, 1, -78, -374)" filter="url(#Ellipse_46-3)">
        <g id="Ellipse_46-13" data-name="Ellipse 46" transform="translate(266 374)" fill="none" stroke="#002e6b" stroke-width="3">
          <circle cx="38" cy="38" r="38" stroke="none"/>
          <circle cx="38" cy="38" r="36.5" fill="none"/>
        </g>
      </g>
      <g transform="matrix(1, 0, 0, 1, -78, -374)" filter="url(#Ellipse_46-4)">
        <g id="Ellipse_46-14" data-name="Ellipse 46" transform="translate(82 466)" fill="none" stroke="#002e6b" stroke-width="3">
          <circle cx="38" cy="38" r="38" stroke="none"/>
          <circle cx="38" cy="38" r="36.5" fill="none"/>
        </g>
      </g>
      <g transform="matrix(1, 0, 0, 1, -78, -374)" filter="url(#Ellipse_46-5)">
        <g id="Ellipse_46-15" data-name="Ellipse 46" transform="translate(174 466)" fill="none" stroke="#002e6b" stroke-width="3">
          <circle cx="38" cy="38" r="38" stroke="none"/>
          <circle cx="38" cy="38" r="36.5" fill="none"/>
        </g>
      </g>
      <g transform="matrix(1, 0, 0, 1, -78, -374)" filter="url(#Ellipse_46-6)">
        <g id="Ellipse_46-16" data-name="Ellipse 46" transform="translate(266 466)" fill="none" stroke="#002e6b" stroke-width="3">
          <circle cx="38" cy="38" r="38" stroke="none"/>
          <circle cx="38" cy="38" r="36.5" fill="none"/>
        </g>
      </g>
      <g transform="matrix(1, 0, 0, 1, -78, -374)" filter="url(#Ellipse_46-7)">
        <g id="Ellipse_46-17" data-name="Ellipse 46" transform="translate(82 558)" fill="none" stroke="#002e6b" stroke-width="3">
          <circle cx="38" cy="38" r="38" stroke="none"/>
          <circle cx="38" cy="38" r="36.5" fill="none"/>
        </g>
      </g>
      <g transform="matrix(1, 0, 0, 1, -78, -374)" filter="url(#Ellipse_46-8)">
        <g id="Ellipse_46-18" data-name="Ellipse 46" transform="translate(174 558)" fill="none" stroke="#002e6b" stroke-width="3">
          <circle cx="38" cy="38" r="38" stroke="none"/>
          <circle cx="38" cy="38" r="36.5" fill="none"/>
        </g>
      </g>
      <g transform="matrix(1, 0, 0, 1, -78, -374)" filter="url(#Ellipse_46-9)">
        <g id="Ellipse_46-19" data-name="Ellipse 46" transform="translate(266 558)" fill="none" stroke="#002e6b" stroke-width="3">
          <circle cx="38" cy="38" r="38" stroke="none"/>
          <circle cx="38" cy="38" r="36.5" fill="none"/>
        </g>
      </g>
      <g transform="matrix(1, 0, 0, 1, -78, -374)" filter="url(#Ellipse_46-10)">
        <g id="Ellipse_46-20" data-name="Ellipse 46" transform="translate(174 651)" fill="none" stroke="#002e6b" stroke-width="3">
          <circle cx="38" cy="38" r="38" stroke="none"/>
          <circle cx="38" cy="38" r="36.5" fill="none"/>
        </g>
      </g>
      <g transform="matrix(1, 0, 0, 1, -78, -374)" filter="url(#Ellipse_721)">
        <circle id="Ellipse_721-2" data-name="Ellipse 721" cx="38" cy="38" r="38" transform="translate(266 651)" fill="#01ffff"/>
      </g>
      <g transform="matrix(1, 0, 0, 1, -78, -374)" filter="url(#Ellipse_720)">
        <circle id="Ellipse_720-2" data-name="Ellipse 720" cx="38" cy="38" r="38" transform="translate(78 651)" fill="#01ffff"/>
      </g>
      <g id="Icon_feather-delete" data-name="Icon feather-delete" transform="translate(3.722 293.934)">
        <path id="Path_105" data-name="Path 105" d="M53.5,8.333H20.079L2.083,28.9l18,20.566H53.5a5.141,5.141,0,0,0,5.142-5.142V13.475A5.142,5.142,0,0,0,53.5,8.333Z" transform="translate(-2.083 -8.333)" fill="none" stroke="#fff" stroke-linecap="round" stroke-linejoin="round" stroke-width="3.17"/>
        <path id="Path_106" data-name="Path 106" d="M40.425,18.75,25,34.175" transform="translate(3.278 -5.896)" fill="none" stroke="#fff" stroke-linecap="round" stroke-linejoin="round" stroke-width="3.17"/>
        <path id="Path_107" data-name="Path 107" d="M25,18.75,40.425,34.175" transform="translate(3.278 -5.896)" fill="none" stroke="#fff" stroke-linecap="round" stroke-linejoin="round" stroke-width="3.17"/>
      </g>
      <text id="_1" data-name="1" transform="translate(42 53)" fill="#002d6a" font-size="35" font-family="SegoeUI-Bold, Segoe UI" font-weight="700"><tspan x="-10.066" y="0">1</tspan></text>
      <text id="_2-2" data-name="2" transform="translate(134 53)" fill="#002d6a" font-size="35" font-family="SegoeUI-Bold, Segoe UI" font-weight="700"><tspan x="-10.066" y="0">2</tspan></text>
      <text id="_3-2" data-name="3" transform="translate(226 53)" fill="#002d6a" font-size="35" font-family="SegoeUI-Bold, Segoe UI" font-weight="700"><tspan x="-10.066" y="0">3</tspan></text>
      <text id="_4-2" data-name="4" transform="translate(42 145)" fill="#002d6a" font-size="35" font-family="SegoeUI-Bold, Segoe UI" font-weight="700"><tspan x="-10.066" y="0">4</tspan></text>
      <text id="_5-2" data-name="5" transform="translate(134 145)" fill="#002d6a" font-size="35" font-family="SegoeUI-Bold, Segoe UI" font-weight="700"><tspan x="-10.066" y="0">5</tspan></text>
      <text id="_6-2" data-name="6" transform="translate(226 145)" fill="#002d6a" font-size="35" font-family="SegoeUI-Bold, Segoe UI" font-weight="700"><tspan x="-10.066" y="0">6</tspan></text>
      <text id="_7" data-name="7" transform="translate(42 237)" fill="#002d6a" font-size="35" font-family="SegoeUI-Bold, Segoe UI" font-weight="700"><tspan x="-10.066" y="0">7</tspan></text>
      <text id="_8" data-name="8" transform="translate(134 237)" fill="#002d6a" font-size="35" font-family="SegoeUI-Bold, Segoe UI" font-weight="700"><tspan x="-10.066" y="0">8</tspan></text>
      <text id="_9" data-name="9" transform="translate(226 237)" fill="#002d6a" font-size="35" font-family="SegoeUI-Bold, Segoe UI" font-weight="700"><tspan x="-10.066" y="0">9</tspan></text>
      <text id="_0" data-name="0" transform="translate(134 329)" fill="#002d6a" font-size="35" font-family="SegoeUI-Bold, Segoe UI" font-weight="700"><tspan x="-10.066" y="0">0</tspan></text>
      <text id="CLEAR" transform="translate(226 321)" fill="#fff" font-size="18" font-family="Poppins-Regular, Poppins"><tspan x="-26.991" y="0">CLEAR</tspan></text>
    </g>
    <text id="Didn_t_get_verification_code_Resend_verification_in_03:59" data-name="Didn&apos;t get verification code? Resend verification
 in 03:59" transform="translate(214 879)" fill="#c4c4c4" font-size="15" font-family="Poppins-Regular, Poppins"><tspan x="-177.27" y="0">Didn&apos;t get verification code? </tspan><tspan y="0" fill="#01ffff">Resend </tspan><tspan y="0">verification</tspan><tspan x="-30.81" y="23" xml:space="preserve"> in 03:59</tspan></text>
    <g id="Group_165459" data-name="Group 165459" transform="translate(-108 -40)">
      <g transform="matrix(1, 0, 0, 1, 108, 40)" filter="url(#Rectangle_148373)">
        <rect id="Rectangle_148373-2" data-name="Rectangle 148373" width="330" height="49" rx="24" transform="translate(49 788)" fill="#01ffff"/>
      </g>
      <text id="TSLA" transform="translate(280 859)" fill="#fff" font-size="18" font-family="Poppins-SemiBold, Poppins" font-weight="600"><tspan x="0" y="0">Continue</tspan></text>
    </g>
  </g>
</svg>
