<svg xmlns="http://www.w3.org/2000/svg" xmlns:xlink="http://www.w3.org/1999/xlink" width="428" height="926" viewBox="0 0 428 926">
  <defs>
    <filter id="Heading_Container" x="-15" y="-14" width="458" height="516" filterUnits="userSpaceOnUse">
      <feOffset dy="1" input="SourceAlpha"/>
      <feGaussianBlur stdDeviation="5" result="blur"/>
      <feFlood flood-color="#c7c7c7" flood-opacity="0.161"/>
      <feComposite operator="in" in2="blur"/>
      <feComposite in="SourceGraphic"/>
    </filter>
    <filter id="Heading_Container-2" x="-15" y="-15" width="458" height="118" filterUnits="userSpaceOnUse">
      <feOffset dy="1" input="SourceAlpha"/>
      <feGaussianBlur stdDeviation="5" result="blur-2"/>
      <feFlood flood-color="#c7c7c7" flood-opacity="0.161"/>
      <feComposite operator="in" in2="blur-2"/>
      <feComposite in="SourceGraphic"/>
    </filter>
    <filter id="Rectangle_148373" x="40" y="826" width="348" height="67" filterUnits="userSpaceOnUse">
      <feOffset dy="8" input="SourceAlpha"/>
      <feGaussianBlur stdDeviation="3" result="blur-3"/>
      <feFlood flood-color="#d5ffe0" flood-opacity="0.161"/>
      <feComposite operator="in" in2="blur-3"/>
      <feComposite in="SourceGraphic"/>
    </filter>
    <clipPath id="clip-_12_Set_Password_Screen">
      <rect width="428" height="926"/>
    </clipPath>
  </defs>
  <g id="_12_Set_Password_Screen" data-name="12 Set Password Screen" clip-path="url(#clip-_12_Set_Password_Screen)">
    <rect width="428" height="926" fill="#fff"/>
    <g transform="matrix(1, 0, 0, 1, 0, 0)" filter="url(#Heading_Container)">
      <rect id="Heading_Container-3" data-name="Heading Container" width="428" height="486" fill="#002d6a"/>
    </g>
    <path id="Rectangle_148366" data-name="Rectangle 148366" d="M25,0H403a25,25,0,0,1,25,25V694a0,0,0,0,1,0,0H0a0,0,0,0,1,0,0V25A25,25,0,0,1,25,0Z" transform="translate(0 232)" fill="#fff"/>
    <text id="Heading_Text" data-name="Heading Text" transform="translate(19.088 129.5)" fill="#fff" font-size="18" font-family="Poppins-SemiBold, Poppins" font-weight="600"><tspan x="0" y="0">Create your Login Password</tspan></text>
    <text id="Body_Text" data-name="Body Text" transform="translate(19.088 162)" fill="#fff" font-size="15" font-family="Poppins-Regular, Poppins"><tspan x="0" y="0">By creating a password you agree to our</tspan><tspan fill="#01ffff"><tspan x="0" y="25">Privacy Policy</tspan><tspan y="25" xml:space="preserve" fill="#fff"> and </tspan><tspan y="25">Terms &amp; Conditions.</tspan><tspan y="25" fill="#fff"> </tspan></tspan></text>
    <g transform="matrix(1, 0, 0, 1, 0, 0)" filter="url(#Heading_Container-2)">
      <g id="Heading_Container-4" data-name="Heading Container" transform="translate(0 -1)" fill="#fff" stroke="rgba(199,199,199,0.16)" stroke-width="1">
        <path d="M0,0H428a0,0,0,0,1,0,0V74a14,14,0,0,1-14,14H14A14,14,0,0,1,0,74V0A0,0,0,0,1,0,0Z" stroke="none"/>
        <path d="M.5.5h427a0,0,0,0,1,0,0V74A13.5,13.5,0,0,1,414,87.5H14A13.5,13.5,0,0,1,.5,74V.5A0,0,0,0,1,.5.5Z" fill="none"/>
      </g>
    </g>
    <g id="Stautus_Bar" data-name="Stautus Bar" transform="translate(7 10)">
      <g id="Pin-Right" transform="translate(354.729 0.5)">
        <path id="Battery" d="M37.494,2.5H57.006A1.5,1.5,0,0,1,58.5,4.005v6.489A1.5,1.5,0,0,1,57.006,12H37.494A1.5,1.5,0,0,1,36,10.495V4.005A1.5,1.5,0,0,1,37.494,2.5ZM59,5.5h.75a.744.744,0,0,1,.75.742V8.258A.748.748,0,0,1,59.75,9H59ZM37.508,3A1.012,1.012,0,0,0,36.5,4.008v6.483A1.007,1.007,0,0,0,37.508,11.5H56.992A1.012,1.012,0,0,0,58,10.492V4.008A1.007,1.007,0,0,0,56.992,3Zm0,.5H56.993a.5.5,0,0,1,.507.492v6.516a.5.5,0,0,1-.507.492H37.507A.5.5,0,0,1,37,10.508V3.992A.5.5,0,0,1,37.507,3.5Z" transform="translate(-2.854 1.5)" fill-rule="evenodd"/>
        <text id="_100_" data-name="100%" transform="translate(0 13)" font-size="12" font-family="Poppins-Regular, Poppins"><tspan x="0" y="0">100%</tspan></text>
      </g>
      <text id="_9:41_AM" data-name="9:41 AM" transform="translate(182.123 13)" font-size="12" font-family="Poppins-Regular, Poppins"><tspan x="0" y="0">9:41 AM</tspan></text>
      <g id="Signal" transform="translate(0 0.5)">
        <path id="Wi-Fi" d="M96.144,12.439,94.023,14.5,91.86,12.405a2.884,2.884,0,0,1,4.284.033Zm2.179-2.117h0l-1.089,1.058a4.46,4.46,0,0,0-6.465-.031l-1.09-1.056a6.036,6.036,0,0,1,8.644.029ZM100.5,8.207,99.412,9.264A7.612,7.612,0,0,0,88.59,9.237L87.5,8.182a9.188,9.188,0,0,1,13,.025Z" transform="translate(-6.5 -1.5)" fill-rule="evenodd"/>
        <text id="Sketch" transform="translate(37.5 13)" font-size="12" font-family="Poppins-Regular, Poppins"><tspan x="0" y="0">Sunny</tspan></text>
        <path id="Mobile-Signal" d="M9.25,13A2.75,2.75,0,1,1,12,10.25,2.75,2.75,0,0,1,9.25,13Zm7,0A2.75,2.75,0,1,1,19,10.25,2.75,2.75,0,0,1,16.25,13Zm7,0A2.75,2.75,0,1,1,26,10.25,2.75,2.75,0,0,1,23.25,13Zm7,0A2.75,2.75,0,1,1,33,10.25,2.75,2.75,0,0,1,30.25,13Zm7,0A2.75,2.75,0,1,1,40,10.25,2.75,2.75,0,0,1,37.25,13Z" transform="translate(-6.5 -1.5)" fill-rule="evenodd"/>
      </g>
    </g>
    <g id="Group_165447" data-name="Group 165447" transform="translate(-28 -250)">
      <rect id="Rectangle_31" data-name="Rectangle 31" width="183" height="41" rx="20.5" transform="translate(151 285)" fill="#01ffff"/>
      <text id="Login_Password" data-name="Login Password" transform="translate(173 312)" fill="#002d6a" font-size="18" font-family="Poppins-Regular, Poppins"><tspan x="0" y="0">Login Password</tspan></text>
    </g>
    <path id="Icon_ionic-ios-arrow-down" data-name="Icon ionic-ios-arrow-down" d="M15.006,18.288l6.666-6.672a1.255,1.255,0,0,1,1.779,0,1.271,1.271,0,0,1,0,1.785L15.9,20.96A1.258,1.258,0,0,1,14.161,21l-7.606-7.59a1.26,1.26,0,0,1,1.779-1.785Z" transform="translate(31.327 36.813) rotate(90)" fill="#002d6a" opacity="0.8"/>
    <g id="Icon_material-bubble-chart" data-name="Icon material-bubble-chart" transform="translate(365.833 93.753)">
      <path id="Path_83893" data-name="Path 83893" d="M21.064,20.5A8.365,8.365,0,1,1,12.7,12.133,8.365,8.365,0,0,1,21.064,20.5Z" transform="translate(0 11.022)" fill="#f2f6f7"/>
      <path id="Path_83894" data-name="Path 83894" d="M24.323,22.562A5.228,5.228,0,1,1,19.1,17.333a5.228,5.228,0,0,1,5.228,5.228Z" transform="translate(13.471 18.37)" fill="#f2f6f7"/>
      <path id="Path_83895" data-name="Path 83895" d="M36.363,16.881A12.548,12.548,0,1,1,23.815,4.333,12.548,12.548,0,0,1,36.363,16.881Z" transform="translate(9.797)" fill="#f2f6f7"/>
    </g>
    <g id="Group_165465" data-name="Group 165465">
      <rect id="Rectangle_149048" data-name="Rectangle 149048" width="372" height="255" rx="10" transform="translate(26 265)" fill="#01ffff" opacity="0.1"/>
      <text id="Let_s_make_your_account_as_secure_as_possible." data-name="Let&apos;s make your account as secure as
possible." transform="translate(45 293)" fill="#002d6a" font-size="18" font-family="Poppins-Medium, Poppins" font-weight="500"><tspan x="0" y="0">Let&apos;s make your account as secure as</tspan><tspan x="0" y="25">possible.</tspan></text>
      <g id="Group_165460" data-name="Group 165460" transform="translate(15)">
        <text id="Minimum_of_9_characters" data-name="Minimum of 9 characters" transform="translate(80 358)" fill="#002d6a" font-size="18" font-family="Poppins-Regular, Poppins"><tspan x="0" y="0">Minimum of 9 characters</tspan></text>
        <g id="Icon_feather-check-circle" data-name="Icon feather-check-circle" transform="translate(50 339.01)">
          <path id="Path_85148" data-name="Path 85148" d="M22.143,11.687v.881A9.571,9.571,0,1,1,16.467,3.82" transform="translate(0 0)" fill="none" stroke="#002d6a" stroke-linecap="round" stroke-linejoin="round" stroke-width="2"/>
          <path id="Path_85149" data-name="Path 85149" d="M25.943,6l-9.571,9.581L13.5,12.71" transform="translate(-3.8 -1.089)" fill="none" stroke="#01ffff" stroke-linecap="round" stroke-linejoin="round" stroke-width="2"/>
        </g>
      </g>
      <g id="Group_165462" data-name="Group 165462" transform="translate(15)">
        <text id="At_least_1_uppercase_letter" data-name="At least 1 uppercase letter" transform="translate(80 428)" fill="#002d6a" font-size="18" font-family="Poppins-Regular, Poppins"><tspan x="0" y="0">At least 1 uppercase letter</tspan></text>
        <g id="Icon_feather-check-circle-2" data-name="Icon feather-check-circle" transform="translate(50 409.01)">
          <path id="Path_85148-2" data-name="Path 85148" d="M22.143,11.687v.881A9.571,9.571,0,1,1,16.467,3.82" transform="translate(0 0)" fill="none" stroke="#002d6a" stroke-linecap="round" stroke-linejoin="round" stroke-width="2"/>
          <path id="Path_85149-2" data-name="Path 85149" d="M25.943,6l-9.571,9.581L13.5,12.71" transform="translate(-3.8 -1.089)" fill="none" stroke="#01ffff" stroke-linecap="round" stroke-linejoin="round" stroke-width="2"/>
        </g>
      </g>
      <g id="Group_165461" data-name="Group 165461" transform="translate(15)">
        <text id="At_least_1_number" data-name="At least 1 number" transform="translate(80 393)" fill="#002d6a" font-size="18" font-family="Poppins-Regular, Poppins"><tspan x="0" y="0">At least 1 number</tspan></text>
        <g id="Icon_feather-check-circle-3" data-name="Icon feather-check-circle" transform="translate(50 374.01)">
          <path id="Path_85148-3" data-name="Path 85148" d="M22.143,11.687v.881A9.571,9.571,0,1,1,16.467,3.82" transform="translate(0 0)" fill="none" stroke="#002d6a" stroke-linecap="round" stroke-linejoin="round" stroke-width="2"/>
          <path id="Path_85149-3" data-name="Path 85149" d="M25.943,6l-9.571,9.581L13.5,12.71" transform="translate(-3.8 -1.089)" fill="none" stroke="#01ffff" stroke-linecap="round" stroke-linejoin="round" stroke-width="2"/>
        </g>
      </g>
      <g id="Group_165463" data-name="Group 165463" transform="translate(15)">
        <text id="At_least_1_lowercase_letter" data-name="At least 1 lowercase letter" transform="translate(80 463)" fill="#002d6a" font-size="18" font-family="Poppins-Regular, Poppins"><tspan x="0" y="0">At least 1 lowercase letter</tspan></text>
        <g id="Ellipse_9640" data-name="Ellipse 9640" transform="translate(53 446)" fill="none" stroke="#002d6a" stroke-width="2">
          <circle cx="10.5" cy="10.5" r="10.5" stroke="none"/>
          <circle cx="10.5" cy="10.5" r="9.5" fill="none"/>
        </g>
      </g>
      <g id="Group_165464" data-name="Group 165464" transform="translate(15)">
        <text id="At_least_1_special_character" data-name="At least 1 special character" transform="translate(80 498)" fill="#002d6a" font-size="18" font-family="Poppins-Regular, Poppins"><tspan x="0" y="0">At least 1 special character</tspan></text>
        <g id="Icon_feather-check-circle-4" data-name="Icon feather-check-circle" transform="translate(50 479.01)">
          <g id="Ellipse_9639" data-name="Ellipse 9639" transform="translate(3 1.99)" fill="none" stroke="#002d6a" stroke-width="2">
            <circle cx="10.5" cy="10.5" r="10.5" stroke="none"/>
            <circle cx="10.5" cy="10.5" r="9.5" fill="none"/>
          </g>
        </g>
      </g>
    </g>
    <g id="Group_165466" data-name="Group 165466">
      <text id="TSLA" transform="translate(67.5 688.537)" fill="#002d6a" font-size="18" font-family="Poppins-SemiBold, Poppins" font-weight="600"><tspan x="0" y="0">Confirm Password</tspan></text>
      <text id="TSLA-2" data-name="TSLA" transform="translate(28.5 717.65)" fill="#d1d2d9" font-size="15" font-family="Poppins-Light, Poppins" font-weight="300"><tspan x="0" y="0">Re-enter your password</tspan></text>
      <line id="Line_1117" data-name="Line 1117" x2="372" transform="translate(28 730.037)" fill="none" stroke="#707070" stroke-linecap="round" stroke-width="0.17"/>
      <path id="Icon_ionic-ios-lock" data-name="Icon ionic-ios-lock" d="M26.438,13.5H24.75V10.216a6.75,6.75,0,1,0-13.5-.091V13.5H9.563A2.821,2.821,0,0,0,6.75,16.313v13.5a2.821,2.821,0,0,0,2.813,2.813H26.438a2.821,2.821,0,0,0,2.813-2.812v-13.5A2.821,2.821,0,0,0,26.438,13.5Zm-7.453,8.775v4.837a1.008,1.008,0,0,1-.935,1.013.986.986,0,0,1-1.034-.984V22.275a2.25,2.25,0,1,1,1.969,0Zm3.8-8.775H13.219V10.125a4.781,4.781,0,0,1,9.563,0Z" transform="translate(21.75 661.639)" fill="#01ffff"/>
      <path id="Icon_awesome-eye" data-name="Icon awesome-eye" d="M19.382,10.506A10.858,10.858,0,0,0,9.75,4.5,10.86,10.86,0,0,0,.118,10.506a1.1,1.1,0,0,0,0,.988A10.858,10.858,0,0,0,9.75,17.5a10.86,10.86,0,0,0,9.632-6.006A1.1,1.1,0,0,0,19.382,10.506ZM9.75,15.875A4.875,4.875,0,1,1,14.625,11,4.875,4.875,0,0,1,9.75,15.875Zm0-8.125a3.227,3.227,0,0,0-.857.128,1.62,1.62,0,0,1-2.265,2.265A3.243,3.243,0,1,0,9.75,7.75Z" transform="translate(373.5 705.15)" fill="#002d6a"/>
    </g>
    <g id="Group_165467" data-name="Group 165467">
      <text id="TSLA-3" data-name="TSLA" transform="translate(67.5 583.524)" fill="#002d6a" font-size="18" font-family="Poppins-SemiBold, Poppins" font-weight="600"><tspan x="0" y="0">Password</tspan></text>
      <text id="TSLA-4" data-name="TSLA" transform="translate(28.5 612.638)" fill="#d1d2d9" font-size="15" font-family="Poppins-Light, Poppins" font-weight="300"><tspan x="0" y="0">Enter your password</tspan></text>
      <line id="Line_1117-2" data-name="Line 1117" x2="372" transform="translate(28 625.024)" fill="none" stroke="#01ffff" stroke-linecap="round" stroke-width="2"/>
      <path id="Icon_ionic-ios-lock-2" data-name="Icon ionic-ios-lock" d="M26.438,13.5H24.75V10.216a6.75,6.75,0,1,0-13.5-.091V13.5H9.563A2.821,2.821,0,0,0,6.75,16.313v13.5a2.821,2.821,0,0,0,2.813,2.813H26.438a2.821,2.821,0,0,0,2.813-2.812v-13.5A2.821,2.821,0,0,0,26.438,13.5Zm-7.453,8.775v4.837a1.008,1.008,0,0,1-.935,1.013.986.986,0,0,1-1.034-.984V22.275a2.25,2.25,0,1,1,1.969,0Zm3.8-8.775H13.219V10.125a4.781,4.781,0,0,1,9.563,0Z" transform="translate(21.75 556.626)" fill="#01ffff"/>
      <path id="Icon_awesome-eye-slash" data-name="Icon awesome-eye-slash" d="M10.7,13.374a4.8,4.8,0,0,1-4.778-4.45L2.414,6.213A11.143,11.143,0,0,0,1.186,8.071a1.082,1.082,0,0,0,0,.976A10.724,10.724,0,0,0,10.7,14.979a10.385,10.385,0,0,0,2.6-.35l-1.735-1.342a4.819,4.819,0,0,1-.869.087Zm10.492,1.943L17.5,12.46a11.075,11.075,0,0,0,2.717-3.413,1.082,1.082,0,0,0,0-.976A10.724,10.724,0,0,0,10.7,2.14,10.3,10.3,0,0,0,5.774,3.4L1.52.113A.535.535,0,0,0,.769.207l-.656.845A.535.535,0,0,0,.207,1.8l19.672,15.2a.535.535,0,0,0,.751-.094l.657-.845a.535.535,0,0,0-.094-.751Zm-6.143-4.748L13.735,9.553A3.168,3.168,0,0,0,9.853,5.476a1.593,1.593,0,0,1,.311.943,1.559,1.559,0,0,1-.051.334l-2.461-1.9A4.758,4.758,0,0,1,10.7,3.745a4.812,4.812,0,0,1,4.815,4.815,4.7,4.7,0,0,1-.465,2.01Z" transform="translate(372.551 600.52)" fill="#002d6a"/>
    </g>
    <g id="Group_165468" data-name="Group 165468" transform="translate(19 -13)">
      <path id="Union_300" data-name="Union 300" d="M11943,14281a10,10,0,0,1-10-10v-18a10,10,0,0,1,10-10h1.908l5.371-9.085a2,2,0,0,1,3.44,0l5.37,9.085H12073a10,10,0,0,1,10,10v18a10,10,0,0,1-10,10Z" transform="translate(-11909 -13479)" fill="#01ffff" opacity="0.2"/>
      <text id="TSLA-5" data-name="TSLA" transform="translate(34 789)" fill="#002d6a" font-size="15" font-family="Poppins-Regular, Poppins"><tspan x="0" y="0">Passwords Match</tspan></text>
    </g>
    <g id="Group_165458" data-name="Group 165458" transform="translate(-108 -1)">
      <g transform="matrix(1, 0, 0, 1, 108, 1)" filter="url(#Rectangle_148373)">
        <rect id="Rectangle_148373-2" data-name="Rectangle 148373" width="330" height="49" rx="24" transform="translate(49 827)" fill="#01ffff"/>
      </g>
      <text id="TSLA-6" data-name="TSLA" transform="translate(280 859)" fill="#fff" font-size="18" font-family="Poppins-SemiBold, Poppins" font-weight="600"><tspan x="0" y="0">Continue</tspan></text>
    </g>
  </g>
</svg>
