<svg xmlns="http://www.w3.org/2000/svg" xmlns:xlink="http://www.w3.org/1999/xlink" width="428" height="1464" viewBox="0 0 428 1464">
  <defs>
    <filter id="Heading_Container" x="-15" y="-14" width="458" height="516" filterUnits="userSpaceOnUse">
      <feOffset dy="1" input="SourceAlpha"/>
      <feGaussianBlur stdDeviation="5" result="blur"/>
      <feFlood flood-color="#c7c7c7" flood-opacity="0.161"/>
      <feComposite operator="in" in2="blur"/>
      <feComposite in="SourceGraphic"/>
    </filter>
    <clipPath id="clip-path">
      <circle id="Ellipse_9638" data-name="Ellipse 9638" cx="13.5" cy="13.5" r="13.5" transform="translate(-969 2114)" fill="#fff"/>
    </clipPath>
    <filter id="Rectangle_148373" x="40" y="1376" width="348" height="67" filterUnits="userSpaceOnUse">
      <feOffset dy="8" input="SourceAlpha"/>
      <feGaussianBlur stdDeviation="3" result="blur-2"/>
      <feFlood flood-color="#d5ffe0" flood-opacity="0.161"/>
      <feComposite operator="in" in2="blur-2"/>
      <feComposite in="SourceGraphic"/>
    </filter>
    <filter id="Heading_Container-2" x="-15" y="-15" width="458" height="118" filterUnits="userSpaceOnUse">
      <feOffset dy="1" input="SourceAlpha"/>
      <feGaussianBlur stdDeviation="5" result="blur-3"/>
      <feFlood flood-color="#c7c7c7" flood-opacity="0.161"/>
      <feComposite operator="in" in2="blur-3"/>
      <feComposite in="SourceGraphic"/>
    </filter>
    <clipPath id="clip-_23_CAC_Registration_Screen">
      <rect width="428" height="1464"/>
    </clipPath>
  </defs>
  <g id="_23_CAC_Registration_Screen" data-name="23 CAC Registration Screen" clip-path="url(#clip-_23_CAC_Registration_Screen)">
    <rect width="428" height="1464" fill="#fff"/>
    <g transform="matrix(1, 0, 0, 1, 0, 0)" filter="url(#Heading_Container)">
      <rect id="Heading_Container-3" data-name="Heading Container" width="428" height="486" fill="#002d6a"/>
    </g>
    <path id="Rectangle_148366" data-name="Rectangle 148366" d="M25,0H403a25,25,0,0,1,25,25V1232a0,0,0,0,1,0,0H0a0,0,0,0,1,0,0V25A25,25,0,0,1,25,0Z" transform="translate(0 232)" fill="#fff"/>
    <g id="Group_165448" data-name="Group 165448" transform="translate(-0.5 6.006)">
      <text id="TSLA" transform="translate(61 278)" fill="#002d6a" font-size="18" font-family="Poppins-SemiBold, Poppins" font-weight="600"><tspan x="0" y="0">Full Name</tspan></text>
      <text id="TSLA-2" data-name="TSLA" transform="translate(22 307.113)" fill="#d1d2d9" font-size="15" font-family="Poppins-Light, Poppins" font-weight="300"><tspan x="0" y="0">Name must match exactly as on ID Card</tspan></text>
      <path id="Icon_awesome-user-alt" data-name="Icon awesome-user-alt" d="M10.307,11.595a5.8,5.8,0,1,0-5.8-5.8A5.8,5.8,0,0,0,10.307,11.595Zm5.153,1.288H13.242a7.008,7.008,0,0,1-5.87,0H5.153A5.153,5.153,0,0,0,0,18.037v.644a1.933,1.933,0,0,0,1.932,1.932H18.681a1.933,1.933,0,0,0,1.932-1.932v-.644A5.153,5.153,0,0,0,15.46,12.883Z" transform="translate(22 261)" fill="#01ffff"/>
      <line id="Line_1117" data-name="Line 1117" x2="372" transform="translate(21.5 319.5)" fill="none" stroke="#707070" stroke-linecap="round" stroke-width="0.17"/>
    </g>
    <g id="Group_165449" data-name="Group 165449" transform="translate(3.179 11.5)">
      <text id="TSLA-3" data-name="TSLA" transform="translate(61 373)" fill="#002d6a" font-size="18" font-family="Poppins-SemiBold, Poppins" font-weight="600"><tspan x="0" y="0">Email</tspan></text>
      <text id="TSLA-4" data-name="TSLA" transform="translate(22 402.113)" fill="#d1d2d9" font-size="15" font-family="Poppins-Light, Poppins" font-weight="300"><tspan x="0" y="0">abc@example.com</tspan></text>
      <line id="Line_1118" data-name="Line 1118" x2="372" transform="translate(21.5 414.5)" fill="none" stroke="#707070" stroke-linecap="round" stroke-width="0.17"/>
      <path id="Icon_zocial-email" data-name="Icon zocial-email" d="M.072,21.893V5.8q0-.028.084-.531l9.471,8.1L.184,22.452a2.368,2.368,0,0,1-.112-.559ZM1.329,4.152A1.2,1.2,0,0,1,1.8,4.068H27.312a1.582,1.582,0,0,1,.5.084l-9.5,8.13-1.257,1.006-2.487,2.04-2.487-2.04-1.257-1.006Zm.028,19.389,9.527-9.136,3.688,2.989,3.688-2.989,9.527,9.136a1.341,1.341,0,0,1-.475.084H1.8a1.265,1.265,0,0,1-.447-.084Zm18.16-10.17,9.443-8.1a1.667,1.667,0,0,1,.084.531V21.893a2.141,2.141,0,0,1-.084.559Z" transform="translate(17.749 351.932)" fill="#01ffff"/>
    </g>
    <g id="Group_165454" data-name="Group 165454" transform="translate(-5 150.494)">
      <text id="TSLA-5" data-name="TSLA" transform="translate(65.66 564.994)" fill="#002d6a" font-size="18" font-family="Poppins-SemiBold, Poppins" font-weight="600"><tspan x="0" y="0">Gender</tspan></text>
      <text id="TSLA-6" data-name="TSLA" transform="translate(26 594)" fill="#d1d2d9" font-size="15" font-family="Poppins-Light, Poppins" font-weight="300"><tspan x="0" y="0">Type to search or select any of the following</tspan></text>
      <line id="Line_1117-2" data-name="Line 1117" x2="372" transform="translate(26.5 606.494)" fill="none" stroke="#707070" stroke-linecap="round" stroke-width="0.17"/>
      <path id="Icon_awesome-long-arrow-alt-up" data-name="Icon awesome-long-arrow-alt-up" d="M6.188,24.324c.061.029,5.791-.1,5.625,0h3.239A1.688,1.688,0,0,1,16.245,27.2l-6.051,6.051a1.688,1.688,0,0,1-2.387,0L1.756,27.2a1.688,1.688,0,0,1,1.193-2.881Z" transform="translate(371.69 559.713)" fill="#d1d2d9"/>
      <path id="Icon_awesome-transgender" data-name="Icon awesome-transgender" d="M20.711,0h-4.4a.669.669,0,0,0-.473,1.141l.941.941L12.288,6.575a8.018,8.018,0,1,0-6.052,14.6v1.537h-2a.67.67,0,0,0-.668.668v2.227a.67.67,0,0,0,.668.668h2v1.559a.67.67,0,0,0,.668.668H9.131a.67.67,0,0,0,.668-.668V26.279h2a.67.67,0,0,0,.668-.668V23.384a.67.67,0,0,0-.668-.668h-2V21.179A8.019,8.019,0,0,0,14.8,9.092L19.3,4.6l.941.941a.668.668,0,0,0,1.141-.473V.668A.67.67,0,0,0,20.711,0ZM8.017,17.816a4.454,4.454,0,1,1,4.454-4.454A4.46,4.46,0,0,1,8.017,17.816Z" transform="translate(26 545.994)" fill="#01ffff"/>
    </g>
    <text id="Heading_Text" data-name="Heading Text" transform="translate(19.088 129.5)" fill="#fff" font-size="18" font-family="Poppins-SemiBold, Poppins" font-weight="600"><tspan x="0" y="0">Let&apos;s get you started</tspan></text>
    <text id="Body_Text" data-name="Body Text" transform="translate(21.08 162)" fill="#fff" font-size="15" font-family="Poppins-Regular, Poppins"><tspan x="0" y="0">Please be aware that CAC registration will attract</tspan><tspan x="0" y="25">additional charges.</tspan></text>
    <g id="Icon_material-bubble-chart" data-name="Icon material-bubble-chart" transform="translate(365.833 93.753)">
      <path id="Path_83893" data-name="Path 83893" d="M21.064,20.5A8.365,8.365,0,1,1,12.7,12.133,8.365,8.365,0,0,1,21.064,20.5Z" transform="translate(0 11.022)" fill="#f2f6f7"/>
      <path id="Path_83894" data-name="Path 83894" d="M24.323,22.562A5.228,5.228,0,1,1,19.1,17.333a5.228,5.228,0,0,1,5.228,5.228Z" transform="translate(13.471 18.37)" fill="#f2f6f7"/>
      <path id="Path_83895" data-name="Path 83895" d="M36.363,16.881A12.548,12.548,0,1,1,23.815,4.333,12.548,12.548,0,0,1,36.363,16.881Z" transform="translate(9.797)" fill="#f2f6f7"/>
    </g>
    <g id="Group_165471" data-name="Group 165471" transform="translate(-5.66)">
      <text id="TSLA-7" data-name="TSLA" transform="translate(65.66 488.5)" fill="#002d6a" font-size="18" font-family="Poppins-SemiBold, Poppins" font-weight="600"><tspan x="0" y="0">Mobile Number</tspan></text>
      <text id="TSLA-8" data-name="TSLA" transform="translate(88 523.5)" fill="#002d6a" font-size="15" font-family="Poppins-Light, Poppins" font-weight="300"><tspan x="0" y="0">+234 </tspan><tspan y="0" fill="#d1d2d9">800000000</tspan></text>
      <line id="Line_1118-2" data-name="Line 1118" x2="316.66" transform="translate(81.5 536)" fill="none" stroke="#707070" stroke-linecap="round" stroke-width="0.17"/>
      <path id="Icon_awesome-mobile" data-name="Icon awesome-mobile" d="M15,0H2.647A2.647,2.647,0,0,0,0,2.647V25.586a2.647,2.647,0,0,0,2.647,2.647H15a2.647,2.647,0,0,0,2.647-2.647V2.647A2.647,2.647,0,0,0,15,0ZM8.823,26.468A1.765,1.765,0,1,1,10.587,24.7,1.763,1.763,0,0,1,8.823,26.468Z" transform="translate(30.717 465.994)" fill="#01ffff"/>
      <g id="Mask_Group_185" data-name="Mask Group 185" transform="translate(995.66 -1612.5)" clip-path="url(#clip-path)">
        <g id="Group_165450" data-name="Group 165450" transform="translate(-972.607 2112.197)">
          <rect id="Rectangle_149045" data-name="Rectangle 149045" width="12" height="31" transform="translate(-0.394 -0.197)" fill="#26b105"/>
          <rect id="Rectangle_149046" data-name="Rectangle 149046" width="12" height="31" transform="translate(11.606 -0.197)" fill="#fff"/>
          <rect id="Rectangle_149047" data-name="Rectangle 149047" width="13" height="31" transform="translate(22.606 -0.197)" fill="#26b105"/>
        </g>
      </g>
      <path id="Icon_awesome-long-arrow-alt-up-2" data-name="Icon awesome-long-arrow-alt-up" d="M6.188,24.324c.061.029,5.791-.1,5.625,0h3.239A1.688,1.688,0,0,1,16.245,27.2l-6.051,6.051a1.688,1.688,0,0,1-2.387,0L1.756,27.2a1.688,1.688,0,0,1,1.193-2.881Z" transform="translate(58.402 485.981)" fill="#d1d2d9"/>
    </g>
    <g id="Group_165475" data-name="Group 165475" transform="translate(-9 -5.273)">
      <text id="TSLA-9" data-name="TSLA" transform="translate(69.34 600.268)" fill="#002d6a" font-size="18" font-family="Poppins-SemiBold, Poppins" font-weight="600"><tspan x="0" y="0">Date of Birth</tspan></text>
      <g id="Group_165474" data-name="Group 165474" transform="translate(0.5)">
        <text id="TSLA-10" data-name="TSLA" transform="translate(35 629.381)" fill="#002d6a" font-size="15" font-family="Poppins-Regular, Poppins"><tspan x="0" y="0">Day</tspan></text>
        <text id="TSLA-11" data-name="TSLA" transform="translate(40 653.381)" fill="#d1d2d9" font-size="15" font-family="Poppins-Light, Poppins" font-weight="300"><tspan x="0" y="0">00</tspan></text>
        <line id="Line_1118-3" data-name="Line 1118" x2="39.66" transform="translate(29.5 661.768)" fill="none" stroke="#707070" stroke-linecap="round" stroke-width="0.17"/>
      </g>
      <g id="Group_165473" data-name="Group 165473" transform="translate(2)">
        <text id="TSLA-12" data-name="TSLA" transform="translate(80 628.994)" fill="#002d6a" font-size="15" font-family="Poppins-Regular, Poppins"><tspan x="0" y="0">Month</tspan></text>
        <text id="TSLA-13" data-name="TSLA" transform="translate(94 653.381)" fill="#d1d2d9" font-size="15" font-family="Poppins-Light, Poppins" font-weight="300"><tspan x="0" y="0">00</tspan></text>
        <line id="Line_1119" data-name="Line 1119" x2="39.66" transform="translate(83.5 661.768)" fill="none" stroke="#707070" stroke-linecap="round" stroke-width="0.17"/>
      </g>
      <g id="Group_165472" data-name="Group 165472" transform="translate(0.5)">
        <text id="TSLA-14" data-name="TSLA" transform="translate(152 629.381)" fill="#002d6a" font-size="15" font-family="Poppins-Regular, Poppins"><tspan x="0" y="0">Year</tspan></text>
        <text id="TSLA-15" data-name="TSLA" transform="translate(150 653.381)" fill="#d1d2d9" font-size="15" font-family="Poppins-Light, Poppins" font-weight="300"><tspan x="0" y="0">0000</tspan></text>
        <line id="Line_1120" data-name="Line 1120" x2="52" transform="translate(142.5 661.768)" fill="none" stroke="#707070" stroke-linecap="round" stroke-width="0.17"/>
      </g>
      <g id="Icon_feather-calendar" data-name="Icon feather-calendar" transform="translate(218.5 610.381)">
        <path id="Path_85144" data-name="Path 85144" d="M7.5,6h21a3,3,0,0,1,3,3V30a3,3,0,0,1-3,3H7.5a3,3,0,0,1-3-3V9a3,3,0,0,1,3-3Z" fill="none" stroke="#01ffff" stroke-linecap="round" stroke-linejoin="round" stroke-width="3"/>
        <path id="Path_85145" data-name="Path 85145" d="M24,3V9" fill="none" stroke="#01ffff" stroke-linecap="round" stroke-linejoin="round" stroke-width="3"/>
        <path id="Path_85146" data-name="Path 85146" d="M12,3V9" fill="none" stroke="#01ffff" stroke-linecap="round" stroke-linejoin="round" stroke-width="3"/>
        <path id="Path_85147" data-name="Path 85147" d="M4.5,15h27" fill="none" stroke="#01ffff" stroke-linecap="round" stroke-linejoin="round" stroke-width="3"/>
      </g>
      <path id="Icon_awesome-birthday-cake" data-name="Icon awesome-birthday-cake" d="M19.114,16.384c-1.2,0-1.334-1.365-3.179-1.365s-2,1.365-3.189,1.365S11.4,15.018,9.557,15.018c-1.828,0-2.015,1.365-3.179,1.365-1.2,0-1.331-1.365-3.189-1.365S1.2,16.384,0,16.384V12.97a2.048,2.048,0,0,1,2.048-2.048h.683V4.779H5.461v6.144H8.192V4.779h2.731v6.144h2.731V4.779h2.731v6.144h.683a2.048,2.048,0,0,1,2.048,2.048Zm0,5.461H0v-4.1c1.85,0,2-1.365,3.189-1.365s1.333,1.365,3.189,1.365c1.828,0,2.015-1.365,3.179-1.365,1.2,0,1.331,1.365,3.189,1.365s2-1.365,3.189-1.365c1.173,0,1.333,1.365,3.179,1.365ZM4.1,4.1A1.361,1.361,0,0,1,2.731,2.731C2.731,1.408,4.1,1.749,4.1,0c.512,0,1.365,1.259,1.365,2.389S4.853,4.1,4.1,4.1Zm5.461,0A1.361,1.361,0,0,1,8.192,2.731c0-1.323,1.365-.981,1.365-2.731.512,0,1.365,1.259,1.365,2.389S10.314,4.1,9.557,4.1Zm5.461,0a1.361,1.361,0,0,1-1.365-1.365c0-1.323,1.365-.981,1.365-2.731.512,0,1.365,1.259,1.365,2.389S15.776,4.1,15.018,4.1Z" transform="translate(30.34 581.268)" fill="#01ffff"/>
    </g>
    <g id="Group_165458" data-name="Group 165458" transform="translate(-108 549)">
      <g transform="matrix(1, 0, 0, 1, 108, -549)" filter="url(#Rectangle_148373)">
        <rect id="Rectangle_148373-2" data-name="Rectangle 148373" width="330" height="49" rx="24" transform="translate(49 1377)" fill="#01ffff"/>
      </g>
      <text id="TSLA-16" data-name="TSLA" transform="translate(280 859)" fill="#fff" font-size="18" font-family="Poppins-SemiBold, Poppins" font-weight="600"><tspan x="0" y="0">Continue</tspan></text>
    </g>
    <g id="Group_165621" data-name="Group 165621" transform="translate(-5.5)">
      <text id="TSLA-17" data-name="TSLA" transform="translate(65.66 815.982)" fill="#002d6a" font-size="18" font-family="Poppins-SemiBold, Poppins" font-weight="600"><tspan x="0" y="0">Occupation </tspan></text>
      <text id="TSLA-18" data-name="TSLA" transform="translate(27 845.096)" fill="#d1d2d9" font-size="15" font-family="Poppins-Light, Poppins" font-weight="300"><tspan x="0" y="0">What do you do?</tspan></text>
      <line id="Line_1117-3" data-name="Line 1117" x2="372" transform="translate(26.5 857.482)" fill="none" stroke="#707070" stroke-linecap="round" stroke-width="0.17"/>
      <path id="Union_306" data-name="Union 306" d="M8.708,23.648a2.033,2.033,0,0,1-1.989-2.069V19.51a6.126,6.126,0,0,1,4.978-6.1v3.714a2.593,2.593,0,0,0,.711,5.053,2.593,2.593,0,0,0,.71-5.053V13.353a4.7,4.7,0,0,1,1,.24,7.4,7.4,0,0,0,5.1,0c.1-.037.2-.056.293-.088v2.088a3.67,3.67,0,0,0-2.841,3.621v2.023a.729.729,0,0,0,.612.734l1.386.194a.362.362,0,0,0,.418-.291l.138-.725a.376.376,0,0,0-.28-.435l-.857-.18V19.3a2.135,2.135,0,1,1,4.263-.088v1.317l-.858.18a.366.366,0,0,0-.28.435l.138.725a.355.355,0,0,0,.418.292l1.43-.3a.734.734,0,0,0,.572-.725V19.214a3.667,3.667,0,0,0-2.841-3.621V13.33a6.1,6.1,0,0,1,5.684,6.18v2.069a2.032,2.032,0,0,1-1.989,2.069Zm2.629-4.064A1.067,1.067,0,1,1,12.4,20.693,1.085,1.085,0,0,1,11.336,19.584Zm18.833-.773c.233,0,.266,0,.268,0l-1.119-4.946,1.119-2.036h-2.9l2.825,0a3.433,3.433,0,0,1,3.36,3.494v1.747a1.716,1.716,0,0,1-1.68,1.747Zm-28.49,0A1.712,1.712,0,0,1,0,17.064V15.317a3.432,3.432,0,0,1,3.359-3.494h3.36a3.284,3.284,0,0,1,2.367,1.016,8.011,8.011,0,0,0-3.947,5.971Zm26.028-2.776a7.88,7.88,0,0,0-3.074-3.2A3.28,3.28,0,0,1,27,11.823h.081L28.2,13.861l-.491,2.174v0ZM10.982,5.912A5.8,5.8,0,0,1,16.666,0a5.8,5.8,0,0,1,5.684,5.912,5.8,5.8,0,0,1-5.684,5.912A5.8,5.8,0,0,1,10.982,5.912ZM3.238,9.479H1.428a.35.35,0,0,1-.3-.174.382.382,0,0,1-.015-.356,15.777,15.777,0,0,0,.927-2.184,5.5,5.5,0,0,0,.227-1.648V3.992L5.081,2.9l2.813,1.1V5.116a5.5,5.5,0,0,0,.228,1.648,15.712,15.712,0,0,0,.926,2.184.379.379,0,0,1-.014.356.35.35,0,0,1-.3.174H6.925a2.687,2.687,0,0,1-3.686,0Zm.086-2.2A1.794,1.794,0,0,0,5.081,9.113,1.794,1.794,0,0,0,6.84,7.284V6.553H3.324ZM4.2,4.533v.381a.113.113,0,0,0,.111.114h.476v.5a.112.112,0,0,0,.11.114h.366a.112.112,0,0,0,.11-.114v-.5h.476a.112.112,0,0,0,.11-.114V4.533a.112.112,0,0,0-.11-.114H5.375v-.5a.112.112,0,0,0-.11-.114H4.9a.111.111,0,0,0-.11.114v.5H4.313A.113.113,0,0,0,4.2,4.533ZM25.322,6.583a3.362,3.362,0,1,1,6.719,0,3.362,3.362,0,1,1-6.719,0Z" transform="translate(27 796.982)" fill="#01ffff"/>
    </g>
    <g id="Group_165532" data-name="Group 165532" transform="translate(-5.16 351.971)">
      <text id="TSLA-19" data-name="TSLA" transform="translate(57.66 564.506)" fill="#002d6a" font-size="18" font-family="Poppins-SemiBold, Poppins" font-weight="600"><tspan x="0" y="0">ID Type</tspan></text>
      <text id="TSLA-20" data-name="TSLA" transform="translate(26.66 594)" fill="#d1d2d9" font-size="15" font-family="Poppins-Light, Poppins" font-weight="300"><tspan x="0" y="0">Type to search or select any of the following</tspan></text>
      <line id="Line_1117-4" data-name="Line 1117" x2="372" transform="translate(26.16 606.494)" fill="none" stroke="#707070" stroke-linecap="round" stroke-width="0.17"/>
      <path id="Icon_awesome-long-arrow-alt-up-3" data-name="Icon awesome-long-arrow-alt-up" d="M6.188,24.324c.061.029,5.791-.1,5.625,0h3.239A1.688,1.688,0,0,1,16.245,27.2l-6.051,6.051a1.688,1.688,0,0,1-2.387,0L1.756,27.2a1.688,1.688,0,0,1,1.193-2.881Z" transform="translate(371.69 559.713)" fill="#d1d2d9"/>
      <path id="Icon_awesome-id-card" data-name="Icon awesome-id-card" d="M23.894,2.25H2.172A2.173,2.173,0,0,0,0,4.422v.724H26.066V4.422A2.173,2.173,0,0,0,23.894,2.25ZM0,20.351a2.173,2.173,0,0,0,2.172,2.172H23.894a2.173,2.173,0,0,0,2.172-2.172V6.594H0Zm15.929-10.5a.363.363,0,0,1,.362-.362h6.516a.363.363,0,0,1,.362.362v.724a.363.363,0,0,1-.362.362H16.291a.363.363,0,0,1-.362-.362Zm0,2.9a.363.363,0,0,1,.362-.362h6.516a.363.363,0,0,1,.362.362v.724a.363.363,0,0,1-.362.362H16.291a.363.363,0,0,1-.362-.362Zm0,2.9a.363.363,0,0,1,.362-.362h6.516a.363.363,0,0,1,.362.362v.724a.363.363,0,0,1-.362.362H16.291a.363.363,0,0,1-.362-.362ZM7.965,9.49a2.9,2.9,0,1,1-2.9,2.9A2.9,2.9,0,0,1,7.965,9.49ZM3.036,18.731a2.9,2.9,0,0,1,2.756-2h.371a4.661,4.661,0,0,0,3.6,0h.371a2.9,2.9,0,0,1,2.756,2,.713.713,0,0,1-.706.9H3.742A.714.714,0,0,1,3.036,18.731Z" transform="translate(26.303 545.619)" fill="#01ffff"/>
    </g>
    <g id="Group_165533" data-name="Group 165533" transform="translate(-5.16 452.955)">
      <text id="TSLA-21" data-name="TSLA" transform="translate(57.66 564.506)" fill="#002d6a" font-size="18" font-family="Poppins-SemiBold, Poppins" font-weight="600"><tspan x="0" y="0">ID Number</tspan></text>
      <text id="TSLA-22" data-name="TSLA" transform="translate(26.66 594)" fill="#d1d2d9" font-size="15" font-family="Poppins-Light, Poppins" font-weight="300"><tspan x="0" y="0">Enter ID number</tspan></text>
      <line id="Line_1117-5" data-name="Line 1117" x2="372" transform="translate(26.16 606.494)" fill="none" stroke="#707070" stroke-linecap="round" stroke-width="0.17"/>
      <path id="Icon_awesome-id-card-2" data-name="Icon awesome-id-card" d="M23.894,2.25H2.172A2.173,2.173,0,0,0,0,4.422v.724H26.066V4.422A2.173,2.173,0,0,0,23.894,2.25ZM0,20.351a2.173,2.173,0,0,0,2.172,2.172H23.894a2.173,2.173,0,0,0,2.172-2.172V6.594H0Zm15.929-10.5a.363.363,0,0,1,.362-.362h6.516a.363.363,0,0,1,.362.362v.724a.363.363,0,0,1-.362.362H16.291a.363.363,0,0,1-.362-.362Zm0,2.9a.363.363,0,0,1,.362-.362h6.516a.363.363,0,0,1,.362.362v.724a.363.363,0,0,1-.362.362H16.291a.363.363,0,0,1-.362-.362Zm0,2.9a.363.363,0,0,1,.362-.362h6.516a.363.363,0,0,1,.362.362v.724a.363.363,0,0,1-.362.362H16.291a.363.363,0,0,1-.362-.362ZM7.965,9.49a2.9,2.9,0,1,1-2.9,2.9A2.9,2.9,0,0,1,7.965,9.49ZM3.036,18.731a2.9,2.9,0,0,1,2.756-2h.371a4.661,4.661,0,0,0,3.6,0h.371a2.9,2.9,0,0,1,2.756,2,.713.713,0,0,1-.706.9H3.742A.714.714,0,0,1,3.036,18.731Z" transform="translate(26.303 545.619)" fill="#01ffff"/>
    </g>
    <g transform="matrix(1, 0, 0, 1, 0, 0)" filter="url(#Heading_Container-2)">
      <g id="Heading_Container-4" data-name="Heading Container" transform="translate(0 -1)" fill="#fff" stroke="rgba(199,199,199,0.16)" stroke-width="1">
        <path d="M0,0H428a0,0,0,0,1,0,0V74a14,14,0,0,1-14,14H14A14,14,0,0,1,0,74V0A0,0,0,0,1,0,0Z" stroke="none"/>
        <path d="M.5.5h427a0,0,0,0,1,0,0V74A13.5,13.5,0,0,1,414,87.5H14A13.5,13.5,0,0,1,.5,74V.5A0,0,0,0,1,.5.5Z" fill="none"/>
      </g>
    </g>
    <g id="Stautus_Bar" data-name="Stautus Bar" transform="translate(7 10)">
      <g id="Pin-Right" transform="translate(354.729 0.5)">
        <path id="Battery" d="M37.494,2.5H57.006A1.5,1.5,0,0,1,58.5,4.005v6.489A1.5,1.5,0,0,1,57.006,12H37.494A1.5,1.5,0,0,1,36,10.495V4.005A1.5,1.5,0,0,1,37.494,2.5ZM59,5.5h.75a.744.744,0,0,1,.75.742V8.258A.748.748,0,0,1,59.75,9H59ZM37.508,3A1.012,1.012,0,0,0,36.5,4.008v6.483A1.007,1.007,0,0,0,37.508,11.5H56.992A1.012,1.012,0,0,0,58,10.492V4.008A1.007,1.007,0,0,0,56.992,3Zm0,.5H56.993a.5.5,0,0,1,.507.492v6.516a.5.5,0,0,1-.507.492H37.507A.5.5,0,0,1,37,10.508V3.992A.5.5,0,0,1,37.507,3.5Z" transform="translate(-2.854 1.5)" fill-rule="evenodd"/>
        <text id="_100_" data-name="100%" transform="translate(0 13)" font-size="12" font-family="Poppins-Regular, Poppins"><tspan x="0" y="0">100%</tspan></text>
      </g>
      <text id="_9:41_AM" data-name="9:41 AM" transform="translate(182.123 13)" font-size="12" font-family="Poppins-Regular, Poppins"><tspan x="0" y="0">9:41 AM</tspan></text>
      <g id="Signal" transform="translate(0 0.5)">
        <path id="Wi-Fi" d="M96.144,12.439,94.023,14.5,91.86,12.405a2.884,2.884,0,0,1,4.284.033Zm2.179-2.117h0l-1.089,1.058a4.46,4.46,0,0,0-6.465-.031l-1.09-1.056a6.036,6.036,0,0,1,8.644.029ZM100.5,8.207,99.412,9.264A7.612,7.612,0,0,0,88.59,9.237L87.5,8.182a9.188,9.188,0,0,1,13,.025Z" transform="translate(-6.5 -1.5)" fill-rule="evenodd"/>
        <text id="Sketch" transform="translate(37.5 13)" font-size="12" font-family="Poppins-Regular, Poppins"><tspan x="0" y="0">Sunny</tspan></text>
        <path id="Mobile-Signal" d="M9.25,13A2.75,2.75,0,1,1,12,10.25,2.75,2.75,0,0,1,9.25,13Zm7,0A2.75,2.75,0,1,1,19,10.25,2.75,2.75,0,0,1,16.25,13Zm7,0A2.75,2.75,0,1,1,26,10.25,2.75,2.75,0,0,1,23.25,13Zm7,0A2.75,2.75,0,1,1,33,10.25,2.75,2.75,0,0,1,30.25,13Zm7,0A2.75,2.75,0,1,1,40,10.25,2.75,2.75,0,0,1,37.25,13Z" transform="translate(-6.5 -1.5)" fill-rule="evenodd"/>
      </g>
    </g>
    <g id="Group_165447" data-name="Group 165447" transform="translate(-37 -250)">
      <rect id="Rectangle_31" data-name="Rectangle 31" width="201" height="41" rx="20.5" transform="translate(151 285)" fill="#01ffff"/>
      <text id="CAC_Registration_" data-name="CAC Registration " transform="translate(173 312)" fill="#002d6a" font-size="18" font-family="Poppins-Regular, Poppins"><tspan x="0" y="0">CAC Registration </tspan></text>
    </g>
    <path id="Icon_ionic-ios-arrow-down" data-name="Icon ionic-ios-arrow-down" d="M15.006,18.288l6.666-6.672a1.255,1.255,0,0,1,1.779,0,1.271,1.271,0,0,1,0,1.785L15.9,20.96A1.258,1.258,0,0,1,14.161,21l-7.606-7.59a1.26,1.26,0,0,1,1.779-1.785Z" transform="translate(31.327 36.813) rotate(90)" fill="#002d6a" opacity="0.8"/>
    <g id="Group_165630" data-name="Group 165630" transform="translate(-6.001 663.449)">
      <text id="TSLA-23" data-name="TSLA" transform="translate(59.08 454.995)" fill="#002d6a" font-size="18" font-family="Poppins-SemiBold, Poppins" font-weight="600"><tspan x="0" y="0">Upload Copy of Means of Identification </tspan></text>
      <g id="Icon_feather-upload" data-name="Icon feather-upload" transform="translate(23.5 435.211)">
        <path id="Path_85154" data-name="Path 85154" d="M22.068,22.5v3.9a1.952,1.952,0,0,1-1.952,1.952H6.452A1.952,1.952,0,0,1,4.5,26.4V22.5" transform="translate(0 -6.288)" fill="none" stroke="#01ffff" stroke-linecap="round" stroke-linejoin="round" stroke-width="3"/>
        <path id="Path_85155" data-name="Path 85155" d="M20.26,9.38,15.38,4.5,10.5,9.38" transform="translate(-2.096)" fill="none" stroke="#01ffff" stroke-linecap="round" stroke-linejoin="round" stroke-width="3"/>
        <path id="Path_85156" data-name="Path 85156" d="M18,4.5V16.212" transform="translate(-4.716)" fill="none" stroke="#01ffff" stroke-linecap="round" stroke-linejoin="round" stroke-width="3"/>
      </g>
      <g id="Rectangle_149054" data-name="Rectangle 149054" transform="translate(27 468)" fill="none" stroke="#d1d2d9" stroke-width="1" stroke-dasharray="14">
        <rect width="373" height="67" rx="10" stroke="none"/>
        <rect x="0.5" y="0.5" width="372" height="66" rx="9.5" fill="none"/>
      </g>
      <g id="Group_165486" data-name="Group 165486" transform="translate(21.951)">
        <text id="TSLA-24" data-name="TSLA" transform="translate(128 507.001)" fill="#d1d2d9" font-size="15" font-family="Poppins-Light, Poppins" font-weight="300"><tspan x="0" y="0">Upload image or PDF</tspan></text>
        <g id="Icon_ionic-ios-add-circle-outline" data-name="Icon ionic-ios-add-circle-outline" transform="translate(95.675 487.626)">
          <path id="Path_85159" data-name="Path 85159" d="M20.453,15.079h-3.76v-3.76a.807.807,0,1,0-1.615,0v3.76h-3.76a.773.773,0,0,0-.807.807.782.782,0,0,0,.807.807h3.76v3.76a.782.782,0,0,0,.807.807.8.8,0,0,0,.807-.807v-3.76h3.76a.807.807,0,0,0,0-1.615Z" transform="translate(-2.015 -2.015)" fill="#01ffff"/>
          <path id="Path_85160" data-name="Path 85160" d="M13.872,4.788A9.08,9.08,0,1,1,7.447,7.447a9.023,9.023,0,0,1,6.424-2.659m0-1.413a10.5,10.5,0,1,0,10.5,10.5,10.495,10.495,0,0,0-10.5-10.5Z" fill="#002d6a"/>
        </g>
      </g>
    </g>
    <g id="Group_165637" data-name="Group 165637" transform="translate(-6.001 802.447)">
      <text id="TSLA-25" data-name="TSLA" transform="translate(59.08 454.995)" fill="#002d6a" font-size="18" font-family="Poppins-SemiBold, Poppins" font-weight="600"><tspan x="0" y="0">Upload Signature specimen</tspan></text>
      <g id="Icon_feather-upload-2" data-name="Icon feather-upload" transform="translate(23.5 435.211)">
        <path id="Path_85154-2" data-name="Path 85154" d="M22.068,22.5v3.9a1.952,1.952,0,0,1-1.952,1.952H6.452A1.952,1.952,0,0,1,4.5,26.4V22.5" transform="translate(0 -6.288)" fill="none" stroke="#01ffff" stroke-linecap="round" stroke-linejoin="round" stroke-width="3"/>
        <path id="Path_85155-2" data-name="Path 85155" d="M20.26,9.38,15.38,4.5,10.5,9.38" transform="translate(-2.096)" fill="none" stroke="#01ffff" stroke-linecap="round" stroke-linejoin="round" stroke-width="3"/>
        <path id="Path_85156-2" data-name="Path 85156" d="M18,4.5V16.212" transform="translate(-4.716)" fill="none" stroke="#01ffff" stroke-linecap="round" stroke-linejoin="round" stroke-width="3"/>
      </g>
      <g id="Rectangle_149054-2" data-name="Rectangle 149054" transform="translate(27 468)" fill="none" stroke="#d1d2d9" stroke-width="1" stroke-dasharray="14">
        <rect width="373" height="67" rx="10" stroke="none"/>
        <rect x="0.5" y="0.5" width="372" height="66" rx="9.5" fill="none"/>
      </g>
      <g id="Group_165486-2" data-name="Group 165486" transform="translate(21.951)">
        <text id="TSLA-26" data-name="TSLA" transform="translate(128 507.001)" fill="#d1d2d9" font-size="15" font-family="Poppins-Light, Poppins" font-weight="300"><tspan x="0" y="0">Upload image or PDF</tspan></text>
        <g id="Icon_ionic-ios-add-circle-outline-2" data-name="Icon ionic-ios-add-circle-outline" transform="translate(95.675 487.626)">
          <path id="Path_85159-2" data-name="Path 85159" d="M20.453,15.079h-3.76v-3.76a.807.807,0,1,0-1.615,0v3.76h-3.76a.773.773,0,0,0-.807.807.782.782,0,0,0,.807.807h3.76v3.76a.782.782,0,0,0,.807.807.8.8,0,0,0,.807-.807v-3.76h3.76a.807.807,0,0,0,0-1.615Z" transform="translate(-2.015 -2.015)" fill="#01ffff"/>
          <path id="Path_85160-2" data-name="Path 85160" d="M13.872,4.788A9.08,9.08,0,1,1,7.447,7.447a9.023,9.023,0,0,1,6.424-2.659m0-1.413a10.5,10.5,0,1,0,10.5,10.5,10.495,10.495,0,0,0-10.5-10.5Z" fill="#002d6a"/>
        </g>
      </g>
    </g>
  </g>
</svg>
