<svg xmlns="http://www.w3.org/2000/svg" xmlns:xlink="http://www.w3.org/1999/xlink" width="428" height="926" viewBox="0 0 428 926">
  <defs>
    <filter id="Heading_Container" x="-15" y="-14" width="458" height="516" filterUnits="userSpaceOnUse">
      <feOffset dy="1" input="SourceAlpha"/>
      <feGaussianBlur stdDeviation="5" result="blur"/>
      <feFlood flood-color="#c7c7c7" flood-opacity="0.161"/>
      <feComposite operator="in" in2="blur"/>
      <feComposite in="SourceGraphic"/>
    </filter>
    <filter id="Rectangle_148373" x="40" y="826" width="348" height="67" filterUnits="userSpaceOnUse">
      <feOffset dy="8" input="SourceAlpha"/>
      <feGaussianBlur stdDeviation="3" result="blur-2"/>
      <feFlood flood-color="#d5ffe0" flood-opacity="0.161"/>
      <feComposite operator="in" in2="blur-2"/>
      <feComposite in="SourceGraphic"/>
    </filter>
    <filter id="Heading_Container-2" x="-15" y="-15" width="458" height="118" filterUnits="userSpaceOnUse">
      <feOffset dy="1" input="SourceAlpha"/>
      <feGaussianBlur stdDeviation="5" result="blur-3"/>
      <feFlood flood-color="#c7c7c7" flood-opacity="0.161"/>
      <feComposite operator="in" in2="blur-3"/>
      <feComposite in="SourceGraphic"/>
    </filter>
    <clipPath id="clip-_24_CAC_Registration_Personal_Address_Screen_">
      <rect width="428" height="926"/>
    </clipPath>
  </defs>
  <g id="_24_CAC_Registration_Personal_Address_Screen_" data-name="24 CAC Registration Personal Address Screen " clip-path="url(#clip-_24_CAC_Registration_Personal_Address_Screen_)">
    <rect width="428" height="926" fill="#fff"/>
    <g transform="matrix(1, 0, 0, 1, 0, 0)" filter="url(#Heading_Container)">
      <rect id="Heading_Container-3" data-name="Heading Container" width="428" height="486" fill="#002d6a"/>
    </g>
    <path id="Rectangle_148366" data-name="Rectangle 148366" d="M25,0H403a25,25,0,0,1,25,25V694a0,0,0,0,1,0,0H0a0,0,0,0,1,0,0V25A25,25,0,0,1,25,0Z" transform="translate(0 232)" fill="#fff"/>
    <g id="Group_165448" data-name="Group 165448" transform="translate(4.661 6.006)">
      <text id="TSLA" transform="translate(61 278)" fill="#002d6a" font-size="18" font-family="Poppins-SemiBold, Poppins" font-weight="600"><tspan x="0" y="0">House Address</tspan></text>
      <text id="TSLA-2" data-name="TSLA" transform="translate(22 307.113)" fill="#d1d2d9" font-size="15" font-family="Poppins-Light, Poppins" font-weight="300"><tspan x="0" y="0">Enter the name of your street and number</tspan></text>
      <line id="Line_1117" data-name="Line 1117" x2="372" transform="translate(21.5 319.5)" fill="none" stroke="#707070" stroke-linecap="round" stroke-width="0.17"/>
      <path id="Icon_awesome-street-view" data-name="Icon awesome-street-view" d="M17.845,15.995a3.1,3.1,0,0,1-.771.662v1.113c3.226.453,5.432,1.361,5.432,2.408,0,1.5-4.517,2.716-10.089,2.716S2.328,21.678,2.328,20.178c0-1.048,2.206-1.955,5.432-2.408V16.657a3.1,3.1,0,0,1-.771-.662C2.855,16.75,0,18.337,0,20.178c0,2.572,5.56,4.656,12.417,4.656s12.417-2.085,12.417-4.656C24.834,18.337,21.979,16.75,17.845,15.995ZM12.417,6.208a3.1,3.1,0,1,0-3.1-3.1A3.1,3.1,0,0,0,12.417,6.208Zm-3.1,9.313v4.656a1.552,1.552,0,0,0,1.552,1.552h3.1a1.552,1.552,0,0,0,1.552-1.552V15.521a1.552,1.552,0,0,0,1.552-1.552V9.313a2.328,2.328,0,0,0-2.328-2.328h-.572a4.167,4.167,0,0,1-3.512,0h-.572A2.328,2.328,0,0,0,7.761,9.313v4.656A1.552,1.552,0,0,0,9.313,15.521Z" transform="translate(21.5 259.166)" fill="#01ffff"/>
    </g>
    <g id="Group_165449" data-name="Group 165449" transform="translate(8.339 17.747)">
      <text id="TSLA-3" data-name="TSLA" transform="translate(61 373)" fill="#002d6a" font-size="18" font-family="Poppins-SemiBold, Poppins" font-weight="600"><tspan x="0" y="0">Nearest Bus Stop/Landmark</tspan></text>
      <text id="TSLA-4" data-name="TSLA" transform="translate(22 402.113)" fill="#d1d2d9" font-size="15" font-family="Poppins-Light, Poppins" font-weight="300"><tspan x="0" y="0">Enter the nearest bus stop or landmark</tspan></text>
      <line id="Line_1118" data-name="Line 1118" x2="372" transform="translate(21.5 414.5)" fill="none" stroke="#707070" stroke-linecap="round" stroke-width="0.17"/>
      <path id="Icon_awesome-route" data-name="Icon awesome-route" d="M22.581,17.37H17.37a1.737,1.737,0,1,1,0-3.474h5.211s5.211-5.808,5.211-8.685a5.211,5.211,0,0,0-10.422,0c0,1.384,1.205,3.441,2.459,5.211H17.37a5.211,5.211,0,0,0,0,10.422h5.211a1.737,1.737,0,1,1,0,3.474H10.069A37.476,37.476,0,0,1,7.5,27.792h15.08a5.211,5.211,0,1,0,0-10.422Zm0-13.9a1.737,1.737,0,1,1-1.737,1.737A1.735,1.735,0,0,1,22.581,3.474ZM5.211,13.9A5.212,5.212,0,0,0,0,19.107c0,2.877,5.211,8.685,5.211,8.685s5.211-5.808,5.211-8.685A5.212,5.212,0,0,0,5.211,13.9Zm0,6.948a1.737,1.737,0,1,1,1.737-1.737A1.735,1.735,0,0,1,5.211,20.844Z" transform="translate(17.82 347.765)" fill="#01ffff"/>
    </g>
    <g id="Group_165452" data-name="Group 165452" transform="translate(0 26.741)">
      <text id="TSLA-5" data-name="TSLA" transform="translate(48.66 564.994)" fill="#002d6a" font-size="18" font-family="Poppins-SemiBold, Poppins" font-weight="600"><tspan x="0" y="0">LGA</tspan></text>
      <text id="TSLA-6" data-name="TSLA" transform="translate(26.66 594)" fill="#d1d2d9" font-size="15" font-family="Poppins-Light, Poppins" font-weight="300"><tspan x="0" y="0">Type to search or select any of the following</tspan></text>
      <line id="Line_1117-2" data-name="Line 1117" x2="372" transform="translate(26.16 606.494)" fill="none" stroke="#707070" stroke-linecap="round" stroke-width="0.17"/>
      <path id="Icon_awesome-long-arrow-alt-up" data-name="Icon awesome-long-arrow-alt-up" d="M6.188,24.324c.061.029,5.791-.1,5.625,0h3.239A1.688,1.688,0,0,1,16.245,27.2l-6.051,6.051a1.688,1.688,0,0,1-2.387,0L1.756,27.2a1.688,1.688,0,0,1,1.193-2.881Z" transform="translate(371.69 559.713)" fill="#d1d2d9"/>
      <path id="Icon_metro-location" data-name="Icon metro-location" d="M14.964,1.928A6.609,6.609,0,0,0,8.355,8.537c0,6.609,6.609,14.54,6.609,14.54s6.609-7.931,6.609-14.54a6.609,6.609,0,0,0-6.609-6.609Zm0,10.657a4.048,4.048,0,1,1,4.048-4.048A4.048,4.048,0,0,1,14.964,12.585ZM12.4,8.537A2.561,2.561,0,1,1,14.964,11.1,2.561,2.561,0,0,1,12.4,8.537Z" transform="translate(18.306 547.43)" fill="#01ffff"/>
    </g>
    <g id="Group_165531" data-name="Group 165531" transform="translate(0 127.724)">
      <text id="TSLA-7" data-name="TSLA" transform="translate(57.66 564.506)" fill="#002d6a" font-size="18" font-family="Poppins-SemiBold, Poppins" font-weight="600"><tspan x="0" y="0">City</tspan></text>
      <text id="TSLA-8" data-name="TSLA" transform="translate(26.66 594)" fill="#d1d2d9" font-size="15" font-family="Poppins-Light, Poppins" font-weight="300"><tspan x="0" y="0">Type to search or select any of the following</tspan></text>
      <line id="Line_1117-3" data-name="Line 1117" x2="372" transform="translate(26.16 606.494)" fill="none" stroke="#707070" stroke-linecap="round" stroke-width="0.17"/>
      <path id="Icon_awesome-long-arrow-alt-up-2" data-name="Icon awesome-long-arrow-alt-up" d="M6.188,24.324c.061.029,5.791-.1,5.625,0h3.239A1.688,1.688,0,0,1,16.245,27.2l-6.051,6.051a1.688,1.688,0,0,1-2.387,0L1.756,27.2a1.688,1.688,0,0,1,1.193-2.881Z" transform="translate(371.69 559.713)" fill="#d1d2d9"/>
      <path id="Icon_awesome-city" data-name="Icon awesome-city" d="M24.744,7.712H19.281V.964A.964.964,0,0,0,18.317,0H12.533a.964.964,0,0,0-.964.964V3.856H9V.643A.643.643,0,0,0,8.355,0H7.712A.643.643,0,0,0,7.07.643V3.856H4.5V.643A.643.643,0,0,0,3.856,0H3.214a.643.643,0,0,0-.643.643V3.856H.964A.964.964,0,0,0,0,4.82V19.281a1.286,1.286,0,0,0,1.285,1.285H24.423a1.286,1.286,0,0,0,1.285-1.285V8.676A.964.964,0,0,0,24.744,7.712Zm-19.6,8.516a.482.482,0,0,1-.482.482H3.053a.482.482,0,0,1-.482-.482V14.621a.482.482,0,0,1,.482-.482H4.66a.482.482,0,0,1,.482.482Zm0-3.856a.482.482,0,0,1-.482.482H3.053a.482.482,0,0,1-.482-.482V10.765a.482.482,0,0,1,.482-.482H4.66a.482.482,0,0,1,.482.482Zm0-3.856A.482.482,0,0,1,4.66,9H3.053a.482.482,0,0,1-.482-.482V6.909a.482.482,0,0,1,.482-.482H4.66a.482.482,0,0,1,.482.482Zm5.142,7.712a.482.482,0,0,1-.482.482H8.194a.482.482,0,0,1-.482-.482V14.621a.482.482,0,0,1,.482-.482H9.8a.482.482,0,0,1,.482.482Zm0-3.856a.482.482,0,0,1-.482.482H8.194a.482.482,0,0,1-.482-.482V10.765a.482.482,0,0,1,.482-.482H9.8a.482.482,0,0,1,.482.482Zm0-3.856A.482.482,0,0,1,9.8,9H8.194a.482.482,0,0,1-.482-.482V6.909a.482.482,0,0,1,.482-.482H9.8a.482.482,0,0,1,.482.482Zm6.427,3.856a.482.482,0,0,1-.482.482H14.621a.482.482,0,0,1-.482-.482V10.765a.482.482,0,0,1,.482-.482h1.607a.482.482,0,0,1,.482.482Zm0-3.856A.482.482,0,0,1,16.228,9H14.621a.482.482,0,0,1-.482-.482V6.909a.482.482,0,0,1,.482-.482h1.607a.482.482,0,0,1,.482.482Zm0-3.856a.482.482,0,0,1-.482.482H14.621a.482.482,0,0,1-.482-.482V3.053a.482.482,0,0,1,.482-.482h1.607a.482.482,0,0,1,.482.482Zm6.427,11.569a.482.482,0,0,1-.482.482H21.048a.482.482,0,0,1-.482-.482V14.621a.482.482,0,0,1,.482-.482h1.607a.482.482,0,0,1,.482.482Zm0-3.856a.482.482,0,0,1-.482.482H21.048a.482.482,0,0,1-.482-.482V10.765a.482.482,0,0,1,.482-.482h1.607a.482.482,0,0,1,.482.482Z" transform="translate(26.66 547.723)" fill="#01ffff"/>
    </g>
    <g id="Group_165454" data-name="Group 165454" transform="translate(0 -73.753)">
      <text id="TSLA-9" data-name="TSLA" transform="translate(49.66 564.994)" fill="#002d6a" font-size="18" font-family="Poppins-SemiBold, Poppins" font-weight="600"><tspan x="0" y="0">State</tspan></text>
      <text id="TSLA-10" data-name="TSLA" transform="translate(26 594)" fill="#d1d2d9" font-size="15" font-family="Poppins-Light, Poppins" font-weight="300"><tspan x="0" y="0">Type to search or select any of the following</tspan></text>
      <line id="Line_1117-4" data-name="Line 1117" x2="372" transform="translate(26.5 606.494)" fill="none" stroke="#707070" stroke-linecap="round" stroke-width="0.17"/>
      <path id="Icon_awesome-long-arrow-alt-up-3" data-name="Icon awesome-long-arrow-alt-up" d="M6.188,24.324c.061.029,5.791-.1,5.625,0h3.239A1.688,1.688,0,0,1,16.245,27.2l-6.051,6.051a1.688,1.688,0,0,1-2.387,0L1.756,27.2a1.688,1.688,0,0,1,1.193-2.881Z" transform="translate(371.69 559.713)" fill="#d1d2d9"/>
      <path id="Icon_metro-location-2" data-name="Icon metro-location" d="M14.964,1.928A6.609,6.609,0,0,0,8.355,8.537c0,6.609,6.609,14.54,6.609,14.54s6.609-7.931,6.609-14.54a6.609,6.609,0,0,0-6.609-6.609Zm0,10.657a4.048,4.048,0,1,1,4.048-4.048A4.048,4.048,0,0,1,14.964,12.585ZM12.4,8.537A2.561,2.561,0,1,1,14.964,11.1,2.561,2.561,0,0,1,12.4,8.537Z" transform="translate(18.146 545.992)" fill="#01ffff"/>
    </g>
    <text id="Heading_Text" data-name="Heading Text" transform="translate(19.088 129.5)" fill="#fff" font-size="18" font-family="Poppins-SemiBold, Poppins" font-weight="600"><tspan x="0" y="0">Use your current house address</tspan></text>
    <text id="Body_Text" data-name="Body Text" transform="translate(21.08 162)" fill="#fff" font-size="15" font-family="Poppins-Regular, Poppins"><tspan x="0" y="0">Please be aware that CAC registration will require</tspan><tspan x="0" y="25">additional charges.</tspan></text>
    <g id="Icon_material-bubble-chart" data-name="Icon material-bubble-chart" transform="translate(365.833 93.753)">
      <path id="Path_83893" data-name="Path 83893" d="M21.064,20.5A8.365,8.365,0,1,1,12.7,12.133,8.365,8.365,0,0,1,21.064,20.5Z" transform="translate(0 11.022)" fill="#f2f6f7"/>
      <path id="Path_83894" data-name="Path 83894" d="M24.323,22.562A5.228,5.228,0,1,1,19.1,17.333a5.228,5.228,0,0,1,5.228,5.228Z" transform="translate(13.471 18.37)" fill="#f2f6f7"/>
      <path id="Path_83895" data-name="Path 83895" d="M36.363,16.881A12.548,12.548,0,1,1,23.815,4.333,12.548,12.548,0,0,1,36.363,16.881Z" transform="translate(9.797)" fill="#f2f6f7"/>
    </g>
    <g id="Group_165458" data-name="Group 165458" transform="translate(-108 -1)">
      <g transform="matrix(1, 0, 0, 1, 108, 1)" filter="url(#Rectangle_148373)">
        <rect id="Rectangle_148373-2" data-name="Rectangle 148373" width="330" height="49" rx="24" transform="translate(49 827)" fill="#01ffff"/>
      </g>
      <text id="TSLA-11" data-name="TSLA" transform="translate(280 859)" fill="#fff" font-size="18" font-family="Poppins-SemiBold, Poppins" font-weight="600"><tspan x="0" y="0">Continue</tspan></text>
    </g>
    <g transform="matrix(1, 0, 0, 1, 0, 0)" filter="url(#Heading_Container-2)">
      <g id="Heading_Container-4" data-name="Heading Container" transform="translate(0 -1)" fill="#fff" stroke="rgba(199,199,199,0.16)" stroke-width="1">
        <path d="M0,0H428a0,0,0,0,1,0,0V74a14,14,0,0,1-14,14H14A14,14,0,0,1,0,74V0A0,0,0,0,1,0,0Z" stroke="none"/>
        <path d="M.5.5h427a0,0,0,0,1,0,0V74A13.5,13.5,0,0,1,414,87.5H14A13.5,13.5,0,0,1,.5,74V.5A0,0,0,0,1,.5.5Z" fill="none"/>
      </g>
    </g>
    <g id="Stautus_Bar" data-name="Stautus Bar" transform="translate(7 10)">
      <g id="Pin-Right" transform="translate(354.729 0.5)">
        <path id="Battery" d="M37.494,2.5H57.006A1.5,1.5,0,0,1,58.5,4.005v6.489A1.5,1.5,0,0,1,57.006,12H37.494A1.5,1.5,0,0,1,36,10.495V4.005A1.5,1.5,0,0,1,37.494,2.5ZM59,5.5h.75a.744.744,0,0,1,.75.742V8.258A.748.748,0,0,1,59.75,9H59ZM37.508,3A1.012,1.012,0,0,0,36.5,4.008v6.483A1.007,1.007,0,0,0,37.508,11.5H56.992A1.012,1.012,0,0,0,58,10.492V4.008A1.007,1.007,0,0,0,56.992,3Zm0,.5H56.993a.5.5,0,0,1,.507.492v6.516a.5.5,0,0,1-.507.492H37.507A.5.5,0,0,1,37,10.508V3.992A.5.5,0,0,1,37.507,3.5Z" transform="translate(-2.854 1.5)" fill-rule="evenodd"/>
        <text id="_100_" data-name="100%" transform="translate(0 13)" font-size="12" font-family="Poppins-Regular, Poppins"><tspan x="0" y="0">100%</tspan></text>
      </g>
      <text id="_9:41_AM" data-name="9:41 AM" transform="translate(182.123 13)" font-size="12" font-family="Poppins-Regular, Poppins"><tspan x="0" y="0">9:41 AM</tspan></text>
      <g id="Signal" transform="translate(0 0.5)">
        <path id="Wi-Fi" d="M96.144,12.439,94.023,14.5,91.86,12.405a2.884,2.884,0,0,1,4.284.033Zm2.179-2.117h0l-1.089,1.058a4.46,4.46,0,0,0-6.465-.031l-1.09-1.056a6.036,6.036,0,0,1,8.644.029ZM100.5,8.207,99.412,9.264A7.612,7.612,0,0,0,88.59,9.237L87.5,8.182a9.188,9.188,0,0,1,13,.025Z" transform="translate(-6.5 -1.5)" fill-rule="evenodd"/>
        <text id="Sketch" transform="translate(37.5 13)" font-size="12" font-family="Poppins-Regular, Poppins"><tspan x="0" y="0">Sunny</tspan></text>
        <path id="Mobile-Signal" d="M9.25,13A2.75,2.75,0,1,1,12,10.25,2.75,2.75,0,0,1,9.25,13Zm7,0A2.75,2.75,0,1,1,19,10.25,2.75,2.75,0,0,1,16.25,13Zm7,0A2.75,2.75,0,1,1,26,10.25,2.75,2.75,0,0,1,23.25,13Zm7,0A2.75,2.75,0,1,1,33,10.25,2.75,2.75,0,0,1,30.25,13Zm7,0A2.75,2.75,0,1,1,40,10.25,2.75,2.75,0,0,1,37.25,13Z" transform="translate(-6.5 -1.5)" fill-rule="evenodd"/>
      </g>
    </g>
    <g id="Group_165447" data-name="Group 165447" transform="translate(-39 -250)">
      <rect id="Rectangle_31" data-name="Rectangle 31" width="204" height="41" rx="20.5" transform="translate(151 285)" fill="#01ffff"/>
      <text id="Personal_Address_" data-name="Personal Address " transform="translate(173 312)" fill="#002d6a" font-size="18" font-family="Poppins-Regular, Poppins"><tspan x="0" y="0">Personal Address </tspan></text>
    </g>
    <path id="Icon_ionic-ios-arrow-down" data-name="Icon ionic-ios-arrow-down" d="M15.006,18.288l6.666-6.672a1.255,1.255,0,0,1,1.779,0,1.271,1.271,0,0,1,0,1.785L15.9,20.96A1.258,1.258,0,0,1,14.161,21l-7.606-7.59a1.26,1.26,0,0,1,1.779-1.785Z" transform="translate(31.327 36.813) rotate(90)" fill="#002d6a" opacity="0.8"/>
    <text id="_" data-name="
    
  
  " transform="translate(191 156)" fill="#002e6b" font-size="15" font-family="Poppins-Regular, Poppins"><tspan x="0" y="0"></tspan><tspan x="0" y="17" xml:space="preserve">    </tspan><tspan x="0" y="34" xml:space="preserve">  </tspan><tspan x="0" y="51" xml:space="preserve">  </tspan></text>
  </g>
</svg>
