<svg xmlns="http://www.w3.org/2000/svg" xmlns:xlink="http://www.w3.org/1999/xlink" width="428" height="926" viewBox="0 0 428 926">
  <defs>
    <filter id="Rectangle_149080" x="27" y="215" width="374" height="62" filterUnits="userSpaceOnUse">
      <feOffset dy="3" input="SourceAlpha"/>
      <feGaussianBlur stdDeviation="3" result="blur"/>
      <feFlood flood-opacity="0.161"/>
      <feComposite operator="in" in2="blur"/>
      <feComposite in="SourceGraphic"/>
    </filter>
    <filter id="Rectangle_149082" x="27" y="323" width="374" height="62" filterUnits="userSpaceOnUse">
      <feOffset dy="3" input="SourceAlpha"/>
      <feGaussianBlur stdDeviation="3" result="blur-2"/>
      <feFlood flood-opacity="0.161"/>
      <feComposite operator="in" in2="blur-2"/>
      <feComposite in="SourceGraphic"/>
    </filter>
    <filter id="Ellipse_9631" x="314" y="332" width="49.801" height="49.801" filterUnits="userSpaceOnUse">
      <feOffset dy="6" input="SourceAlpha"/>
      <feGaussianBlur stdDeviation="4" result="blur-3"/>
      <feFlood flood-color="#f79f1a"/>
      <feComposite operator="in" in2="blur-3"/>
      <feComposite in="SourceGraphic"/>
    </filter>
    <filter id="Rectangle_149082-2" x="27" y="485" width="374" height="62" filterUnits="userSpaceOnUse">
      <feOffset dy="3" input="SourceAlpha"/>
      <feGaussianBlur stdDeviation="3" result="blur-4"/>
      <feFlood flood-opacity="0.161"/>
      <feComposite operator="in" in2="blur-4"/>
      <feComposite in="SourceGraphic"/>
    </filter>
    <filter id="Rectangle_149083" x="27" y="539" width="374" height="62" filterUnits="userSpaceOnUse">
      <feOffset dy="3" input="SourceAlpha"/>
      <feGaussianBlur stdDeviation="3" result="blur-5"/>
      <feFlood flood-opacity="0.161"/>
      <feComposite operator="in" in2="blur-5"/>
      <feComposite in="SourceGraphic"/>
    </filter>
    <filter id="Rectangle_149082-3" x="27" y="269" width="374" height="62" filterUnits="userSpaceOnUse">
      <feOffset dy="3" input="SourceAlpha"/>
      <feGaussianBlur stdDeviation="3" result="blur-6"/>
      <feFlood flood-opacity="0.161"/>
      <feComposite operator="in" in2="blur-6"/>
      <feComposite in="SourceGraphic"/>
    </filter>
    <filter id="Rectangle_149082-4" x="27" y="593" width="374" height="62" filterUnits="userSpaceOnUse">
      <feOffset dy="3" input="SourceAlpha"/>
      <feGaussianBlur stdDeviation="3" result="blur-7"/>
      <feFlood flood-opacity="0.161"/>
      <feComposite operator="in" in2="blur-7"/>
      <feComposite in="SourceGraphic"/>
    </filter>
    <filter id="Rectangle_149082-5" x="27" y="647" width="374" height="62" filterUnits="userSpaceOnUse">
      <feOffset dy="3" input="SourceAlpha"/>
      <feGaussianBlur stdDeviation="3" result="blur-8"/>
      <feFlood flood-opacity="0.161"/>
      <feComposite operator="in" in2="blur-8"/>
      <feComposite in="SourceGraphic"/>
    </filter>
    <filter id="Rectangle_149082-6" x="27" y="431" width="374" height="62" filterUnits="userSpaceOnUse">
      <feOffset dy="3" input="SourceAlpha"/>
      <feGaussianBlur stdDeviation="3" result="blur-9"/>
      <feFlood flood-opacity="0.161"/>
      <feComposite operator="in" in2="blur-9"/>
      <feComposite in="SourceGraphic"/>
    </filter>
    <filter id="Rectangle_149082-7" x="27" y="377" width="374" height="62" filterUnits="userSpaceOnUse">
      <feOffset dy="3" input="SourceAlpha"/>
      <feGaussianBlur stdDeviation="3" result="blur-10"/>
      <feFlood flood-opacity="0.161"/>
      <feComposite operator="in" in2="blur-10"/>
      <feComposite in="SourceGraphic"/>
    </filter>
    <filter id="Ellipse_9631-2" x="314" y="386" width="49.801" height="49.801" filterUnits="userSpaceOnUse">
      <feOffset dy="6" input="SourceAlpha"/>
      <feGaussianBlur stdDeviation="4" result="blur-11"/>
      <feFlood flood-color="#f79f1a"/>
      <feComposite operator="in" in2="blur-11"/>
      <feComposite in="SourceGraphic"/>
    </filter>
    <clipPath id="clip-_32_Profile_Screen">
      <rect width="428" height="926"/>
    </clipPath>
  </defs>
  <g id="_32_Profile_Screen" data-name="32 Profile Screen" clip-path="url(#clip-_32_Profile_Screen)">
    <rect width="428" height="926" fill="#fff"/>
    <rect id="Background_Blur" data-name="Background Blur" width="428" height="925" transform="translate(0 1)" fill="#16110d" opacity="0.5"/>
    <path id="Rectangle_149079" data-name="Rectangle 149079" d="M0,0H428a0,0,0,0,1,0,0V206a25,25,0,0,1-25,25H25A25,25,0,0,1,0,206V0A0,0,0,0,1,0,0Z" transform="translate(0 10)" fill="#002d6a"/>
    <rect id="Rectangle_2214" data-name="Rectangle 2214" width="372" height="629" rx="25" transform="translate(28 206)" fill="#fff"/>
    <text id="Bezalel_Sons" data-name="Bezalel &amp; Sons" transform="translate(147.999 50.086)" fill="#fff" font-size="18" font-family="Poppins-Bold, Poppins" font-weight="700"><tspan x="0" y="0">Bezalel &amp; Sons</tspan></text>
    <text id="Drew_Oloche" data-name="Drew Oloche" transform="translate(157.001 152.09)" fill="#fff" font-size="18" font-family="Poppins-SemiBold, Poppins" font-weight="600"><tspan x="0" y="0">Drew Oloche</tspan></text>
    <g id="Stautus_Bar" data-name="Stautus Bar" transform="translate(7.813 10)">
      <g id="Pin-Right" transform="translate(354.729 0.5)">
        <path id="Battery" d="M37.494,2.5H57.006A1.5,1.5,0,0,1,58.5,4.005v6.489A1.5,1.5,0,0,1,57.006,12H37.494A1.5,1.5,0,0,1,36,10.495V4.005A1.5,1.5,0,0,1,37.494,2.5ZM59,5.5h.75a.744.744,0,0,1,.75.742V8.258A.748.748,0,0,1,59.75,9H59ZM37.508,3A1.012,1.012,0,0,0,36.5,4.008v6.483A1.007,1.007,0,0,0,37.508,11.5H56.992A1.012,1.012,0,0,0,58,10.492V4.008A1.007,1.007,0,0,0,56.992,3Zm0,.5H56.993a.5.5,0,0,1,.507.492v6.516a.5.5,0,0,1-.507.492H37.507A.5.5,0,0,1,37,10.508V3.992A.5.5,0,0,1,37.507,3.5Z" transform="translate(-2.854 1.5)" fill="#fff" fill-rule="evenodd"/>
        <text id="_100_" data-name="100%" transform="translate(0 13)" fill="#fff" font-size="12" font-family="Poppins-Regular, Poppins"><tspan x="0" y="0">100%</tspan></text>
      </g>
      <text id="_9:41_AM" data-name="9:41 AM" transform="translate(182.123 13)" fill="#fff" font-size="12" font-family="Poppins-Regular, Poppins"><tspan x="0" y="0">9:41 AM</tspan></text>
      <g id="Signal" transform="translate(0 0.5)">
        <path id="Wi-Fi" d="M96.144,12.439,94.023,14.5,91.86,12.405a2.884,2.884,0,0,1,4.284.033Zm2.179-2.117h0l-1.089,1.058a4.46,4.46,0,0,0-6.465-.031l-1.09-1.056a6.036,6.036,0,0,1,8.644.029ZM100.5,8.207,99.412,9.264A7.612,7.612,0,0,0,88.59,9.237L87.5,8.182a9.188,9.188,0,0,1,13,.025Z" transform="translate(-6.5 -1.5)" fill="#fff" fill-rule="evenodd"/>
        <text id="Sketch" transform="translate(37.5 13)" fill="#fff" font-size="12" font-family="Poppins-Regular, Poppins"><tspan x="0" y="0">Sunny</tspan></text>
        <path id="Mobile-Signal" d="M9.25,13A2.75,2.75,0,1,1,12,10.25,2.75,2.75,0,0,1,9.25,13Zm7,0A2.75,2.75,0,1,1,19,10.25,2.75,2.75,0,0,1,16.25,13Zm7,0A2.75,2.75,0,1,1,26,10.25,2.75,2.75,0,0,1,23.25,13Zm7,0A2.75,2.75,0,1,1,33,10.25,2.75,2.75,0,0,1,30.25,13Zm7,0A2.75,2.75,0,1,1,40,10.25,2.75,2.75,0,0,1,37.25,13Z" transform="translate(-6.5 -1.5)" fill="#fff" fill-rule="evenodd"/>
      </g>
    </g>
    <g id="Group_165676" data-name="Group 165676" transform="translate(71 -9.914)">
      <line id="Line_1142" data-name="Line 1142" x2="19" y2="19" transform="translate(319.5 46.5)" fill="none" stroke="#fff" stroke-linecap="round" stroke-width="3"/>
      <line id="Line_1143" data-name="Line 1143" x2="19" y2="19" transform="translate(338.5 46.5) rotate(90)" fill="none" stroke="#fff" stroke-linecap="round" stroke-width="3"/>
    </g>
    <g id="Group_165699" data-name="Group 165699" transform="translate(56.997 95.998)">
      <text id="CEO_Admin" data-name="CEO/Admin" transform="translate(130 92)" fill="#fff" font-size="15" font-family="Poppins-Regular, Poppins"><tspan x="0" y="0">CEO/Admin</tspan></text>
      <path id="Subtraction_368" data-name="Subtraction 368" d="M19281,16982v0a32.05,32.05,0,0,1-6-4.125,21.046,21.046,0,0,1-4.125-4.734A11.665,11.665,0,0,1,19269,16967v-10.5l12-4.5,12,4.5v10.5a11.651,11.651,0,0,1-1.875,6.139,21.124,21.124,0,0,1-4.125,4.734,31.956,31.956,0,0,1-6,4.125Zm-5.752-11.988a.464.464,0,0,0-.461.465v.93a.469.469,0,0,0,.461.465h12.086a.471.471,0,0,0,.465-.465v-.93a.465.465,0,0,0-.465-.465Zm-1.633-6.531v0l2.1,5.6h11.156l2.1-5.6a1.138,1.138,0,0,0,.225.023,1.395,1.395,0,1,0-1.395-1.395,1.354,1.354,0,0,0,.125.576l-2.1,1.26a.924.924,0,0,1-1.283-.34l-2.367-4.139a1.393,1.393,0,1,0-1.758,0l-2.367,4.139a.944.944,0,0,1-.812.473.928.928,0,0,1-.471-.133l-2.1-1.26a1.379,1.379,0,0,0,.125-.576,1.395,1.395,0,1,0-1.395,1.395,1.216,1.216,0,0,0,.223-.021Z" transform="translate(-19171.996 -16880)" fill="#f79f1a"/>
    </g>
    <g id="Group_165709" data-name="Group 165709" transform="translate(20.246 -16)">
      <g id="Group_165706" data-name="Group 165706">
        <g id="Group_165705" data-name="Group 165705" transform="translate(64.047 -116.5)">
          <g id="Group_165704" data-name="Group 165704" transform="translate(118.336 210.855)">
            <g id="Group_164492" data-name="Group 164492" transform="translate(0.746 6.541)">
              <circle id="Ellipse_9611" data-name="Ellipse 9611" cx="9.915" cy="9.915" r="9.915" fill="#a0616a"/>
              <path id="Path_84440" data-name="Path 84440" d="M199.288,313.5l2.067-5.282,10.679-1.607,1.147,11.692-10.793.23Z" transform="translate(-197.58 -291.453)" fill="#a0616a"/>
            </g>
            <path id="Path_84441" data-name="Path 84441" d="M198.585,135.9c-.129.516-.389,1.743-.795,1.749-.332,0-.65-5.32-.318-6.2.381-1.012-.62-2.292-1.374-2.949-1.355-1.181-4.364,1.355-7.423.206-.081-.03-.065-.027-1.031-.412a21.831,21.831,0,0,0-3.3-1.237,4.474,4.474,0,0,0-3.918,2.474c-.747,1.495-.123,2.777-.825,6.392-.082.421-.21,1.022-.412,1.031-.37.016-.73-1.958-.825-2.475-.4-2.166-.778-4.254,0-6.6.085-.256.608-1.205,1.65-3.093,1.5-2.72,2.256-4.085,2.474-4.33,1.565-1.76,4.413-3.365,6.8-2.681,1.209.346.992.9,2.475,1.443,2.642.965,4.938-.215,5.361.619.224.442-.4.806-.412,1.65-.016,1.448,1.816,1.867,2.887,3.3.576.77,1.561.779-1.019,11.113h0Z" transform="translate(-177.913 -117.613)" fill="#2f2e41"/>
          </g>
          <path id="Path_85182" data-name="Path 85182" d="M125.109,361.909q-.6.674-1.244,1.318a30.549,30.549,0,0,1-40.744,2.2l-.009-.008q-1.076-.868-2.083-1.844.019-.152.041-.3c.094-.666.2-1.3.316-1.885.959-4.79,13.574-9.82,13.9-9.951l.007,0a8.534,8.534,0,0,0,8.581,5.908c4.739-.052,3.82-5.908,3.82-5.908l.165.034c1.369.291,10.871,2.378,14.62,5.227,1.143.868,1.962,2.717,2.551,4.921C125.06,361.717,125.084,361.813,125.109,361.909Z" transform="translate(26.182 -113.734)" fill="#6c63ff"/>
        </g>
        <g id="Ellipse_9678" data-name="Ellipse 9678" transform="translate(161.754 81)" fill="none" stroke="#fff" stroke-width="2">
          <circle cx="30.545" cy="30.545" r="30.545" stroke="none"/>
          <circle cx="30.545" cy="30.545" r="29.545" fill="none"/>
        </g>
      </g>
      <g id="Group_165707" data-name="Group 165707" transform="translate(2 1)">
        <g id="Ellipse_9649" data-name="Ellipse 9649" transform="translate(200 119)" fill="#dbf7eb" stroke="#01ffff" stroke-width="1">
          <circle cx="12" cy="12" r="12" stroke="none"/>
          <circle cx="12" cy="12" r="11.5" fill="none"/>
        </g>
        <g id="Icon_feather-edit-3" data-name="Icon feather-edit-3" transform="translate(206.076 125.076)">
          <path id="Path_85183" data-name="Path 85183" d="M18,30h6.328" transform="translate(-11.672 -17.962)" fill="none" stroke="#002d6a" stroke-linecap="round" stroke-linejoin="round" stroke-width="1"/>
          <path id="Path_85184" data-name="Path 85184" d="M13.992,4.755A1.492,1.492,0,0,1,16.1,6.864L7.312,15.653l-2.812.7.7-2.812Z" transform="translate(-4.5 -4.318)" fill="none" stroke="#002d6a" stroke-linecap="round" stroke-linejoin="round" stroke-width="1"/>
        </g>
      </g>
    </g>
    <g id="Group_165721" data-name="Group 165721" transform="translate(0 -27)">
      <g transform="matrix(1, 0, 0, 1, 0, 27)" filter="url(#Rectangle_149080)">
        <rect id="Rectangle_149080-2" data-name="Rectangle 149080" width="356" height="44" rx="10" transform="translate(36 221)" fill="#fff"/>
      </g>
      <g id="Group_165711" data-name="Group 165711">
        <g id="Group_165710" data-name="Group 165710">
          <rect id="Rectangle_149081" data-name="Rectangle 149081" width="111" height="30" rx="15" transform="translate(225 255)" fill="#f79f1a" opacity="0.2"/>
          <text id="Enterprise" transform="translate(240 276)" fill="#f79f1a" font-size="15" font-family="Poppins-Regular, Poppins"><tspan x="0" y="0">ENTERPRISE</tspan></text>
        </g>
        <path id="Icon_material-card-membership" data-name="Icon material-card-membership" d="M25.787,3H5.532A2.523,2.523,0,0,0,3,5.532V19.457a2.523,2.523,0,0,0,2.532,2.532H10.6v6.33l5.064-2.532,5.064,2.532v-6.33h5.064a2.523,2.523,0,0,0,2.532-2.532V5.532A2.523,2.523,0,0,0,25.787,3Zm0,16.457H5.532V16.925H25.787Zm0-6.33H5.532v-7.6H25.787Z" transform="translate(42.5 254.5)" fill="none" stroke="#01ffff" stroke-width="1"/>
        <text id="Pricing_Plan" data-name="Pricing Plan" transform="translate(81 277)" fill="#002d6a" font-size="18" font-family="Poppins-Regular, Poppins"><tspan x="0" y="0">Pricing Plan</tspan></text>
        <path id="Icon_ionic-ios-arrow-back" data-name="Icon ionic-ios-arrow-back" d="M20.684,18,11.746,9.07a1.688,1.688,0,1,1,2.391-2.384L24.263,16.8a1.685,1.685,0,0,1,.049,2.327L14.144,29.321a1.688,1.688,0,0,1-2.391-2.384Z" transform="translate(355.246 251.807)" fill="#d1d2d9"/>
      </g>
    </g>
    <g id="Group_165720" data-name="Group 165720" transform="translate(0 -41)">
      <g transform="matrix(1, 0, 0, 1, 0, 41)" filter="url(#Rectangle_149082)">
        <rect id="Rectangle_149082-8" data-name="Rectangle 149082" width="356" height="44" rx="10" transform="translate(36 329)" fill="#fff"/>
      </g>
      <path id="Icon_ionic-ios-arrow-back-2" data-name="Icon ionic-ios-arrow-back" d="M20.684,18,11.746,9.07a1.688,1.688,0,1,1,2.391-2.384L24.263,16.8a1.685,1.685,0,0,1,.049,2.327L14.144,29.321a1.688,1.688,0,0,1-2.391-2.384Z" transform="translate(355.246 373.807)" fill="#d1d2d9"/>
      <text id="Settings" transform="translate(81 398)" fill="#002d6a" font-size="18" font-family="Poppins-Regular, Poppins"><tspan x="0" y="0">Settings</tspan></text>
      <path id="Icon_ionic-ios-settings" data-name="Icon ionic-ios-settings" d="M29.271,18A3.474,3.474,0,0,1,31.5,14.759a13.772,13.772,0,0,0-1.666-4.015,3.521,3.521,0,0,1-1.413.3,3.467,3.467,0,0,1-3.171-4.88A13.73,13.73,0,0,0,21.241,4.5a3.471,3.471,0,0,1-6.483,0,13.772,13.772,0,0,0-4.015,1.666,3.467,3.467,0,0,1-3.171,4.88,3.406,3.406,0,0,1-1.413-.3A14.076,14.076,0,0,0,4.5,14.766a3.473,3.473,0,0,1,.007,6.483,13.772,13.772,0,0,0,1.666,4.015,3.468,3.468,0,0,1,4.577,4.577,13.852,13.852,0,0,0,4.015,1.666,3.465,3.465,0,0,1,6.469,0,13.772,13.772,0,0,0,4.015-1.666,3.472,3.472,0,0,1,4.577-4.577,13.852,13.852,0,0,0,1.666-4.015A3.491,3.491,0,0,1,29.271,18ZM18.063,23.618a5.625,5.625,0,1,1,5.625-5.625A5.623,5.623,0,0,1,18.063,23.618Z" transform="translate(41 374)" fill="none" stroke="#01ffff" stroke-width="1"/>
      <g id="Group_165729" data-name="Group 165729" transform="translate(165.199 220)">
        <g transform="matrix(1, 0, 0, 1, -165.2, -179)" filter="url(#Ellipse_9631)">
          <circle id="Ellipse_9631-3" data-name="Ellipse 9631" cx="12.901" cy="12.901" r="12.901" transform="translate(326 338)" fill="#f79f1a"/>
        </g>
        <text id="_5" data-name="5" transform="translate(173.801 177.759)" fill="#fff" font-size="17" font-family="Poppins-Medium, Poppins" font-weight="500"><tspan x="-5.432" y="0">5</tspan></text>
      </g>
    </g>
    <g id="Group_165724" data-name="Group 165724" transform="translate(0 -46)">
      <g transform="matrix(1, 0, 0, 1, 0, 46)" filter="url(#Rectangle_149082-2)">
        <rect id="Rectangle_149082-9" data-name="Rectangle 149082" width="356" height="44" rx="10" transform="translate(36 491)" fill="#fff"/>
      </g>
      <path id="Icon_ionic-ios-arrow-back-3" data-name="Icon ionic-ios-arrow-back" d="M20.684,18,11.746,9.07a1.688,1.688,0,1,1,2.391-2.384L24.263,16.8a1.685,1.685,0,0,1,.049,2.327L14.144,29.321a1.688,1.688,0,0,1-2.391-2.384Z" transform="translate(355.246 540.809)" fill="#d1d2d9"/>
      <text id="Change_Password" data-name="Change Password" transform="translate(83 565)" fill="#002d6a" font-size="18" font-family="Poppins-Regular, Poppins"><tspan x="0" y="0">Change Password</tspan></text>
      <g id="Icon_feather-lock" data-name="Icon feather-lock" transform="translate(41.5 541)">
        <path id="Path_85178" data-name="Path 85178" d="M7.5,16.5h21a3,3,0,0,1,3,3V30a3,3,0,0,1-3,3H7.5a3,3,0,0,1-3-3V19.5a3,3,0,0,1,3-3Z" fill="none" stroke="#01ffff" stroke-linecap="round" stroke-linejoin="round" stroke-width="1"/>
        <path id="Path_85179" data-name="Path 85179" d="M10.5,16.5v-6a7.5,7.5,0,0,1,15,0v6" fill="none" stroke="#01ffff" stroke-linecap="round" stroke-linejoin="round" stroke-width="1"/>
      </g>
    </g>
    <g id="Group_165725" data-name="Group 165725" transform="translate(0 -36)">
      <g transform="matrix(1, 0, 0, 1, 0, 36)" filter="url(#Rectangle_149083)">
        <rect id="Rectangle_149083-2" data-name="Rectangle 149083" width="356" height="44" rx="10" transform="translate(36 545)" fill="#fff"/>
      </g>
      <path id="Icon_ionic-ios-arrow-back-4" data-name="Icon ionic-ios-arrow-back" d="M20.684,18,11.746,9.07a1.688,1.688,0,1,1,2.391-2.384L24.263,16.8a1.685,1.685,0,0,1,.049,2.327L14.144,29.321a1.688,1.688,0,0,1-2.391-2.384Z" transform="translate(355.246 584.807)" fill="#d1d2d9"/>
      <text id="Change_Email_Address" data-name="Change Email Address" transform="translate(83 610)" fill="#002d6a" font-size="18" font-family="Poppins-Regular, Poppins"><tspan x="0" y="0">Change Email Address</tspan></text>
      <g id="Icon_ionic-ios-mail" data-name="Icon ionic-ios-mail" transform="translate(42.625 585.125)">
        <path id="Path_85180" data-name="Path 85180" d="M32.386,10.357,24.82,18.063a.136.136,0,0,0,0,.2L30.115,23.9a.912.912,0,0,1,0,1.294.917.917,0,0,1-1.294,0l-5.273-5.618a.144.144,0,0,0-.2,0l-1.287,1.308a5.661,5.661,0,0,1-4.036,1.7,5.775,5.775,0,0,1-4.12-1.751l-1.238-1.259a.144.144,0,0,0-.2,0L7.186,25.193a.917.917,0,0,1-1.294,0,.912.912,0,0,1,0-1.294l5.295-5.639a.15.15,0,0,0,0-.2L3.614,10.357a.139.139,0,0,0-.239.1v15.42a2.257,2.257,0,0,0,2.25,2.25h24.75a2.257,2.257,0,0,0,2.25-2.25V10.455A.141.141,0,0,0,32.386,10.357Z" fill="none" stroke="#01ffff" stroke-width="1"/>
        <path id="Path_85181" data-name="Path 85181" d="M18,20.749A3.823,3.823,0,0,0,20.749,19.6L31.781,8.367a2.21,2.21,0,0,0-1.392-.492H5.618a2.2,2.2,0,0,0-1.392.492L15.258,19.6A3.823,3.823,0,0,0,18,20.749Z" fill="none" stroke="#01ffff" stroke-width="1"/>
      </g>
    </g>
    <g id="Group_165719" data-name="Group 165719" transform="translate(0 -34)">
      <g transform="matrix(1, 0, 0, 1, 0, 34)" filter="url(#Rectangle_149082-3)">
        <rect id="Rectangle_149082-10" data-name="Rectangle 149082" width="356" height="44" rx="10" transform="translate(36 275)" fill="#fff"/>
      </g>
      <path id="Icon_ionic-ios-arrow-back-5" data-name="Icon ionic-ios-arrow-back" d="M20.684,18,11.746,9.07a1.688,1.688,0,1,1,2.391-2.384L24.263,16.8a1.685,1.685,0,0,1,.049,2.327L14.144,29.321a1.688,1.688,0,0,1-2.391-2.384Z" transform="translate(355.246 312.809)" fill="#d1d2d9"/>
      <text id="Edit_Business_Info" data-name="Edit Business Info" transform="translate(81 338)" fill="#002d6a" font-size="18" font-family="Poppins-Regular, Poppins"><tspan x="0" y="0">Edit Business Info</tspan></text>
      <path id="Icon_awesome-store-alt" data-name="Icon awesome-store-alt" d="M16.229,19.474H6.492V11.36H3.247V24.342a1.621,1.621,0,0,0,1.623,1.623H17.852a1.621,1.621,0,0,0,1.623-1.623V11.36H16.229ZM32.184,7.211,27.858.72A1.632,1.632,0,0,0,26.5,0H5.955A1.616,1.616,0,0,0,4.606.72L.28,7.211A1.623,1.623,0,0,0,1.629,9.737H30.835A1.626,1.626,0,0,0,32.184,7.211ZM25.966,25.154a.814.814,0,0,0,.811.811H28.4a.814.814,0,0,0,.811-.811V11.36H25.966Z" transform="translate(45.496 318.5)" fill="none" stroke="#01ffff" stroke-width="1"/>
      <g id="Icon_feather-info" data-name="Icon feather-info" transform="translate(325.624 317)">
        <path id="Path_85185" data-name="Path 85185" d="M25.117,14.059A11.059,11.059,0,1,1,14.059,3,11.059,11.059,0,0,1,25.117,14.059Z" fill="none" stroke="#f20000" stroke-linecap="round" stroke-linejoin="round" stroke-width="1.17"/>
        <path id="Path_85186" data-name="Path 85186" d="M18,22.423V18" transform="translate(-3.941 -3.941)" fill="none" stroke="#f20000" stroke-linecap="round" stroke-linejoin="round" stroke-width="1.17"/>
        <path id="Path_85187" data-name="Path 85187" d="M18,12h0" transform="translate(-3.941 -2.365)" fill="none" stroke="#f20000" stroke-linecap="round" stroke-linejoin="round" stroke-width="1.17"/>
      </g>
    </g>
    <g id="Group_165726" data-name="Group 165726" transform="translate(0 -38)">
      <g transform="matrix(1, 0, 0, 1, 0, 38)" filter="url(#Rectangle_149082-4)">
        <rect id="Rectangle_149082-11" data-name="Rectangle 149082" width="356" height="44" rx="10" transform="translate(36 599)" fill="#fff"/>
      </g>
      <path id="Icon_ionic-ios-arrow-back-6" data-name="Icon ionic-ios-arrow-back" d="M20.684,18,11.746,9.07a1.688,1.688,0,1,1,2.391-2.384L24.263,16.8a1.685,1.685,0,0,1,.049,2.327L14.144,29.321a1.688,1.688,0,0,1-2.391-2.384Z" transform="translate(355.246 641.807)" fill="#d1d2d9"/>
      <text id="Change_Phone_Number" data-name="Change Phone Number" transform="translate(83 666)" fill="#002d6a" font-size="18" font-family="Poppins-Regular, Poppins"><tspan x="0" y="0">Change Phone Number</tspan></text>
      <path id="Icon_feather-phone" data-name="Icon feather-phone" d="M33,25.38v4.5a3,3,0,0,1-3.27,3,29.685,29.685,0,0,1-12.945-4.6,29.25,29.25,0,0,1-9-9A29.685,29.685,0,0,1,3.18,6.27,3,3,0,0,1,6.165,3h4.5a3,3,0,0,1,3,2.58A19.26,19.26,0,0,0,14.715,9.8a3,3,0,0,1-.675,3.165l-1.905,1.9a24,24,0,0,0,9,9l1.9-1.905a3,3,0,0,1,3.165-.675,19.26,19.26,0,0,0,4.215,1.05A3,3,0,0,1,33,25.38Z" transform="translate(42.332 641.5)" fill="none" stroke="#01ffff" stroke-linecap="round" stroke-linejoin="round" stroke-width="1"/>
    </g>
    <g id="Group_165727" data-name="Group 165727" transform="translate(0 -56)">
      <g transform="matrix(1, 0, 0, 1, 0, 56)" filter="url(#Rectangle_149082-5)">
        <rect id="Rectangle_149082-12" data-name="Rectangle 149082" width="356" height="44" rx="10" transform="translate(36 653)" fill="#fff"/>
      </g>
      <path id="Icon_ionic-ios-arrow-back-7" data-name="Icon ionic-ios-arrow-back" d="M20.684,18,11.746,9.07a1.688,1.688,0,1,1,2.391-2.384L24.263,16.8a1.685,1.685,0,0,1,.049,2.327L14.144,29.321a1.688,1.688,0,0,1-2.391-2.384Z" transform="translate(355.246 712.807)" fill="#f0142f"/>
      <path id="Union_305" data-name="Union 305" d="M8973.593,14265.5v-9.419l3.814.015v5.59h4.764a.956.956,0,0,1,.957.956v1.905a.956.956,0,0,1-.957.953Zm-7.625,0v0l-20.015,0a.954.954,0,0,1-.953-.953v-1.905a.955.955,0,0,1,.953-.956h4.768v-21.747a1.956,1.956,0,0,1,1.443-1.915l11.437-2.965a1.9,1.9,0,0,1,2.37,1.918v28.523Zm-6.669-15.251c0,1.05.64,1.905,1.429,1.905s1.429-.855,1.429-1.905-.64-1.905-1.429-1.905S8959.3,14249.2,8959.3,14250.251Zm22.408,7.668v-2.743h-7.822a.715.715,0,0,1-.714-.716v-3.335a.715.715,0,0,1,.714-.716h7.822v-2.744a1.429,1.429,0,0,1,2.44-1.01l5.124,5.125a1.425,1.425,0,0,1,0,2.024l-5.124,5.125a1.4,1.4,0,0,1-1,.422A1.428,1.428,0,0,1,8981.707,14257.919Zm-8.114-8.821v-6.472h-5.716v-3.812h6.673a2.9,2.9,0,0,1,2.857,2.946v7.353Z" transform="translate(-8899.5 -13519)" fill="#f30157"/>
      <text id="TSLA" transform="translate(102 738)" fill="#f30157" font-size="18" font-family="Poppins-SemiBold, Poppins" font-weight="600"><tspan x="0" y="0">Logout</tspan></text>
    </g>
    <g id="Group_165723" data-name="Group 165723" transform="translate(0 -47)">
      <g transform="matrix(1, 0, 0, 1, 0, 47)" filter="url(#Rectangle_149082-6)">
        <rect id="Rectangle_149082-13" data-name="Rectangle 149082" width="356" height="44" rx="10" transform="translate(36 437)" fill="#fff"/>
      </g>
      <path id="Icon_ionic-ios-arrow-back-8" data-name="Icon ionic-ios-arrow-back" d="M20.684,18,11.746,9.07a1.688,1.688,0,1,1,2.391-2.384L24.263,16.8a1.685,1.685,0,0,1,.049,2.327L14.144,29.321a1.688,1.688,0,0,1-2.391-2.384Z" transform="translate(355.246 487.809)" fill="#d1d2d9"/>
      <text id="Privacy" transform="translate(81 513)" fill="#002d6a" font-size="18" font-family="Poppins-Regular, Poppins"><tspan x="0" y="0">Privacy</tspan></text>
      <g id="Group_165703" data-name="Group 165703" transform="translate(35.998 106.742)">
        <path id="Icon_feather-shield" data-name="Icon feather-shield" d="M18,33s12-6,12-15V7.5L18,3,6,7.5V18C6,27,18,33,18,33Z" transform="translate(4.002 381.258)" fill="none" stroke="#01ffff" stroke-linecap="round" stroke-linejoin="round" stroke-width="1"/>
        <path id="Icon_ionic-ios-information" data-name="Icon ionic-ios-information" d="M16.552,12.375a1.449,1.449,0,1,1,1.441,1.406A1.408,1.408,0,0,1,16.552,12.375Zm.1,2.517h2.686V25.024H16.65Z" transform="translate(3.451 380.281)" fill="#01ffff"/>
      </g>
    </g>
    <g id="Group_165722" data-name="Group 165722" transform="translate(0 -57)">
      <g transform="matrix(1, 0, 0, 1, 0, 57)" filter="url(#Rectangle_149082-7)">
        <rect id="Rectangle_149082-14" data-name="Rectangle 149082" width="356" height="44" rx="10" transform="translate(36 383)" fill="#fff"/>
      </g>
      <path id="Icon_ionic-ios-arrow-back-9" data-name="Icon ionic-ios-arrow-back" d="M20.684,18,11.746,9.07a1.688,1.688,0,1,1,2.391-2.384L24.263,16.8a1.685,1.685,0,0,1,.049,2.327L14.144,29.321a1.688,1.688,0,0,1-2.391-2.384Z" transform="translate(355.246 443.807)" fill="#d1d2d9"/>
      <text id="Notifications" transform="translate(81 468)" fill="#002d6a" font-size="18" font-family="Poppins-Regular, Poppins"><tspan x="0" y="0">Notifications</tspan></text>
      <path id="Icon_material-notifications-active" data-name="Icon material-notifications-active" d="M11.37,6.12,9.225,3.975A15.638,15.638,0,0,0,3.045,15.75h3A12.668,12.668,0,0,1,11.37,6.12Zm18.585,9.63h3a15.733,15.733,0,0,0-6.18-11.775L24.645,6.12a12.743,12.743,0,0,1,5.31,9.63ZM27,16.5c0-4.6-2.46-8.46-6.75-9.48V6a2.25,2.25,0,0,0-4.5,0V7.02C11.445,8.04,9,11.88,9,16.5V24L6,27v1.5H30V27l-3-3ZM18,33a2.628,2.628,0,0,0,.6-.06,3.044,3.044,0,0,0,2.16-1.77A3.012,3.012,0,0,0,20.985,30h-6A3.022,3.022,0,0,0,18,33Z" transform="translate(42.455 443.75)" fill="none" stroke="#01ffff" stroke-width="1"/>
      <g id="Group_165728" data-name="Group 165728" transform="translate(165.198 290.001)">
        <g transform="matrix(1, 0, 0, 1, -165.2, -233)" filter="url(#Ellipse_9631-2)">
          <circle id="Ellipse_9631-4" data-name="Ellipse 9631" cx="12.901" cy="12.901" r="12.901" transform="translate(326 392)" fill="#f79f1a"/>
        </g>
        <text id="_38" data-name="38" transform="translate(173.801 177.759)" fill="#fff" font-size="17" font-family="Poppins-Medium, Poppins" font-weight="500"><tspan x="-10.472" y="0">38</tspan></text>
      </g>
    </g>
    <g id="Group_165796" data-name="Group 165796" transform="translate(1.352 -6.625)">
      <text id="Follow_us" data-name="Follow us" transform="translate(68.125 775.625)" fill="#002d6a" font-size="18" font-family="Poppins-Regular, Poppins"><tspan x="0" y="0">Follow us</tspan></text>
      <g id="Group_165731" data-name="Group 165731" transform="translate(0 -1)">
        <path id="Icon_zocial-facebook" data-name="Icon zocial-facebook" d="M13.257,11.482V7.4H16.55V5.345a5.373,5.373,0,0,1,1.443-3.784A4.589,4.589,0,0,1,21.489,0H24.76V4.084H21.489a.72.72,0,0,0-.577.353,1.433,1.433,0,0,0-.257.866V7.4h4.1v4.083H20.655v9.9H16.55v-9.9Z" transform="translate(50.953 795.5)" fill="none" stroke="#0086fc" stroke-width="1.5"/>
        <path id="Icon_simple-whatsapp" data-name="Icon simple-whatsapp" d="M15.588,12.812c-.268-.134-1.574-.772-1.817-.861s-.421-.134-.6.134-.687.859-.841,1.035-.311.187-.576.067a7.23,7.23,0,0,1-2.141-1.323A8.082,8.082,0,0,1,8.135,10.02c-.155-.267-.017-.414.116-.548s.268-.307.4-.466a2.258,2.258,0,0,0,.265-.442A.49.49,0,0,0,8.9,8.1c-.067-.134-.6-1.443-.821-1.965s-.434-.454-.6-.454-.331-.013-.509-.013a1,1,0,0,0-.71.32,2.974,2.974,0,0,0-.931,2.2,5.212,5.212,0,0,0,1.086,2.739,11.879,11.879,0,0,0,4.543,4c.636.267,1.131.428,1.518.56a3.686,3.686,0,0,0,1.675.108,2.742,2.742,0,0,0,1.8-1.27,2.205,2.205,0,0,0,.16-1.269c-.066-.12-.241-.187-.508-.307m-4.852,6.631h-.014a8.912,8.912,0,0,1-4.5-1.229l-.321-.191-3.341.869.9-3.247-.213-.334a8.836,8.836,0,0,1,13.761-10.9A8.72,8.72,0,0,1,19.6,10.571a8.847,8.847,0,0,1-8.851,8.806m7.531-16.3A10.817,10.817,0,0,0,10.731,0a10.592,10.592,0,0,0-9.22,15.891L0,21.381l5.644-1.472A10.746,10.746,0,0,0,10.731,21.2h.005A10.637,10.637,0,0,0,21.381,10.6a10.507,10.507,0,0,0-3.114-7.493" transform="translate(95.582 796)" fill="#26b105"/>
        <path id="Icon_zocial-linkedin" data-name="Icon zocial-linkedin" d="M-.18,3.031a2.636,2.636,0,0,1,.857-2.02A3.143,3.143,0,0,1,2.9.216,3.049,3.049,0,0,1,5.083,1,2.761,2.761,0,0,1,5.94,3.1a2.578,2.578,0,0,1-.832,1.958,3.149,3.149,0,0,1-2.252.808H2.831A3,3,0,0,1,.652,5.063,2.713,2.713,0,0,1-.18,3.031ZM.138,24.45V8.1H5.573V24.45H.138Zm8.445,0h5.434V15.32a3.524,3.524,0,0,1,.2-1.322,3.55,3.55,0,0,1,1.04-1.408A2.66,2.66,0,0,1,17,12.015q2.742,0,2.742,3.7V24.45H25.18V15.075a7.879,7.879,0,0,0-1.714-5.5,5.845,5.845,0,0,0-4.529-1.873,5.555,5.555,0,0,0-4.92,2.717v.049h-.024l.024-.049V8.1H8.583q.049.783.049,4.871T8.583,24.45Z" transform="translate(169.729 792.283)" fill="none" stroke="#00a0fc" stroke-width="1.5"/>
        <path id="Icon_awesome-twitter" data-name="Icon awesome-twitter" d="M21.768,8.292c.015.216.015.431.015.647A14.051,14.051,0,0,1,7.636,23.086,14.052,14.052,0,0,1,0,20.854a10.287,10.287,0,0,0,1.2.062,9.958,9.958,0,0,0,6.173-2.124,4.981,4.981,0,0,1-4.649-3.448,6.271,6.271,0,0,0,.939.077,5.259,5.259,0,0,0,1.309-.169A4.973,4.973,0,0,1,.985,10.37v-.062a5.008,5.008,0,0,0,2.248.631A4.98,4.98,0,0,1,1.693,4.289a14.134,14.134,0,0,0,10.253,5.2,5.613,5.613,0,0,1-.123-1.139,4.977,4.977,0,0,1,8.606-3.4,9.79,9.79,0,0,0,3.156-1.2A4.959,4.959,0,0,1,21.4,6.49a9.968,9.968,0,0,0,2.863-.77,10.689,10.689,0,0,1-2.494,2.571Z" transform="translate(131.125 794.119)" fill="none" stroke="#00a0fc" stroke-width="1.5"/>
        <path id="Icon_awesome-instagram" data-name="Icon awesome-instagram" d="M10.691,7.447a5.482,5.482,0,1,0,5.482,5.482A5.474,5.474,0,0,0,10.691,7.447Zm0,9.047a3.564,3.564,0,1,1,3.564-3.564A3.571,3.571,0,0,1,10.691,16.493Zm6.985-9.271A1.279,1.279,0,1,1,16.4,5.944,1.276,1.276,0,0,1,17.676,7.223Zm3.631,1.3A6.328,6.328,0,0,0,19.58,4.04,6.37,6.37,0,0,0,15.1,2.313c-1.765-.1-7.057-.1-8.822,0A6.361,6.361,0,0,0,1.8,4.035,6.349,6.349,0,0,0,.07,8.516c-.1,1.765-.1,7.057,0,8.822A6.328,6.328,0,0,0,1.8,21.818a6.378,6.378,0,0,0,4.48,1.727c1.765.1,7.057.1,8.822,0a6.328,6.328,0,0,0,4.48-1.727,6.37,6.37,0,0,0,1.727-4.48c.1-1.765.1-7.052,0-8.818ZM19.027,19.232a3.608,3.608,0,0,1-2.033,2.033c-1.408.558-4.748.429-6.3.429s-4.9.124-6.3-.429a3.608,3.608,0,0,1-2.033-2.033c-.558-1.408-.429-4.748-.429-6.3s-.124-4.9.429-6.3A3.608,3.608,0,0,1,4.388,4.594c1.408-.558,4.748-.429,6.3-.429s4.9-.124,6.3.429a3.608,3.608,0,0,1,2.033,2.033c.558,1.408.429,4.748.429,6.3S19.585,17.829,19.027,19.232Z" transform="translate(209.076 793.262)" fill="none" stroke="#db9b05" stroke-width="1.5"/>
        <path id="Icon_awesome-youtube" data-name="Icon awesome-youtube" d="M28.489,7.583a3.521,3.521,0,0,0-2.478-2.494C23.826,4.5,15.062,4.5,15.062,4.5S6.3,4.5,4.113,5.089A3.521,3.521,0,0,0,1.636,7.583a36.94,36.94,0,0,0-.586,6.789,36.94,36.94,0,0,0,.586,6.789,3.469,3.469,0,0,0,2.478,2.454c2.186.589,10.949.589,10.949.589s8.764,0,10.949-.589a3.469,3.469,0,0,0,2.478-2.454,36.94,36.94,0,0,0,.586-6.789,36.94,36.94,0,0,0-.586-6.789ZM12.2,18.539V10.205l7.325,4.167L12.2,18.539Z" transform="translate(243.57 793)" fill="none" stroke="#e2070a" stroke-width="1.5"/>
      </g>
    </g>
    <g id="Group_165860" data-name="Group 165860" transform="translate(24284 19385)">
      <g id="bg" transform="translate(-24284 -18533)" fill="#fff" stroke="#fff" stroke-width="1">
        <rect width="428" height="73" rx="10" stroke="none"/>
        <rect x="0.5" y="0.5" width="427" height="72" rx="9.5" fill="none"/>
      </g>
      <g id="Group_165837" data-name="Group 165837" transform="translate(-1 -83)">
        <g id="Group_164718" data-name="Group 164718" transform="translate(-24637 -19290.553)">
          <text id="Insights" transform="translate(392 902)" fill="#d1d2d9" font-size="14" font-family="Poppins-Light, Poppins" font-weight="300" letter-spacing="-0.016em"><tspan x="-25.641" y="0">Insights</tspan></text>
          <path id="FontAwsome_wpexplorer_" data-name="FontAwsome (wpexplorer)" d="M35.164,5.841,24.117,10.557,28.834,21.6l11.047-4.716Zm-13.984,21.5-5.924,11.95h1.856l6.356-12.713,6.216,12.713h1.78l-6.5-13.59L27.8,24.5l-.763-1.78-8.721,3.7.763,1.818Zm1.5-14.785L13.96,16.29,17.7,24.973l8.683-3.7-3.7-8.721ZM12.472,18.007,5.531,20.943l2.975,6.9,6.9-2.937-2.937-6.9Z" transform="translate(369.469 842.713)" fill="none" stroke="#d1d2d9" stroke-width="1.17"/>
        </g>
        <g id="Group_165834" data-name="Group 165834" transform="translate(9 -6.473)">
          <text id="Account" transform="translate(-23904 -18382)" fill="#cecece" font-size="14" font-family="Poppins-Light, Poppins" font-weight="300"><tspan x="-28.994" y="0">Account</tspan></text>
          <path id="Icon_awesome-landmark" data-name="Icon awesome-landmark" d="M35.27,6.476,18.79.143a2.247,2.247,0,0,0-1.58,0L.73,6.476A1.125,1.125,0,0,0,0,7.53v2.6A1.125,1.125,0,0,0,1.125,11.25h33.75A1.125,1.125,0,0,0,36,10.125V7.53A1.125,1.125,0,0,0,35.27,6.476ZM4.5,13.5V24.75H3.375A1.125,1.125,0,0,0,2.25,25.875V29.25h31.5V25.875a1.125,1.125,0,0,0-1.125-1.125H31.5V13.5H27V24.75H20.25V13.5h-4.5V24.75H9V13.5Zm30.375,18H1.125A1.125,1.125,0,0,0,0,32.625v2.25A1.125,1.125,0,0,0,1.125,36h33.75A1.125,1.125,0,0,0,36,34.875v-2.25A1.125,1.125,0,0,0,34.875,31.5Z" transform="translate(-23922.5 -18437.527)" fill="none" stroke="#d1d2d9" stroke-width="1.5"/>
        </g>
        <g id="Group_165832" data-name="Group 165832" transform="translate(-18.001 -7.473)">
          <text id="Sales" transform="translate(-24113 -18382)" fill="#d1d2d9" font-size="14" font-family="Poppins-Light, Poppins" font-weight="300" letter-spacing="-0.016em"><tspan x="-17.808" y="0">Sales</tspan></text>
          <g id="Icon_feather-shopping-cart" data-name="Icon feather-shopping-cart" transform="translate(-24136.5 -18437.027)">
            <path id="Path_85459" data-name="Path 85459" d="M15.214,31.607A1.607,1.607,0,1,1,13.607,30,1.607,1.607,0,0,1,15.214,31.607Z" transform="translate(0.75 2.036)" fill="none" stroke="#d1d2d9" stroke-linecap="round" stroke-linejoin="round" stroke-width="3"/>
            <path id="Path_85460" data-name="Path 85460" d="M31.714,31.607A1.607,1.607,0,1,1,30.107,30,1.607,1.607,0,0,1,31.714,31.607Z" transform="translate(1.929 2.036)" fill="none" stroke="#d1d2d9" stroke-linecap="round" stroke-linejoin="round" stroke-width="3"/>
            <path id="Path_85461" data-name="Path 85461" d="M1.5,1.5H7.929l4.307,21.52a3.214,3.214,0,0,0,3.214,2.588H31.071a3.214,3.214,0,0,0,3.214-2.588L36.857,9.536H9.536" fill="none" stroke="#d1d2d9" stroke-linecap="round" stroke-linejoin="round" stroke-width="3"/>
          </g>
        </g>
        <g id="Group_165833" data-name="Group 165833" transform="translate(115.001 -104.5)">
          <text id="Expenses" transform="translate(-24134 -18283)" fill="#d1d2d9" font-size="14" font-family="Poppins-Light, Poppins" font-weight="300"><tspan x="-31.745" y="0">Expenses</tspan></text>
          <path id="Union_257" data-name="Union 257" d="M28,13.875v0ZM14,0V0ZM0,23.125v0Z" transform="translate(-24147.5 -18339.5)" fill="none" stroke="#d1d2d9" stroke-linecap="round" stroke-linejoin="round" stroke-width="3"/>
        </g>
      </g>
    </g>
  </g>
</svg>
