<svg xmlns="http://www.w3.org/2000/svg" xmlns:xlink="http://www.w3.org/1999/xlink" width="428" height="926" viewBox="0 0 428 926">
  <defs>
    <filter id="bbe242b310de7a804a25b5766782ff47" x="-14" y="-14" width="458" height="113" filterUnits="userSpaceOnUse">
      <feOffset dx="1" dy="1" input="SourceAlpha"/>
      <feGaussianBlur stdDeviation="5" result="blur"/>
      <feFlood flood-color="#73979a" flood-opacity="0.161"/>
      <feComposite operator="in" in2="blur"/>
      <feComposite in="SourceGraphic"/>
    </filter>
    <filter id="Rectangle_2" x="81" y="632" width="263" height="61" filterUnits="userSpaceOnUse">
      <feOffset dy="3" input="SourceAlpha"/>
      <feGaussianBlur stdDeviation="3" result="blur-2"/>
      <feFlood flood-opacity="0.161"/>
      <feComposite operator="in" in2="blur-2"/>
      <feComposite in="SourceGraphic"/>
    </filter>
    <linearGradient id="linear-gradient" x1="0.5" x2="0.5" y2="1" gradientUnits="objectBoundingBox">
      <stop offset="0" stop-color="#f7c735"/>
      <stop offset="1" stop-color="#e29d01"/>
    </linearGradient>
    <linearGradient id="linear-gradient-2" x1="1" x2="1" y2="1" gradientUnits="objectBoundingBox">
      <stop offset="0" stop-color="#31326c"/>
      <stop offset="0.468" stop-color="#2d2e60"/>
      <stop offset="1" stop-color="#242658"/>
    </linearGradient>
    <linearGradient id="linear-gradient-4" x1="0.11" y1="0.139" x2="0.803" xlink:href="#linear-gradient"/>
    <linearGradient id="linear-gradient-5" x1="0.871" y1="-0.212" x2="0.117" y2="0.278" xlink:href="#linear-gradient"/>
    <filter id="Path_777" x="53.146" y="820.225" width="399.76" height="104.949" filterUnits="userSpaceOnUse">
      <feOffset dy="3" input="SourceAlpha"/>
      <feGaussianBlur stdDeviation="3" result="blur-3"/>
      <feFlood flood-opacity="0.161"/>
      <feComposite operator="in" in2="blur-3"/>
      <feComposite in="SourceGraphic"/>
    </filter>
    <filter id="Path_775" x="268.723" y="813" width="199.307" height="88.93" filterUnits="userSpaceOnUse">
      <feOffset dy="3" input="SourceAlpha"/>
      <feGaussianBlur stdDeviation="3" result="blur-4"/>
      <feFlood flood-opacity="0.161"/>
      <feComposite operator="in" in2="blur-4"/>
      <feComposite in="SourceGraphic"/>
    </filter>
    <linearGradient id="linear-gradient-6" x1="0.5" x2="0.5" y2="1" gradientUnits="objectBoundingBox">
      <stop offset="0" stop-color="#01ffff"/>
      <stop offset="1" stop-color="#068b8b"/>
    </linearGradient>
    <filter id="Path_776" x="-40.029" y="855.307" width="379.111" height="82.863" filterUnits="userSpaceOnUse">
      <feOffset dy="3" input="SourceAlpha"/>
      <feGaussianBlur stdDeviation="3" result="blur-5"/>
      <feFlood flood-opacity="0.161"/>
      <feComposite operator="in" in2="blur-5"/>
      <feComposite in="SourceGraphic"/>
    </filter>
    <clipPath id="clip-_5_Sign_In_Screen">
      <rect width="428" height="926"/>
    </clipPath>
  </defs>
  <g id="_5_Sign_In_Screen" data-name="5 Sign In Screen" clip-path="url(#clip-_5_Sign_In_Screen)">
    <rect width="428" height="926" fill="#fff"/>
    <g id="Header_tab" data-name="Header tab" transform="translate(-1 2)">
      <g transform="matrix(1, 0, 0, 1, 1, -2)" filter="url(#bbe242b310de7a804a25b5766782ff47)">
        <path id="bbe242b310de7a804a25b5766782ff47-2" data-name="bbe242b310de7a804a25b5766782ff47" d="M0,0H428a0,0,0,0,1,0,0V69a14,14,0,0,1-14,14H14A14,14,0,0,1,0,69V0A0,0,0,0,1,0,0Z" fill="#fff"/>
      </g>
      <g id="Stautus_Bar" data-name="Stautus Bar" transform="translate(8.813 8)">
        <g id="Pin-Right" transform="translate(354.729 0.5)">
          <path id="Battery" d="M37.494,2.5H57.006A1.5,1.5,0,0,1,58.5,4.005v6.489A1.5,1.5,0,0,1,57.006,12H37.494A1.5,1.5,0,0,1,36,10.495V4.005A1.5,1.5,0,0,1,37.494,2.5ZM59,5.5h.75a.744.744,0,0,1,.75.742V8.258A.748.748,0,0,1,59.75,9H59ZM37.508,3A1.012,1.012,0,0,0,36.5,4.008v6.483A1.007,1.007,0,0,0,37.508,11.5H56.992A1.012,1.012,0,0,0,58,10.492V4.008A1.007,1.007,0,0,0,56.992,3Zm0,.5H56.993a.5.5,0,0,1,.507.492v6.516a.5.5,0,0,1-.507.492H37.507A.5.5,0,0,1,37,10.508V3.992A.5.5,0,0,1,37.507,3.5Z" transform="translate(-2.854 1.5)" fill-rule="evenodd"/>
          <text id="_100_" data-name="100%" transform="translate(0 13)" font-size="12" font-family="Poppins-Regular, Poppins"><tspan x="0" y="0">100%</tspan></text>
        </g>
        <text id="_9:41_AM" data-name="9:41 AM" transform="translate(182.123 13)" font-size="12" font-family="Poppins-Regular, Poppins"><tspan x="0" y="0">9:41 AM</tspan></text>
        <g id="Signal" transform="translate(0 0.5)">
          <path id="Wi-Fi" d="M96.144,12.439,94.023,14.5,91.86,12.405a2.884,2.884,0,0,1,4.284.033Zm2.179-2.117h0l-1.089,1.058a4.46,4.46,0,0,0-6.465-.031l-1.09-1.056a6.036,6.036,0,0,1,8.644.029ZM100.5,8.207,99.412,9.264A7.612,7.612,0,0,0,88.59,9.237L87.5,8.182a9.188,9.188,0,0,1,13,.025Z" transform="translate(-6.5 -1.5)" fill-rule="evenodd"/>
          <text id="Sketch" transform="translate(37.5 13)" font-size="12" font-family="Poppins-Regular, Poppins"><tspan x="0" y="0">Sunny</tspan></text>
          <path id="Mobile-Signal" d="M9.25,13A2.75,2.75,0,1,1,12,10.25,2.75,2.75,0,0,1,9.25,13Zm7,0A2.75,2.75,0,1,1,19,10.25,2.75,2.75,0,0,1,16.25,13Zm7,0A2.75,2.75,0,1,1,26,10.25,2.75,2.75,0,0,1,23.25,13Zm7,0A2.75,2.75,0,1,1,33,10.25,2.75,2.75,0,0,1,30.25,13Zm7,0A2.75,2.75,0,1,1,40,10.25,2.75,2.75,0,0,1,37.25,13Z" transform="translate(-6.5 -1.5)" fill-rule="evenodd"/>
        </g>
      </g>
    </g>
    <text id="Forgot_Password_" data-name="Forgot Password?" transform="translate(218.75 743)" fill="#01ffff" font-size="16" font-family="Poppins-Light, Poppins" font-weight="300"><tspan x="-69.672" y="0">Forgot Password?</tspan></text>
    <rect id="Rectangle_147687" data-name="Rectangle 147687" width="378" height="65" rx="10" transform="translate(25 351)" fill="#01ffff" opacity="0.1"/>
    <text id="Don_t_have_an_Account_Sign_Up" data-name="Don&apos;t have an Account? Sign Up" transform="translate(214 798)" fill="#afafaf" font-size="18" font-family="Poppins-LightItalic, Poppins" font-weight="300" font-style="italic"><tspan x="-144.74" y="0">Don&apos;t have an Account?</tspan><tspan y="0" font-family="Poppins-Italic, Poppins" font-weight="400"> </tspan><tspan y="0" fill="#01ffff" font-size="19" font-family="Poppins-Regular, Poppins" font-weight="400" font-style="normal">Sign Up</tspan></text>
    <g id="Group_42693" data-name="Group 42693" transform="translate(-1.25 -26)">
      <g transform="matrix(1, 0, 0, 1, 1.25, 26)" filter="url(#Rectangle_2)">
        <rect id="Rectangle_2-2" data-name="Rectangle 2" width="245" height="43" rx="21.5" transform="translate(90 638)" fill="#01ffff"/>
      </g>
      <text id="Sign_In" data-name="Sign In" transform="translate(213.25 694)" fill="#fff" font-size="20" font-family="Poppins-SemiBold, Poppins" font-weight="600"><tspan x="-34.03" y="0">Sign In</tspan></text>
    </g>
    <g id="Vector_phone" data-name="Vector phone" transform="translate(-17.673 -288.403)">
      <path id="Intersection_14" data-name="Intersection 14" d="M38,204a18,18,0,0,1-18-18V162.491A32.52,32.52,0,0,1,62.907,204Z" transform="translate(229 399)" fill="#25eede"/>
      <path id="Intersection_13" data-name="Intersection 13" d="M41,43a42.838,42.838,0,0,1,3.937-18H81A18,18,0,0,1,99,43V83.312A43.028,43.028,0,0,1,41,43Z" transform="translate(247 379)" fill="url(#linear-gradient)"/>
      <path id="Path_41709" data-name="Path 41709" d="M2061.865-1068.533a116.556,116.556,0,0,0,13.016-17.295,175.046,175.046,0,0,0,9.149-18.161s2.315,8.609-1.225,23.114a152.456,152.456,0,0,1-6.637,22.287,74.624,74.624,0,0,1-9.242,16.3,35.247,35.247,0,0,0,9.93-2.942,24.656,24.656,0,0,0,7.174-5.885,18.305,18.305,0,0,1-3.3,10.16c-3.426,4.67-6.592,6.1-11,9.38s-5.005,5.973-8.37,7.984" transform="translate(-1715.349 1619)" fill="#c4c4c4"/>
      <g id="Group_42694" data-name="Group 42694" transform="translate(-1711 1629)">
        <g id="Rectangle_2552" data-name="Rectangle 2552" transform="translate(1960 -1228)" fill="none" stroke="#3d3e52" stroke-width="4">
          <rect width="99" height="204" rx="18" stroke="none"/>
          <rect x="2" y="2" width="95" height="200" rx="16" fill="none"/>
        </g>
        <path id="Rectangle_2553" data-name="Rectangle 2553" d="M0,0H53a0,0,0,0,1,0,0V7a6,6,0,0,1-6,6H6A6,6,0,0,1,0,7V0A0,0,0,0,1,0,0Z" transform="translate(1983 -1226)" fill="#3d3e52"/>
      </g>
    </g>
    <line id="Line_850" data-name="Line 850" x2="340" transform="translate(48.25 319.097)" fill="none" stroke="#707070" stroke-linecap="round" stroke-width="5"/>
    <g id="Group_2138" data-name="Group 2138" transform="translate(39.75 172.766)">
      <g id="Group_2137" data-name="Group 2137" transform="translate(22.859 86.029)">
        <path id="Path_848" data-name="Path 848" d="M106.1,262.273s34.706,4.224,35.528,4.327,1.129-2.988-2.978-4.327-29.264-5.873-29.264-5.873Z" transform="translate(-70.02 -208.801)" fill="#353535"/>
        <path id="Path_849" data-name="Path 849" d="M107.042,262.273s-34.6,4.224-35.527,4.327-1.129-2.988,2.978-4.327,29.264-5.873,29.264-5.873Z" transform="translate(-70.962 -208.801)" fill="#353535"/>
        <rect id="Rectangle_430" data-name="Rectangle 430" width="9.036" height="54.09" transform="translate(31.562)" fill="#545454"/>
      </g>
      <rect id="Rectangle_431" data-name="Rectangle 431" width="13.657" height="9.273" transform="translate(52.162 88.811)" fill="#353535"/>
      <path id="Path_850" data-name="Path 850" d="M145.631,218.4l-74.649-.206L48.7,127.73l4-1.03,22.179,86.544,70.644.1Z" transform="translate(-48.7 -126.7)" fill="#353535"/>
      <path id="Path_851" data-name="Path 851" d="M52.8,127.7s10.884-2.782,12.938,14.836,7.5,51.308,11.706,56.666c4.313,5.357-1.232,12.467-2.772,14.012C71.488,200.649,52.8,127.7,52.8,127.7Z" transform="translate(-48.59 -126.674)" fill="#515feb"/>
      <path id="Path_852" data-name="Path 852" d="M142.9,211.03H74.1s.719-7.83,8.112-7.83,24.233,5.46,31.215,4.224C120.614,206.291,143.718,199.388,142.9,211.03Z" transform="translate(-48.019 -124.383)" fill="#515feb"/>
    </g>
    <path id="Subtraction_157" data-name="Subtraction 157" d="M19.92,48.28H7.794L3.54,39.3c1.225-1.1,5.592-5.1,10.369-10.23.1.1.152.157.152.157l-.1-.208c1.41-1.517,2.759-3.031,4.009-4.5.167.335.27.523.275.53l-.164-.66c1.116-1.318,2.165-2.616,3.119-3.86,1.289-1.68,2.585-3.5,3.853-5.411.1.112.158.174.161.177l-.093-.278A118.746,118.746,0,0,0,33.494.129l0,.013c.038,1.967.125,8.984-.361,16.687L21.028,20.866c.008,0,.356.021.931.021a20.286,20.286,0,0,0,6.015-.838,16.752,16.752,0,0,0,5.147-2.973c-.264,4.094-.652,7.712-1.149,10.756H15.454a43.5,43.5,0,0,0,8.6,1.037,36.128,36.128,0,0,0,7.909-.984c-.237,1.441-.5,2.766-.783,3.939a28.2,28.2,0,0,1-6.685,12.612A21.787,21.787,0,0,1,19.92,48.28ZM3.493,39.2v0L0,31.824V11.112a20.053,20.053,0,0,1,4.49-.717,66.489,66.489,0,0,0,3.965,10.8A35.073,35.073,0,0,0,12.5,27.45L3.494,39.2Zm9.414-12.281v0L4.638,10.382c.559-.047,1.139-.092,1.754-.14H6.4c2.391-.186,5.1-.4,7.764-.833a66.978,66.978,0,0,0,1.395,8.518A33.788,33.788,0,0,0,16.8,21.84l-3.891,5.076Zm4.375-5.707v0L14.325,9.382A30.035,30.035,0,0,0,19.92,7.959,59.1,59.1,0,0,0,33.472.091L24.181,12.21,22.422,6.932a17.291,17.291,0,0,0,.652,4.788,9.23,9.23,0,0,0,.527,1.248l-6.316,8.241Z" transform="translate(177.159 268.317)" fill="#c4c4c4"/>
    <g id="Vector_human" data-name="Vector human" transform="translate(-92.296 -32.403)">
      <path id="Path_41713" data-name="Path 41713" d="M1906.63-1211.81a10.717,10.717,0,0,1,.165,6.342c-1.061,2.9-4.244,5.375-4.244,5.375s-.19-11.158-.19-11.512S1906.63-1211.81,1906.63-1211.81Z" transform="translate(-1637 1361)" fill="#dcbac8"/>
      <path id="Path_41717" data-name="Path 41717" d="M2,0H6A2.026,2.026,0,0,1,8,2.05V5.126a2.026,2.026,0,0,1-2,2.05H.372c-1.1,0-.686-.918-.686-2.05L0,2.05A2.026,2.026,0,0,1,2,0Z" transform="translate(263 326.021)" fill="#afafaf"/>
      <path id="Path_41718" data-name="Path 41718" d="M2,0H6A2,2,0,0,1,8,2V6.479C8,7.584,7.1,7,6,7H2A6.9,6.9,0,0,1-.791,5.87l.3-4.5S.9,0,2,0Z" transform="translate(241 323)" fill="#afafaf"/>
      <path id="Path_41712" data-name="Path 41712" d="M1892.017-1119.675v89.331h-13.129s-2.136-47.178-2.136-78.284,2.318-43.37,2.318-43.37h38.193a401.62,401.62,0,0,1,2.056,56.288c-1.051,31.106-6.262,68.137-6.262,68.137h-11.316l1.659-63.808Z" transform="translate(-1640 1355.092)" fill="#002e6b"/>
      <rect id="Rectangle_2561" data-name="Rectangle 2561" width="4" height="3" transform="translate(234.753 240)" fill="#dcbac8"/>
      <rect id="Rectangle_2562" data-name="Rectangle 2562" width="4" height="3" transform="translate(274.753 240)" fill="#dcbac8"/>
      <path id="Path_41715" data-name="Path 41715" d="M4,0C5.412,0,7.523,2.1,7.523,2.1A6.019,6.019,0,0,1,8,4a9.982,9.982,0,0,1-.477,1.791l-1.344.4-1.09.991A3.707,3.707,0,0,1,3.6,7.871a5.312,5.312,0,0,0-1.189-.692.841.841,0,0,1-.594-.991C.82,5.187,0,5.217,0,4A8.51,8.51,0,0,1,.577,1.93S2.436,0,4,0Z" transform="translate(232.753 242)" fill="#dcbac8"/>
      <path id="Path_41716" data-name="Path 41716" d="M4,0C5.412,0,7.523,2.1,7.523,2.1A6.019,6.019,0,0,1,8,4a9.982,9.982,0,0,1-.477,1.791l-1.344.4-1.09.991A3.707,3.707,0,0,1,3.6,7.871a5.312,5.312,0,0,0-1.189-.692.841.841,0,0,1-.594-.991C.82,5.187,0,5.217,0,4A8.51,8.51,0,0,1,.577,1.93S2.436,0,4,0Z" transform="translate(272.753 242)" fill="#dcbac8"/>
      <path id="Path_41714" data-name="Path 41714" d="M1901.419-1195.786s13.548,4.126,14.383,7.048.478,27.161,0,37.44,3.347,30.6,3.347,30.6H1907.2s4.064-22.471-2.869-30.6-24.862-1.912-24.862-1.912-2.51,2.869-3.347,11,0,21.515,0,21.515h-7.65s-1.912-25.579,0-42.074,7.207-22.148,7.207-22.148a9.406,9.406,0,0,0,3.832,1.668c1.709.378,4.421.407,7.078.856a11.449,11.449,0,0,0,3.607.226c1.012-.147,3.472-6.583,4.869-6.853.852-.231,2.209.721,2.209.721a8.216,8.216,0,0,0,1.758-1.533,28.272,28.272,0,0,0,2.029-2.705Z" transform="translate(-1635.642 1361.324)" fill="#01ffff"/>
      <path id="Path_41710" data-name="Path 41710" d="M1901.315-1212.64a3.769,3.769,0,0,0,4.085,0c2.02-1.4,2.02-2.708,0-4.106s-1.616-.4-4.085-1.488-3.729-4.351-3.729-4.351-10.722-.466-14.3,4.351,0,11.188,0,14.917-5.594,6.06-7.459,8.08,0,6.992,0,9.323,9.789,2.331,13.052,3.108,4.2-4.662,5.594-6.215,2.331,0,3.108,0,2.8-2.8,3.729-3.729S1901.315-1212.64,1901.315-1212.64Z" transform="translate(-1635.933 1362)" fill="#282f37"/>
      <path id="Path_817" data-name="Path 817" d="M335.861,238.822s1.2,8.246,11.472,13.6.821,7.933-8.728,6.388-13.037-.453-16.015-2.308,2.666-13.456,3.693-16.753S335.861,238.822,335.861,238.822Z" transform="translate(-86.813 89.743)" fill="url(#linear-gradient-2)"/>
      <path id="Path_41719" data-name="Path 41719" d="M335.758,240.736s1.306,6.332,11.574,11.689.821,7.933-8.728,6.388-13.037-.453-16.015-2.308,2.564-11.541,3.59-14.839S335.758,240.736,335.758,240.736Z" transform="translate(-63.587 89.743)" fill="url(#linear-gradient-2)"/>
    </g>
    <rect id="Rectangle_2563" data-name="Rectangle 2563" width="72" height="14" rx="7" transform="translate(243.75 192.597)" fill="#002e6b"/>
    <rect id="Rectangle_2564" data-name="Rectangle 2564" width="72" height="14" rx="7" transform="translate(243.75 211.597)" fill="#002e6b"/>
    <rect id="Rectangle_2565" data-name="Rectangle 2565" width="48" height="14" rx="7" transform="translate(256.75 228.597)" fill="#01ffff"/>
    <g id="Group_42697" data-name="Group 42697" transform="translate(-31.029 819)">
      <path id="Path_774" data-name="Path 774" d="M37.361,50.113a50.96,50.96,0,0,1,4.6-4.241c2.458-1.72,5.9-4.668,10.57-7.862,4.425-3.44,10.57-6.879,17.207-10.811a97.015,97.015,0,0,1,11.308-5.9,124.149,124.149,0,0,1,12.783-5.9c4.671-1.72,9.341-3.685,14.5-5.405,5.162-1.474,10.57-3.194,15.978-4.668C135.621,2.876,147.666.665,160.695.665c3.2,0,6.391-.246,9.587,0s6.637.491,9.833.491a63.265,63.265,0,0,1,9.833,1.228c3.2.491,6.637.983,9.833,1.72,13.274,2.457,26.3,6.879,38.594,11.793a312,312,0,0,1,35.152,17.444c11.062,6.142,21.386,12.53,31.465,18.427A297.775,297.775,0,0,0,333.507,67a125.7,125.7,0,0,0,26.3,9.336c2.212.491,4.179.983,6.146,1.228s4.179.491,6.146.737c.983.246,1.967.246,2.95.491H378a43.54,43.54,0,0,1,5.654.246,138.727,138.727,0,0,0,19.174-1.72c5.408-.737,9.587-1.966,12.537-2.457,2.95-.737,4.671-.983,4.671-.983s-1.229.983-3.687,2.7-5.9,4.668-11.062,7.125c-2.458,1.228-5.408,2.948-8.6,4.423-3.2,1.228-6.883,2.7-10.816,3.931-1.967.491-4.179.983-6.146,1.474-.983.246-2.212.491-3.2.737-1.229.246-2.212.246-3.441.491a70.967,70.967,0,0,0-7.129.983c-2.458.246-4.917.246-7.62.246a121.1,121.1,0,0,1-32.94-4.668A253.827,253.827,0,0,1,291.717,78.8c-11.062-5.16-22.124-10.565-32.94-15.97s-21.632-10.811-32.694-15.233c-2.7-1.228-5.408-2.211-8.112-3.194s-5.408-2.211-8.112-2.948-5.408-1.72-8.112-2.7c-2.7-.737-5.408-1.474-8.358-2.211a195.829,195.829,0,0,0-32.94-5.405,228.233,228.233,0,0,0-31.711-.246c-5.162.246-10.079.983-15,1.474s-9.587,1.474-14.012,2.211c-4.671.491-8.85,1.72-13.029,2.457-4.179.983-8.112,1.474-11.8,2.457C67.529,41.45,61.137,42.678,55.729,44.4s-9.587,2.7-12.537,3.44A13.968,13.968,0,0,0,37.361,50.113Z" transform="translate(55.874 1.102)" fill="url(#linear-gradient-4)"/>
      <g transform="matrix(1, 0, 0, 1, 31.03, -819)" filter="url(#Path_777)">
        <path id="Path_777-2" data-name="Path 777" d="M38.3,44.527l3.687-2.686c2.458-1.567,5.9-4.253,10.57-7.163,4.425-3.134,10.57-6.267,17.207-9.849a100.709,100.709,0,0,1,11.308-5.372,130.194,130.194,0,0,1,12.783-5.372c4.671-1.567,9.341-3.358,14.5-4.924,5.162-1.343,10.57-2.91,15.978-4.253C135.645,2.67,147.69.655,160.719.655c3.2,0,6.391-.224,9.587,0s6.637.448,9.833.448a69.151,69.151,0,0,1,9.833,1.119c3.2.448,6.637.9,9.833,1.567,13.274,2.238,26.3,6.267,38.594,10.744a325.3,325.3,0,0,1,35.152,15.892c11.062,5.6,21.386,11.416,31.465,16.788a308.537,308.537,0,0,0,28.515,13.878,134.033,134.033,0,0,0,26.3,8.506c2.212.448,4.179.9,6.146,1.119s4.179.448,6.146.672c.983.224,1.967.224,2.95.448h2.95a47.761,47.761,0,0,1,5.654.224,151.923,151.923,0,0,0,19.174-1.567c5.408-.672,9.587-1.791,12.537-2.238,2.95-.672,4.671-.9,4.671-.9s-1.229.9-3.687,2.462a67.931,67.931,0,0,1-11.062,6.491c-2.458,1.119-5.408,2.686-8.6,4.029-3.2,1.119-6.883,2.462-10.816,3.581-1.967.448-4.179.9-6.146,1.343-.983.224-2.212.448-3.2.672-1.229.224-2.212.224-3.441.448-2.458.224-4.671.448-7.129.9-2.458.224-4.916.224-7.62.224a132.167,132.167,0,0,1-32.94-4.253,269.981,269.981,0,0,1-33.677-11.416c-11.062-4.7-22.124-9.625-32.94-14.549s-21.632-9.849-32.694-13.878c-2.7-1.119-5.408-2.015-8.112-2.91s-5.408-2.015-8.112-2.686-5.408-1.567-8.112-2.462c-2.7-.672-5.408-1.343-8.358-2.015a213.459,213.459,0,0,0-32.94-4.924,250.464,250.464,0,0,0-31.711-.224c-5.162.224-10.079.9-15,1.343s-9.587,1.343-14.012,2.015c-4.671.448-8.85,1.567-13.028,2.238-4.179.9-8.112,1.343-11.8,2.238-7.375,1.791-13.766,2.91-19.174,4.477s-9.587,2.462-12.537,3.134A34.523,34.523,0,0,0,38.3,44.527Z" transform="translate(23.85 825.67)" fill="url(#linear-gradient-5)"/>
      </g>
      <g transform="matrix(1, 0, 0, 1, 31.03, -819)" filter="url(#Path_775)">
        <path id="Path_775-2" data-name="Path 775" d="M125.6,10.493s4.179.983,11.308,3.194c3.687,1.228,7.866,2.457,12.783,4.177s10.325,3.685,16.47,6.142c5.9,2.457,12.291,4.914,19.174,7.862,6.637,2.948,13.766,5.9,21.141,8.845,7.129,3.194,14.749,6.142,22.37,8.845A128.353,128.353,0,0,0,251.952,55.7a62.1,62.1,0,0,0,22.37-.246,40.706,40.706,0,0,0,5.162-1.474c.737-.246,1.721-.737,2.458-.983l1.229-.491h0s-.737.246-.246.246h.246l.246-.246.737-.246a5.376,5.376,0,0,0,1.229-.737c.246-.246.492-.246.492-.491A6.518,6.518,0,0,0,287.35,49.8a16.919,16.919,0,0,0,2.7-3.194c3.441-4.914,4.671-11.548,4.179-17.444a24.606,24.606,0,0,0-6.391-15.233C284.4,10,279.484,7.79,275.059,6.562a49.22,49.22,0,0,0-12.537-1.474,70.567,70.567,0,0,0-8.6.491,26.8,26.8,0,0,1-2.95.246s.983-.491,2.7-1.228a39.164,39.164,0,0,1,8.358-2.948,38.992,38.992,0,0,1,14.012-1.72,31.33,31.33,0,0,1,18.191,6.634c5.9,4.668,10.325,12.285,12.045,20.638a39.638,39.638,0,0,1-4.425,26.535,36.845,36.845,0,0,1-4.671,6.142,18.366,18.366,0,0,1-3.2,2.7l-1.967,1.228a8.08,8.08,0,0,1-1.475.737l-.738.246-.246.246h-.246l-.492.246-1.721.737a17.074,17.074,0,0,1-3.2,1.228,56.271,56.271,0,0,1-6.883,1.966A67.368,67.368,0,0,1,249,69.459a134.757,134.757,0,0,1-25.565-7.617c-7.866-3.194-15.487-6.879-22.616-10.565-14.258-7.371-27.04-14.742-38.1-20.884C140.349,18.6,125.6,10.493,125.6,10.493Z" transform="translate(152.12 819.12)" fill="#002e6b"/>
      </g>
      <g transform="matrix(1, 0, 0, 1, 31.03, -819)" filter="url(#Path_776)">
        <path id="Path_776-2" data-name="Path 776" d="M361.111,81.963C343.9,65.01,265.732,17.1,192.478,17.1,120.7,17.346,81.121,60.1,0,53.463,72.026,91.3,138.4,65.993,189.036,55.674,279.252,37,361.111,81.963,361.111,81.963Z" transform="translate(-31.03 844.21)" fill="url(#linear-gradient-6)"/>
      </g>
    </g>
    <text id="Welcome_Back._Please_enter_your_details_to_Login" data-name="Welcome Back.
Please, enter your details to Login" transform="translate(56 376)" fill="#002e6b" font-size="19" font-family="Poppins-Bold, Poppins" font-weight="700"><tspan x="0" y="0">Welcome Back.</tspan><tspan font-family="Poppins-Regular, Poppins" font-weight="400"><tspan x="0" y="29">Please, enter your details to Login</tspan></tspan></text>
    <g id="Icon_material-bubble-chart" data-name="Icon material-bubble-chart" transform="translate(232.442 130)">
      <path id="Path_83157" data-name="Path 83157" d="M15.6,21.6a4.8,4.8,0,1,1-4.8-4.8A4.8,4.8,0,0,1,15.6,21.6Z" fill="#f2e200"/>
      <path id="Path_83158" data-name="Path 83158" d="M25.2,27a3,3,0,1,1-3-3A3,3,0,0,1,25.2,27Z" fill="#01ffff"/>
      <path id="Path_83159" data-name="Path 83159" d="M30,13.2A7.2,7.2,0,1,1,22.8,6,7.2,7.2,0,0,1,30,13.2Z" fill="#002e6b"/>
    </g>
    <g id="Headline_Button" data-name="Headline Button" transform="translate(158 32)">
      <rect id="Rectangle_31" data-name="Rectangle 31" width="92" height="41" rx="20.5" fill="#01ffff"/>
      <text id="Sign_In-2" data-name="Sign In" transform="translate(17 27)" fill="#002e6b" font-size="18" font-family="Poppins-Light, Poppins" font-weight="300"><tspan x="0" y="0">Sign In</tspan></text>
    </g>
    <path id="Icon_ionic-ios-arrow-back" data-name="Icon ionic-ios-arrow-back" d="M15.321,18l8.937-8.93a1.688,1.688,0,0,0-2.391-2.384L11.742,16.8a1.685,1.685,0,0,0-.049,2.327L21.86,29.32a1.688,1.688,0,0,0,2.391-2.384Z" transform="translate(-0.754 18.807)" fill="#002e6b"/>
    <g id="Group_165583" data-name="Group 165583" transform="translate(6.5 184.902)">
      <text id="TSLA" transform="translate(54 278)" fill="#002d6a" font-size="18" font-family="Poppins-SemiBold, Poppins" font-weight="600"><tspan x="0" y="0">Phone Number or Email</tspan></text>
      <text id="TSLA-2" data-name="TSLA" transform="translate(22 307.113)" fill="#d1d2d9" font-size="15" font-family="Poppins-Light, Poppins" font-weight="300"><tspan x="0" y="0">Enter your login details</tspan></text>
      <line id="Line_1117" data-name="Line 1117" x2="372" transform="translate(21.5 319.5)" fill="none" stroke="#707070" stroke-linecap="round" stroke-width="0.17"/>
      <path id="Icon_awesome-landmark" data-name="Icon awesome-landmark" d="M23.624,4.338,12.586.1a1.505,1.505,0,0,0-1.058,0L.489,4.338A.754.754,0,0,0,0,5.044V6.782a.753.753,0,0,0,.754.754H23.36a.753.753,0,0,0,.754-.754V5.044A.754.754,0,0,0,23.624,4.338Zm-20.61,4.7v7.535H2.261a.753.753,0,0,0-.754.754v2.261h21.1V17.331a.753.753,0,0,0-.754-.754H21.1V9.042H18.085v7.535H13.564V9.042H10.55v7.535H6.028V9.042ZM23.36,21.1H.754A.753.753,0,0,0,0,21.853V23.36a.753.753,0,0,0,.754.754H23.36a.753.753,0,0,0,.754-.754V21.853A.753.753,0,0,0,23.36,21.1Z" transform="translate(21.999 259.613)" fill="#01ffff"/>
    </g>
    <g id="Group_165584" data-name="Group 165584" transform="translate(0 -29.023)">
      <text id="TSLA-3" data-name="TSLA" transform="translate(67.5 583.524)" fill="#002d6a" font-size="18" font-family="Poppins-SemiBold, Poppins" font-weight="600"><tspan x="0" y="0">Password</tspan></text>
      <text id="TSLA-4" data-name="TSLA" transform="translate(28.5 612.638)" fill="#d1d2d9" font-size="15" font-family="Poppins-Light, Poppins" font-weight="300"><tspan x="0" y="0">Enter your password</tspan></text>
      <line id="Line_1117-2" data-name="Line 1117" x2="372" transform="translate(28 625.024)" fill="none" stroke="#01ffff" stroke-linecap="round" stroke-width="2"/>
      <path id="Icon_ionic-ios-lock" data-name="Icon ionic-ios-lock" d="M26.438,13.5H24.75V10.216a6.75,6.75,0,1,0-13.5-.091V13.5H9.563A2.821,2.821,0,0,0,6.75,16.313v13.5a2.821,2.821,0,0,0,2.813,2.813H26.438a2.821,2.821,0,0,0,2.813-2.812v-13.5A2.821,2.821,0,0,0,26.438,13.5Zm-7.453,8.775v4.837a1.008,1.008,0,0,1-.935,1.013.986.986,0,0,1-1.034-.984V22.275a2.25,2.25,0,1,1,1.969,0Zm3.8-8.775H13.219V10.125a4.781,4.781,0,0,1,9.563,0Z" transform="translate(21.75 556.626)" fill="#01ffff"/>
      <path id="Icon_awesome-eye-slash" data-name="Icon awesome-eye-slash" d="M10.7,13.374a4.8,4.8,0,0,1-4.778-4.45L2.414,6.213A11.143,11.143,0,0,0,1.186,8.071a1.082,1.082,0,0,0,0,.976A10.724,10.724,0,0,0,10.7,14.979a10.385,10.385,0,0,0,2.6-.35l-1.735-1.342a4.819,4.819,0,0,1-.869.087Zm10.492,1.943L17.5,12.46a11.075,11.075,0,0,0,2.717-3.413,1.082,1.082,0,0,0,0-.976A10.724,10.724,0,0,0,10.7,2.14,10.3,10.3,0,0,0,5.774,3.4L1.52.113A.535.535,0,0,0,.769.207l-.656.845A.535.535,0,0,0,.207,1.8l19.672,15.2a.535.535,0,0,0,.751-.094l.657-.845a.535.535,0,0,0-.094-.751Zm-6.143-4.748L13.735,9.553A3.168,3.168,0,0,0,9.853,5.476a1.593,1.593,0,0,1,.311.943,1.559,1.559,0,0,1-.051.334l-2.461-1.9A4.758,4.758,0,0,1,10.7,3.745a4.812,4.812,0,0,1,4.815,4.815,4.7,4.7,0,0,1-.465,2.01Z" transform="translate(372.551 600.52)" fill="#002d6a"/>
    </g>
  </g>
</svg>
