<svg xmlns="http://www.w3.org/2000/svg" xmlns:xlink="http://www.w3.org/1999/xlink" width="428" height="926" viewBox="0 0 428 926">
  <defs>
    <filter id="bbe242b310de7a804a25b5766782ff47" x="-14" y="-14" width="458" height="113" filterUnits="userSpaceOnUse">
      <feOffset dx="1" dy="1" input="SourceAlpha"/>
      <feGaussianBlur stdDeviation="5" result="blur"/>
      <feFlood flood-color="#73979a" flood-opacity="0.161"/>
      <feComposite operator="in" in2="blur"/>
      <feComposite in="SourceGraphic"/>
    </filter>
    <linearGradient id="linear-gradient" x1="0.11" y1="0.139" x2="0.803" y2="1" gradientUnits="objectBoundingBox">
      <stop offset="0" stop-color="#f7c735"/>
      <stop offset="1" stop-color="#e29d01"/>
    </linearGradient>
    <linearGradient id="linear-gradient-2" x1="0.871" y1="-0.212" x2="0.117" y2="0.278" xlink:href="#linear-gradient"/>
    <filter id="Path_777" x="42.061" y="820.225" width="399.76" height="104.949" filterUnits="userSpaceOnUse">
      <feOffset dy="3" input="SourceAlpha"/>
      <feGaussianBlur stdDeviation="3" result="blur-2"/>
      <feFlood flood-opacity="0.161"/>
      <feComposite operator="in" in2="blur-2"/>
      <feComposite in="SourceGraphic"/>
    </filter>
    <filter id="Path_775" x="257.635" y="813" width="199.307" height="88.93" filterUnits="userSpaceOnUse">
      <feOffset dy="3" input="SourceAlpha"/>
      <feGaussianBlur stdDeviation="3" result="blur-3"/>
      <feFlood flood-opacity="0.161"/>
      <feComposite operator="in" in2="blur-3"/>
      <feComposite in="SourceGraphic"/>
    </filter>
    <linearGradient id="linear-gradient-3" x1="0.5" x2="0.5" y2="1" gradientUnits="objectBoundingBox">
      <stop offset="0" stop-color="#01ffff"/>
      <stop offset="1" stop-color="#068b8b"/>
    </linearGradient>
    <filter id="Path_776" x="-51.115" y="855.307" width="379.111" height="82.863" filterUnits="userSpaceOnUse">
      <feOffset dy="3" input="SourceAlpha"/>
      <feGaussianBlur stdDeviation="3" result="blur-4"/>
      <feFlood flood-opacity="0.161"/>
      <feComposite operator="in" in2="blur-4"/>
      <feComposite in="SourceGraphic"/>
    </filter>
    <clipPath id="clip-path">
      <rect width="370" height="71" fill="none"/>
    </clipPath>
    <filter id="Rectangle_2" x="83" y="711" width="263" height="61" filterUnits="userSpaceOnUse">
      <feOffset dy="3" input="SourceAlpha"/>
      <feGaussianBlur stdDeviation="3" result="blur-5"/>
      <feFlood flood-opacity="0.161"/>
      <feComposite operator="in" in2="blur-5"/>
      <feComposite in="SourceGraphic"/>
    </filter>
    <filter id="Ellipse_46" x="69.5" y="313.5" width="109" height="109" filterUnits="userSpaceOnUse">
      <feOffset dy="13" input="SourceAlpha"/>
      <feGaussianBlur stdDeviation="5.5" result="blur-6"/>
      <feFlood flood-color="#494b4e" flood-opacity="0.161"/>
      <feComposite operator="in" in2="blur-6"/>
      <feComposite in="SourceGraphic"/>
    </filter>
    <filter id="Ellipse_46-2" x="161.5" y="313.5" width="109" height="109" filterUnits="userSpaceOnUse">
      <feOffset dy="13" input="SourceAlpha"/>
      <feGaussianBlur stdDeviation="5.5" result="blur-7"/>
      <feFlood flood-color="#494b4e" flood-opacity="0.161"/>
      <feComposite operator="in" in2="blur-7"/>
      <feComposite in="SourceGraphic"/>
    </filter>
    <filter id="Ellipse_46-3" x="253.5" y="313.5" width="109" height="109" filterUnits="userSpaceOnUse">
      <feOffset dy="13" input="SourceAlpha"/>
      <feGaussianBlur stdDeviation="5.5" result="blur-8"/>
      <feFlood flood-color="#494b4e" flood-opacity="0.161"/>
      <feComposite operator="in" in2="blur-8"/>
      <feComposite in="SourceGraphic"/>
    </filter>
    <filter id="Ellipse_46-4" x="69.5" y="405.5" width="109" height="109" filterUnits="userSpaceOnUse">
      <feOffset dy="13" input="SourceAlpha"/>
      <feGaussianBlur stdDeviation="5.5" result="blur-9"/>
      <feFlood flood-color="#494b4e" flood-opacity="0.161"/>
      <feComposite operator="in" in2="blur-9"/>
      <feComposite in="SourceGraphic"/>
    </filter>
    <filter id="Ellipse_46-5" x="161.5" y="405.5" width="109" height="109" filterUnits="userSpaceOnUse">
      <feOffset dy="13" input="SourceAlpha"/>
      <feGaussianBlur stdDeviation="5.5" result="blur-10"/>
      <feFlood flood-color="#494b4e" flood-opacity="0.161"/>
      <feComposite operator="in" in2="blur-10"/>
      <feComposite in="SourceGraphic"/>
    </filter>
    <filter id="Ellipse_46-6" x="253.5" y="405.5" width="109" height="109" filterUnits="userSpaceOnUse">
      <feOffset dy="13" input="SourceAlpha"/>
      <feGaussianBlur stdDeviation="5.5" result="blur-11"/>
      <feFlood flood-color="#494b4e" flood-opacity="0.161"/>
      <feComposite operator="in" in2="blur-11"/>
      <feComposite in="SourceGraphic"/>
    </filter>
    <filter id="Ellipse_46-7" x="69.5" y="497.5" width="109" height="109" filterUnits="userSpaceOnUse">
      <feOffset dy="13" input="SourceAlpha"/>
      <feGaussianBlur stdDeviation="5.5" result="blur-12"/>
      <feFlood flood-color="#494b4e" flood-opacity="0.161"/>
      <feComposite operator="in" in2="blur-12"/>
      <feComposite in="SourceGraphic"/>
    </filter>
    <filter id="Ellipse_46-8" x="161.5" y="497.5" width="109" height="109" filterUnits="userSpaceOnUse">
      <feOffset dy="13" input="SourceAlpha"/>
      <feGaussianBlur stdDeviation="5.5" result="blur-13"/>
      <feFlood flood-color="#494b4e" flood-opacity="0.161"/>
      <feComposite operator="in" in2="blur-13"/>
      <feComposite in="SourceGraphic"/>
    </filter>
    <filter id="Ellipse_46-9" x="253.5" y="497.5" width="109" height="109" filterUnits="userSpaceOnUse">
      <feOffset dy="13" input="SourceAlpha"/>
      <feGaussianBlur stdDeviation="5.5" result="blur-14"/>
      <feFlood flood-color="#494b4e" flood-opacity="0.161"/>
      <feComposite operator="in" in2="blur-14"/>
      <feComposite in="SourceGraphic"/>
    </filter>
    <filter id="Ellipse_46-10" x="161.5" y="590.5" width="109" height="109" filterUnits="userSpaceOnUse">
      <feOffset dy="13" input="SourceAlpha"/>
      <feGaussianBlur stdDeviation="5.5" result="blur-15"/>
      <feFlood flood-color="#494b4e" flood-opacity="0.161"/>
      <feComposite operator="in" in2="blur-15"/>
      <feComposite in="SourceGraphic"/>
    </filter>
    <filter id="Ellipse_721" x="253.5" y="590.5" width="109" height="109" filterUnits="userSpaceOnUse">
      <feOffset dy="13" input="SourceAlpha"/>
      <feGaussianBlur stdDeviation="5.5" result="blur-16"/>
      <feFlood flood-color="#494b4e" flood-opacity="0.161"/>
      <feComposite operator="in" in2="blur-16"/>
      <feComposite in="SourceGraphic"/>
    </filter>
    <filter id="Ellipse_720" x="65.5" y="590.5" width="109" height="109" filterUnits="userSpaceOnUse">
      <feOffset dy="13" input="SourceAlpha"/>
      <feGaussianBlur stdDeviation="5.5" result="blur-17"/>
      <feFlood flood-color="#494b4e" flood-opacity="0.161"/>
      <feComposite operator="in" in2="blur-17"/>
      <feComposite in="SourceGraphic"/>
    </filter>
    <clipPath id="clip-_6_Sign_In_Verification_Screen">
      <rect width="428" height="926"/>
    </clipPath>
  </defs>
  <g id="_6_Sign_In_Verification_Screen" data-name="6 Sign In Verification Screen" clip-path="url(#clip-_6_Sign_In_Verification_Screen)">
    <rect width="428" height="926" fill="#fff"/>
    <g id="Header_tab" data-name="Header tab" transform="translate(-1 2)">
      <g transform="matrix(1, 0, 0, 1, 1, -2)" filter="url(#bbe242b310de7a804a25b5766782ff47)">
        <path id="bbe242b310de7a804a25b5766782ff47-2" data-name="bbe242b310de7a804a25b5766782ff47" d="M0,0H428a0,0,0,0,1,0,0V69a14,14,0,0,1-14,14H14A14,14,0,0,1,0,69V0A0,0,0,0,1,0,0Z" fill="#fff"/>
      </g>
      <g id="Stautus_Bar" data-name="Stautus Bar" transform="translate(8.813 5.5)">
        <g id="Pin-Right" transform="translate(354.729 0.5)">
          <path id="Battery" d="M37.494,2.5H57.006A1.5,1.5,0,0,1,58.5,4.005v6.489A1.5,1.5,0,0,1,57.006,12H37.494A1.5,1.5,0,0,1,36,10.495V4.005A1.5,1.5,0,0,1,37.494,2.5ZM59,5.5h.75a.744.744,0,0,1,.75.742V8.258A.748.748,0,0,1,59.75,9H59ZM37.508,3A1.012,1.012,0,0,0,36.5,4.008v6.483A1.007,1.007,0,0,0,37.508,11.5H56.992A1.012,1.012,0,0,0,58,10.492V4.008A1.007,1.007,0,0,0,56.992,3Zm0,.5H56.993a.5.5,0,0,1,.507.492v6.516a.5.5,0,0,1-.507.492H37.507A.5.5,0,0,1,37,10.508V3.992A.5.5,0,0,1,37.507,3.5Z" transform="translate(-2.854 1.5)" fill-rule="evenodd"/>
          <text id="_100_" data-name="100%" transform="translate(0 13)" font-size="12" font-family="Poppins-Regular, Poppins"><tspan x="0" y="0">100%</tspan></text>
        </g>
        <text id="_9:41_AM" data-name="9:41 AM" transform="translate(182.123 13)" font-size="12" font-family="Poppins-Regular, Poppins"><tspan x="0" y="0">9:41 AM</tspan></text>
        <g id="Signal" transform="translate(0 0.5)">
          <path id="Wi-Fi" d="M96.144,12.439,94.023,14.5,91.86,12.405a2.884,2.884,0,0,1,4.284.033Zm2.179-2.117h0l-1.089,1.058a4.46,4.46,0,0,0-6.465-.031l-1.09-1.056a6.036,6.036,0,0,1,8.644.029ZM100.5,8.207,99.412,9.264A7.612,7.612,0,0,0,88.59,9.237L87.5,8.182a9.188,9.188,0,0,1,13,.025Z" transform="translate(-6.5 -1.5)" fill-rule="evenodd"/>
          <text id="Sketch" transform="translate(37.5 13)" font-size="12" font-family="Poppins-Regular, Poppins"><tspan x="0" y="0">Sunny</tspan></text>
          <path id="Mobile-Signal" d="M9.25,13A2.75,2.75,0,1,1,12,10.25,2.75,2.75,0,0,1,9.25,13Zm7,0A2.75,2.75,0,1,1,19,10.25,2.75,2.75,0,0,1,16.25,13Zm7,0A2.75,2.75,0,1,1,26,10.25,2.75,2.75,0,0,1,23.25,13Zm7,0A2.75,2.75,0,1,1,33,10.25,2.75,2.75,0,0,1,30.25,13Zm7,0A2.75,2.75,0,1,1,40,10.25,2.75,2.75,0,0,1,37.25,13Z" transform="translate(-6.5 -1.5)" fill-rule="evenodd"/>
        </g>
      </g>
    </g>
    <g id="Headline_Button" data-name="Headline Button" transform="translate(132 32)">
      <rect id="Rectangle_31" data-name="Rectangle 31" width="134" height="41" rx="20.5" fill="#01ffff"/>
      <text id="Verification" transform="translate(17 27)" fill="#002e6b" font-size="18" font-family="Poppins-Light, Poppins" font-weight="300"><tspan x="0" y="0">Verification</tspan></text>
    </g>
    <g id="Group_41792" data-name="Group 41792" transform="translate(-42.115 819)">
      <path id="Path_774" data-name="Path 774" d="M37.361,50.113a50.96,50.96,0,0,1,4.6-4.241c2.458-1.72,5.9-4.668,10.57-7.862,4.425-3.44,10.57-6.879,17.207-10.811a97.015,97.015,0,0,1,11.308-5.9,124.149,124.149,0,0,1,12.783-5.9c4.671-1.72,9.341-3.685,14.5-5.405,5.162-1.474,10.57-3.194,15.978-4.668C135.621,2.876,147.666.665,160.695.665c3.2,0,6.391-.246,9.587,0s6.637.491,9.833.491a63.265,63.265,0,0,1,9.833,1.228c3.2.491,6.637.983,9.833,1.72,13.274,2.457,26.3,6.879,38.594,11.793a312,312,0,0,1,35.152,17.444c11.062,6.142,21.386,12.53,31.465,18.427A297.775,297.775,0,0,0,333.507,67a125.7,125.7,0,0,0,26.3,9.336c2.212.491,4.179.983,6.146,1.228s4.179.491,6.146.737c.983.246,1.967.246,2.95.491H378a43.54,43.54,0,0,1,5.654.246,138.727,138.727,0,0,0,19.174-1.72c5.408-.737,9.587-1.966,12.537-2.457,2.95-.737,4.671-.983,4.671-.983s-1.229.983-3.687,2.7-5.9,4.668-11.062,7.125c-2.458,1.228-5.408,2.948-8.6,4.423-3.2,1.228-6.883,2.7-10.816,3.931-1.967.491-4.179.983-6.146,1.474-.983.246-2.212.491-3.2.737-1.229.246-2.212.246-3.441.491a70.967,70.967,0,0,0-7.129.983c-2.458.246-4.917.246-7.62.246a121.1,121.1,0,0,1-32.94-4.668A253.827,253.827,0,0,1,291.717,78.8c-11.062-5.16-22.124-10.565-32.94-15.97s-21.632-10.811-32.694-15.233c-2.7-1.228-5.408-2.211-8.112-3.194s-5.408-2.211-8.112-2.948-5.408-1.72-8.112-2.7c-2.7-.737-5.408-1.474-8.358-2.211a195.829,195.829,0,0,0-32.94-5.405,228.233,228.233,0,0,0-31.711-.246c-5.162.246-10.079.983-15,1.474s-9.587,1.474-14.012,2.211c-4.671.491-8.85,1.72-13.029,2.457-4.179.983-8.112,1.474-11.8,2.457C67.529,41.45,61.137,42.678,55.729,44.4s-9.587,2.7-12.537,3.44A13.968,13.968,0,0,0,37.361,50.113Z" transform="translate(55.874 1.102)" fill="url(#linear-gradient)"/>
      <g transform="matrix(1, 0, 0, 1, 42.12, -819)" filter="url(#Path_777)">
        <path id="Path_777-2" data-name="Path 777" d="M38.3,44.527l3.687-2.686c2.458-1.567,5.9-4.253,10.57-7.163,4.425-3.134,10.57-6.267,17.207-9.849a100.709,100.709,0,0,1,11.308-5.372,130.194,130.194,0,0,1,12.783-5.372c4.671-1.567,9.341-3.358,14.5-4.924,5.162-1.343,10.57-2.91,15.978-4.253C135.645,2.67,147.69.655,160.719.655c3.2,0,6.391-.224,9.587,0s6.637.448,9.833.448a69.151,69.151,0,0,1,9.833,1.119c3.2.448,6.637.9,9.833,1.567,13.274,2.238,26.3,6.267,38.594,10.744a325.3,325.3,0,0,1,35.152,15.892c11.062,5.6,21.386,11.416,31.465,16.788a308.537,308.537,0,0,0,28.515,13.878,134.033,134.033,0,0,0,26.3,8.506c2.212.448,4.179.9,6.146,1.119s4.179.448,6.146.672c.983.224,1.967.224,2.95.448h2.95a47.761,47.761,0,0,1,5.654.224,151.923,151.923,0,0,0,19.174-1.567c5.408-.672,9.587-1.791,12.537-2.238,2.95-.672,4.671-.9,4.671-.9s-1.229.9-3.687,2.462a67.931,67.931,0,0,1-11.062,6.491c-2.458,1.119-5.408,2.686-8.6,4.029-3.2,1.119-6.883,2.462-10.816,3.581-1.967.448-4.179.9-6.146,1.343-.983.224-2.212.448-3.2.672-1.229.224-2.212.224-3.441.448-2.458.224-4.671.448-7.129.9-2.458.224-4.916.224-7.62.224a132.167,132.167,0,0,1-32.94-4.253,269.981,269.981,0,0,1-33.677-11.416c-11.062-4.7-22.124-9.625-32.94-14.549s-21.632-9.849-32.694-13.878c-2.7-1.119-5.408-2.015-8.112-2.91s-5.408-2.015-8.112-2.686-5.408-1.567-8.112-2.462c-2.7-.672-5.408-1.343-8.358-2.015a213.459,213.459,0,0,0-32.94-4.924,250.464,250.464,0,0,0-31.711-.224c-5.162.224-10.079.9-15,1.343s-9.587,1.343-14.012,2.015c-4.671.448-8.85,1.567-13.028,2.238-4.179.9-8.112,1.343-11.8,2.238-7.375,1.791-13.766,2.91-19.174,4.477s-9.587,2.462-12.537,3.134A34.523,34.523,0,0,0,38.3,44.527Z" transform="translate(12.76 825.67)" fill="url(#linear-gradient-2)"/>
      </g>
      <g transform="matrix(1, 0, 0, 1, 42.12, -819)" filter="url(#Path_775)">
        <path id="Path_775-2" data-name="Path 775" d="M125.6,10.493s4.179.983,11.308,3.194c3.687,1.228,7.866,2.457,12.783,4.177s10.325,3.685,16.47,6.142c5.9,2.457,12.291,4.914,19.174,7.862,6.637,2.948,13.766,5.9,21.141,8.845,7.129,3.194,14.749,6.142,22.37,8.845A128.353,128.353,0,0,0,251.952,55.7a62.1,62.1,0,0,0,22.37-.246,40.706,40.706,0,0,0,5.162-1.474c.737-.246,1.721-.737,2.458-.983l1.229-.491h0s-.737.246-.246.246h.246l.246-.246.737-.246a5.376,5.376,0,0,0,1.229-.737c.246-.246.492-.246.492-.491A6.518,6.518,0,0,0,287.35,49.8a16.919,16.919,0,0,0,2.7-3.194c3.441-4.914,4.671-11.548,4.179-17.444a24.606,24.606,0,0,0-6.391-15.233C284.4,10,279.484,7.79,275.059,6.562a49.22,49.22,0,0,0-12.537-1.474,70.567,70.567,0,0,0-8.6.491,26.8,26.8,0,0,1-2.95.246s.983-.491,2.7-1.228a39.164,39.164,0,0,1,8.358-2.948,38.992,38.992,0,0,1,14.012-1.72,31.33,31.33,0,0,1,18.191,6.634c5.9,4.668,10.325,12.285,12.045,20.638a39.638,39.638,0,0,1-4.425,26.535,36.845,36.845,0,0,1-4.671,6.142,18.366,18.366,0,0,1-3.2,2.7l-1.967,1.228a8.08,8.08,0,0,1-1.475.737l-.738.246-.246.246h-.246l-.492.246-1.721.737a17.074,17.074,0,0,1-3.2,1.228,56.271,56.271,0,0,1-6.883,1.966A67.368,67.368,0,0,1,249,69.459a134.757,134.757,0,0,1-25.565-7.617c-7.866-3.194-15.487-6.879-22.616-10.565-14.258-7.371-27.04-14.742-38.1-20.884C140.349,18.6,125.6,10.493,125.6,10.493Z" transform="translate(141.04 819.12)" fill="#002e6b"/>
      </g>
      <g transform="matrix(1, 0, 0, 1, 42.12, -819)" filter="url(#Path_776)">
        <path id="Path_776-2" data-name="Path 776" d="M361.111,81.963C343.9,65.01,265.732,17.1,192.478,17.1,120.7,17.346,81.121,60.1,0,53.463,72.026,91.3,138.4,65.993,189.036,55.674,279.252,37,361.111,81.963,361.111,81.963Z" transform="translate(-42.12 844.21)" fill="url(#linear-gradient-3)"/>
      </g>
    </g>
    <g id="Repeat_Grid_13" data-name="Repeat Grid 13" transform="translate(33 220)" clip-path="url(#clip-path)">
      <g transform="translate(-55 -408)">
        <text id="_" data-name="*" transform="translate(83 461)" fill="#002e6b" font-size="50" font-family="Poppins-Regular, Poppins"><tspan x="-12.15" y="0">*</tspan></text>
        <g id="Rectangle_2529" data-name="Rectangle 2529" transform="translate(55 408)" fill="none" stroke="#01ffff" stroke-width="3">
          <rect width="55" height="55" rx="9" stroke="none"/>
          <rect x="1.5" y="1.5" width="52" height="52" rx="7.5" fill="none"/>
        </g>
      </g>
      <g transform="translate(6 -408)">
        <text id="_2" data-name="*" transform="translate(83 461)" fill="#002e6b" font-size="50" font-family="Poppins-Regular, Poppins"><tspan x="-12.15" y="0">*</tspan></text>
        <g id="Rectangle_2529-2" data-name="Rectangle 2529" transform="translate(55 408)" fill="none" stroke="#01ffff" stroke-width="3">
          <rect width="55" height="55" rx="9" stroke="none"/>
          <rect x="1.5" y="1.5" width="52" height="52" rx="7.5" fill="none"/>
        </g>
      </g>
      <g transform="translate(67 -408)">
        <text id="_3" data-name="*" transform="translate(83 461)" fill="#002e6b" font-size="50" font-family="Poppins-Regular, Poppins"><tspan x="-12.15" y="0">*</tspan></text>
        <g id="Rectangle_2529-3" data-name="Rectangle 2529" transform="translate(55 408)" fill="none" stroke="#01ffff" stroke-width="3">
          <rect width="55" height="55" rx="9" stroke="none"/>
          <rect x="1.5" y="1.5" width="52" height="52" rx="7.5" fill="none"/>
        </g>
      </g>
      <g transform="translate(128 -408)">
        <text id="_4" data-name="*" transform="translate(83 461)" fill="#002e6b" font-size="50" font-family="Poppins-Regular, Poppins"><tspan x="-12.15" y="0">*</tspan></text>
        <g id="Rectangle_2529-4" data-name="Rectangle 2529" transform="translate(55 408)" fill="none" stroke="#01ffff" stroke-width="3">
          <rect width="55" height="55" rx="9" stroke="none"/>
          <rect x="1.5" y="1.5" width="52" height="52" rx="7.5" fill="none"/>
        </g>
      </g>
      <g transform="translate(189 -408)">
        <text id="_5" data-name="*" transform="translate(83 461)" fill="#002e6b" font-size="50" font-family="Poppins-Regular, Poppins"><tspan x="-12.15" y="0">*</tspan></text>
        <g id="Rectangle_2529-5" data-name="Rectangle 2529" transform="translate(55 408)" fill="none" stroke="#01ffff" stroke-width="3">
          <rect width="55" height="55" rx="9" stroke="none"/>
          <rect x="1.5" y="1.5" width="52" height="52" rx="7.5" fill="none"/>
        </g>
      </g>
      <g transform="translate(250 -408)">
        <text id="_6" data-name="*" transform="translate(83 461)" fill="#002e6b" font-size="50" font-family="Poppins-Regular, Poppins"><tspan x="-12.15" y="0">*</tspan></text>
        <g id="Rectangle_2529-6" data-name="Rectangle 2529" transform="translate(55 408)" fill="none" stroke="#01ffff" stroke-width="3">
          <rect width="55" height="55" rx="9" stroke="none"/>
          <rect x="1.5" y="1.5" width="52" height="52" rx="7.5" fill="none"/>
        </g>
      </g>
    </g>
    <g id="Group_42698" data-name="Group 42698" transform="translate(1 52)">
      <g transform="matrix(1, 0, 0, 1, -1, -52)" filter="url(#Rectangle_2)">
        <rect id="Rectangle_2-2" data-name="Rectangle 2" width="245" height="43" rx="21.5" transform="translate(92 717)" fill="#01ffff"/>
      </g>
      <text id="Continue" transform="translate(214 694)" fill="#fff" font-size="20" font-family="Poppins-SemiBold, Poppins" font-weight="600"><tspan x="-46.72" y="0">Continue</tspan></text>
    </g>
    <rect id="Rectangle_147688" data-name="Rectangle 147688" width="378" height="65" rx="10" transform="translate(25 123)" fill="#01ffff" opacity="0.1"/>
    <text id="Please_enter_your_6-digits_PIN" data-name="Please enter your 6-digits PIN" transform="translate(68 163)" fill="#002e6b" font-size="20" font-family="Poppins-Regular, Poppins"><tspan x="0" y="0">Please enter your 6-digits PIN</tspan></text>
    <g id="Keypad" transform="translate(82 317)">
      <g transform="matrix(1, 0, 0, 1, -82, -317)" filter="url(#Ellipse_46)">
        <g id="Ellipse_46-11" data-name="Ellipse 46" transform="translate(86 317)" fill="none" stroke="#002e6b" stroke-width="3">
          <circle cx="38" cy="38" r="38" stroke="none"/>
          <circle cx="38" cy="38" r="36.5" fill="none"/>
        </g>
      </g>
      <g transform="matrix(1, 0, 0, 1, -82, -317)" filter="url(#Ellipse_46-2)">
        <g id="Ellipse_46-12" data-name="Ellipse 46" transform="translate(178 317)" fill="none" stroke="#002e6b" stroke-width="3">
          <circle cx="38" cy="38" r="38" stroke="none"/>
          <circle cx="38" cy="38" r="36.5" fill="none"/>
        </g>
      </g>
      <g transform="matrix(1, 0, 0, 1, -82, -317)" filter="url(#Ellipse_46-3)">
        <g id="Ellipse_46-13" data-name="Ellipse 46" transform="translate(270 317)" fill="none" stroke="#002e6b" stroke-width="3">
          <circle cx="38" cy="38" r="38" stroke="none"/>
          <circle cx="38" cy="38" r="36.5" fill="none"/>
        </g>
      </g>
      <g transform="matrix(1, 0, 0, 1, -82, -317)" filter="url(#Ellipse_46-4)">
        <g id="Ellipse_46-14" data-name="Ellipse 46" transform="translate(86 409)" fill="none" stroke="#002e6b" stroke-width="3">
          <circle cx="38" cy="38" r="38" stroke="none"/>
          <circle cx="38" cy="38" r="36.5" fill="none"/>
        </g>
      </g>
      <g transform="matrix(1, 0, 0, 1, -82, -317)" filter="url(#Ellipse_46-5)">
        <g id="Ellipse_46-15" data-name="Ellipse 46" transform="translate(178 409)" fill="none" stroke="#002e6b" stroke-width="3">
          <circle cx="38" cy="38" r="38" stroke="none"/>
          <circle cx="38" cy="38" r="36.5" fill="none"/>
        </g>
      </g>
      <g transform="matrix(1, 0, 0, 1, -82, -317)" filter="url(#Ellipse_46-6)">
        <g id="Ellipse_46-16" data-name="Ellipse 46" transform="translate(270 409)" fill="none" stroke="#002e6b" stroke-width="3">
          <circle cx="38" cy="38" r="38" stroke="none"/>
          <circle cx="38" cy="38" r="36.5" fill="none"/>
        </g>
      </g>
      <g transform="matrix(1, 0, 0, 1, -82, -317)" filter="url(#Ellipse_46-7)">
        <g id="Ellipse_46-17" data-name="Ellipse 46" transform="translate(86 501)" fill="none" stroke="#002e6b" stroke-width="3">
          <circle cx="38" cy="38" r="38" stroke="none"/>
          <circle cx="38" cy="38" r="36.5" fill="none"/>
        </g>
      </g>
      <g transform="matrix(1, 0, 0, 1, -82, -317)" filter="url(#Ellipse_46-8)">
        <g id="Ellipse_46-18" data-name="Ellipse 46" transform="translate(178 501)" fill="none" stroke="#002e6b" stroke-width="3">
          <circle cx="38" cy="38" r="38" stroke="none"/>
          <circle cx="38" cy="38" r="36.5" fill="none"/>
        </g>
      </g>
      <g transform="matrix(1, 0, 0, 1, -82, -317)" filter="url(#Ellipse_46-9)">
        <g id="Ellipse_46-19" data-name="Ellipse 46" transform="translate(270 501)" fill="none" stroke="#002e6b" stroke-width="3">
          <circle cx="38" cy="38" r="38" stroke="none"/>
          <circle cx="38" cy="38" r="36.5" fill="none"/>
        </g>
      </g>
      <g transform="matrix(1, 0, 0, 1, -82, -317)" filter="url(#Ellipse_46-10)">
        <g id="Ellipse_46-20" data-name="Ellipse 46" transform="translate(178 594)" fill="none" stroke="#002e6b" stroke-width="3">
          <circle cx="38" cy="38" r="38" stroke="none"/>
          <circle cx="38" cy="38" r="36.5" fill="none"/>
        </g>
      </g>
      <g transform="matrix(1, 0, 0, 1, -82, -317)" filter="url(#Ellipse_721)">
        <circle id="Ellipse_721-2" data-name="Ellipse 721" cx="38" cy="38" r="38" transform="translate(270 594)" fill="#01ffff"/>
      </g>
      <g transform="matrix(1, 0, 0, 1, -82, -317)" filter="url(#Ellipse_720)">
        <circle id="Ellipse_720-2" data-name="Ellipse 720" cx="38" cy="38" r="38" transform="translate(82 594)" fill="#01ffff"/>
      </g>
      <g id="Icon_feather-delete" data-name="Icon feather-delete" transform="translate(3.722 293.934)">
        <path id="Path_105" data-name="Path 105" d="M53.5,8.333H20.079L2.083,28.9l18,20.566H53.5a5.141,5.141,0,0,0,5.142-5.142V13.475A5.142,5.142,0,0,0,53.5,8.333Z" transform="translate(-2.083 -8.333)" fill="none" stroke="#fff" stroke-linecap="round" stroke-linejoin="round" stroke-width="3.17"/>
        <path id="Path_106" data-name="Path 106" d="M40.425,18.75,25,34.175" transform="translate(3.278 -5.896)" fill="none" stroke="#fff" stroke-linecap="round" stroke-linejoin="round" stroke-width="3.17"/>
        <path id="Path_107" data-name="Path 107" d="M25,18.75,40.425,34.175" transform="translate(3.278 -5.896)" fill="none" stroke="#fff" stroke-linecap="round" stroke-linejoin="round" stroke-width="3.17"/>
      </g>
      <text id="_1" data-name="1" transform="translate(42 53)" fill="#002d6a" font-size="35" font-family="SegoeUI-Bold, Segoe UI" font-weight="700"><tspan x="-10.066" y="0">1</tspan></text>
      <text id="_2-2" data-name="2" transform="translate(134 53)" fill="#002d6a" font-size="35" font-family="SegoeUI-Bold, Segoe UI" font-weight="700"><tspan x="-10.066" y="0">2</tspan></text>
      <text id="_3-2" data-name="3" transform="translate(226 53)" fill="#002d6a" font-size="35" font-family="SegoeUI-Bold, Segoe UI" font-weight="700"><tspan x="-10.066" y="0">3</tspan></text>
      <text id="_4-2" data-name="4" transform="translate(42 145)" fill="#002d6a" font-size="35" font-family="SegoeUI-Bold, Segoe UI" font-weight="700"><tspan x="-10.066" y="0">4</tspan></text>
      <text id="_5-2" data-name="5" transform="translate(134 145)" fill="#002d6a" font-size="35" font-family="SegoeUI-Bold, Segoe UI" font-weight="700"><tspan x="-10.066" y="0">5</tspan></text>
      <text id="_6-2" data-name="6" transform="translate(226 145)" fill="#002d6a" font-size="35" font-family="SegoeUI-Bold, Segoe UI" font-weight="700"><tspan x="-10.066" y="0">6</tspan></text>
      <text id="_7" data-name="7" transform="translate(42 237)" fill="#002d6a" font-size="35" font-family="SegoeUI-Bold, Segoe UI" font-weight="700"><tspan x="-10.066" y="0">7</tspan></text>
      <text id="_8" data-name="8" transform="translate(134 237)" fill="#002d6a" font-size="35" font-family="SegoeUI-Bold, Segoe UI" font-weight="700"><tspan x="-10.066" y="0">8</tspan></text>
      <text id="_9" data-name="9" transform="translate(226 237)" fill="#002d6a" font-size="35" font-family="SegoeUI-Bold, Segoe UI" font-weight="700"><tspan x="-10.066" y="0">9</tspan></text>
      <text id="_0" data-name="0" transform="translate(134 329)" fill="#002d6a" font-size="35" font-family="SegoeUI-Bold, Segoe UI" font-weight="700"><tspan x="-10.066" y="0">0</tspan></text>
      <text id="CLEAR" transform="translate(226 321)" fill="#fff" font-size="18" font-family="Poppins-Regular, Poppins"><tspan x="-26.991" y="0">CLEAR</tspan></text>
    </g>
    <path id="Icon_ionic-ios-arrow-back" data-name="Icon ionic-ios-arrow-back" d="M15.321,18l8.937-8.93a1.688,1.688,0,0,0-2.391-2.384L11.742,16.8a1.685,1.685,0,0,0-.049,2.327L21.86,29.32a1.688,1.688,0,0,0,2.391-2.384Z" transform="translate(-0.754 18.806)" fill="#002e6b"/>
  </g>
</svg>
