<svg xmlns="http://www.w3.org/2000/svg" xmlns:xlink="http://www.w3.org/1999/xlink" width="428" height="1068" viewBox="0 0 428 1068">
  <defs>
    <filter id="Heading_Container" x="-15" y="-14" width="458" height="516" filterUnits="userSpaceOnUse">
      <feOffset dy="1" input="SourceAlpha"/>
      <feGaussianBlur stdDeviation="5" result="blur"/>
      <feFlood flood-color="#c7c7c7" flood-opacity="0.161"/>
      <feComposite operator="in" in2="blur"/>
      <feComposite in="SourceGraphic"/>
    </filter>
    <filter id="Heading_Container-2" x="-15" y="-15" width="458" height="118" filterUnits="userSpaceOnUse">
      <feOffset dy="1" input="SourceAlpha"/>
      <feGaussianBlur stdDeviation="5" result="blur-2"/>
      <feFlood flood-color="#c7c7c7" flood-opacity="0.161"/>
      <feComposite operator="in" in2="blur-2"/>
      <feComposite in="SourceGraphic"/>
    </filter>
    <filter id="Rectangle_148373" x="40" y="978" width="348" height="67" filterUnits="userSpaceOnUse">
      <feOffset dy="8" input="SourceAlpha"/>
      <feGaussianBlur stdDeviation="3" result="blur-3"/>
      <feFlood flood-color="#d5ffe0" flood-opacity="0.161"/>
      <feComposite operator="in" in2="blur-3"/>
      <feComposite in="SourceGraphic"/>
    </filter>
    <clipPath id="clip-path">
      <circle id="Ellipse_9638" data-name="Ellipse 9638" cx="13.5" cy="13.5" r="13.5" transform="translate(-969 2114)" fill="#fff"/>
    </clipPath>
    <clipPath id="clip-_9_Personal_Info_Screen">
      <rect width="428" height="1068"/>
    </clipPath>
  </defs>
  <g id="_9_Personal_Info_Screen" data-name="9 Personal Info Screen" clip-path="url(#clip-_9_Personal_Info_Screen)">
    <rect width="428" height="1068" fill="#fff"/>
    <g transform="matrix(1, 0, 0, 1, 0, 0)" filter="url(#Heading_Container)">
      <rect id="Heading_Container-3" data-name="Heading Container" width="428" height="486" fill="#002d6a"/>
    </g>
    <path id="Rectangle_148366" data-name="Rectangle 148366" d="M25,0H403a25,25,0,0,1,25,25V836a0,0,0,0,1,0,0H0a0,0,0,0,1,0,0V25A25,25,0,0,1,25,0Z" transform="translate(0 232)" fill="#fff"/>
    <g id="Group_165448" data-name="Group 165448" transform="translate(4.661 6.006)">
      <text id="TSLA" transform="translate(61 278)" fill="#002d6a" font-size="18" font-family="Poppins-SemiBold, Poppins" font-weight="600"><tspan x="0" y="0">Full Name</tspan></text>
      <text id="TSLA-2" data-name="TSLA" transform="translate(22 307.113)" fill="#d1d2d9" font-size="15" font-family="Poppins-Light, Poppins" font-weight="300"><tspan x="0" y="0">Name must match exactly as on ID Card</tspan></text>
      <path id="Icon_awesome-user-alt" data-name="Icon awesome-user-alt" d="M10.307,11.595a5.8,5.8,0,1,0-5.8-5.8A5.8,5.8,0,0,0,10.307,11.595Zm5.153,1.288H13.242a7.008,7.008,0,0,1-5.87,0H5.153A5.153,5.153,0,0,0,0,18.037v.644a1.933,1.933,0,0,0,1.932,1.932H18.681a1.933,1.933,0,0,0,1.932-1.932v-.644A5.153,5.153,0,0,0,15.46,12.883Z" transform="translate(22 261)" fill="#01ffff"/>
      <line id="Line_1117" data-name="Line 1117" x2="372" transform="translate(21.5 319.5)" fill="none" stroke="#707070" stroke-linecap="round" stroke-width="0.17"/>
    </g>
    <g id="Group_165449" data-name="Group 165449" transform="translate(8.339 11.5)">
      <text id="TSLA-3" data-name="TSLA" transform="translate(61 373)" fill="#002d6a" font-size="18" font-family="Poppins-SemiBold, Poppins" font-weight="600"><tspan x="0" y="0">Email</tspan></text>
      <text id="TSLA-4" data-name="TSLA" transform="translate(22 402.113)" fill="#d1d2d9" font-size="15" font-family="Poppins-Light, Poppins" font-weight="300"><tspan x="0" y="0">abc@example.com</tspan></text>
      <line id="Line_1118" data-name="Line 1118" x2="372" transform="translate(21.5 414.5)" fill="none" stroke="#707070" stroke-linecap="round" stroke-width="0.17"/>
      <path id="Icon_zocial-email" data-name="Icon zocial-email" d="M.072,21.893V5.8q0-.028.084-.531l9.471,8.1L.184,22.452a2.368,2.368,0,0,1-.112-.559ZM1.329,4.152A1.2,1.2,0,0,1,1.8,4.068H27.312a1.582,1.582,0,0,1,.5.084l-9.5,8.13-1.257,1.006-2.487,2.04-2.487-2.04-1.257-1.006Zm.028,19.389,9.527-9.136,3.688,2.989,3.688-2.989,9.527,9.136a1.341,1.341,0,0,1-.475.084H1.8a1.265,1.265,0,0,1-.447-.084Zm18.16-10.17,9.443-8.1a1.667,1.667,0,0,1,.084.531V21.893a2.141,2.141,0,0,1-.084.559Z" transform="translate(17.749 351.932)" fill="#01ffff"/>
    </g>
    <g id="Group_165452" data-name="Group 165452" transform="translate(0 230.988)">
      <text id="TSLA-5" data-name="TSLA" transform="translate(65.66 564.994)" fill="#002d6a" font-size="18" font-family="Poppins-SemiBold, Poppins" font-weight="600"><tspan x="0" y="0">Where did you hear about us?</tspan></text>
      <text id="TSLA-6" data-name="TSLA" transform="translate(26.66 594)" fill="#d1d2d9" font-size="15" font-family="Poppins-Light, Poppins" font-weight="300"><tspan x="0" y="0">Type to search or select any of the following</tspan></text>
      <line id="Line_1117-2" data-name="Line 1117" x2="372" transform="translate(26.16 606.494)" fill="none" stroke="#707070" stroke-linecap="round" stroke-width="0.17"/>
      <path id="Icon_awesome-bullhorn" data-name="Icon awesome-bullhorn" d="M24.128,10.053a2.669,2.669,0,0,0-1.34-2.309v-6.4A1.354,1.354,0,0,0,21.447,0a1.337,1.337,0,0,0-.837.294l-3.562,2.85a10.167,10.167,0,0,1-6.325,2.218H2.681A2.681,2.681,0,0,0,0,8.043v4.021a2.681,2.681,0,0,0,2.681,2.681H4.093A10.179,10.179,0,0,0,4,16.085a10.611,10.611,0,0,0,1.071,4.647,1.314,1.314,0,0,0,1.19.715H9.373a1.332,1.332,0,0,0,1.085-2.118,5.334,5.334,0,0,1-1.1-3.244,5.069,5.069,0,0,1,.185-1.34h1.176a10.165,10.165,0,0,1,6.324,2.218l3.562,2.85a1.34,1.34,0,0,0,2.177-1.046v-6.4A2.669,2.669,0,0,0,24.128,10.053Zm-4.021,5.924L18.722,14.87a12.852,12.852,0,0,0-8-2.806V8.043a12.852,12.852,0,0,0,8-2.806l1.384-1.108Z" transform="translate(26.161 549.273)" fill="#01ffff"/>
      <path id="Icon_awesome-long-arrow-alt-up" data-name="Icon awesome-long-arrow-alt-up" d="M6.188,24.324c.061.029,5.791-.1,5.625,0h3.239A1.688,1.688,0,0,1,16.245,27.2l-6.051,6.051a1.688,1.688,0,0,1-2.387,0L1.756,27.2a1.688,1.688,0,0,1,1.193-2.881Z" transform="translate(371.69 559.713)" fill="#d1d2d9"/>
    </g>
    <g id="Group_165453" data-name="Group 165453" transform="translate(0 240.988)">
      <text id="TSLA-7" data-name="TSLA" transform="translate(65.66 655.488)" fill="#002d6a" font-size="18" font-family="Poppins-SemiBold, Poppins" font-weight="600"><tspan x="0" y="0">Referral/promo code </tspan><tspan y="0" fill="#d1d2d9" font-family="Poppins-SemiBoldItalic, Poppins" font-style="italic">(optional)</tspan></text>
      <text id="TSLA-8" data-name="TSLA" transform="translate(26.66 684.494)" fill="#d1d2d9" font-size="15" font-family="Poppins-Light, Poppins" font-weight="300"><tspan x="0" y="0">Enter referral or promo code</tspan></text>
      <line id="Line_1117-3" data-name="Line 1117" x2="372" transform="translate(26.16 696.988)" fill="none" stroke="#707070" stroke-linecap="round" stroke-width="0.17"/>
      <path id="Subtraction_169" data-name="Subtraction 169" d="M23521.924,16730h0l-2.922,0a3.009,3.009,0,0,1-3-3.006v-9a3,3,0,0,1,3-3h2.924v1.625a.331.331,0,1,0,.662,0V16715H23540a3,3,0,0,1,3,3v9a3.009,3.009,0,0,1-3,3.006h-17.412v-1.631a.331.331,0,0,0-.662,0V16730Zm12.473-7.258a2.379,2.379,0,1,0,2.4,2.377A2.391,2.391,0,0,0,23534.4,16722.746Zm1.885-6.115-.674.006a.507.507,0,0,0-.42.213l-7.893,9.85a.5.5,0,0,0-.035.523.507.507,0,0,0,.461.275h.715a.5.5,0,0,0,.42-.219l7.852-9.844a.5.5,0,0,0,.035-.527.517.517,0,0,0-.461-.277Zm-14.027,6.844a.333.333,0,0,0-.33.33v1.949a.331.331,0,1,0,.662,0v-1.949A.335.335,0,0,0,23522.254,16723.475Zm0-4.562a.329.329,0,0,0-.33.326v1.955a.331.331,0,0,0,.662,0v-1.955A.329.329,0,0,0,23522.254,16718.912Zm7.34-2.281a2.379,2.379,0,1,0,2.4,2.377A2.391,2.391,0,0,0,23529.594,16716.631Zm4.8,9.514a1.02,1.02,0,1,1,1.035-1.021A1.026,1.026,0,0,1,23534.4,16726.145Zm-4.8-6.115a1.02,1.02,0,1,1,1.033-1.021A1.024,1.024,0,0,1,23529.594,16720.029Z" transform="translate(-23489.836 -16073.514)" fill="#01ffff"/>
    </g>
    <g id="Group_165454" data-name="Group 165454" transform="translate(0 130.494)">
      <text id="TSLA-9" data-name="TSLA" transform="translate(65.66 564.994)" fill="#002d6a" font-size="18" font-family="Poppins-SemiBold, Poppins" font-weight="600"><tspan x="0" y="0">Gender</tspan></text>
      <text id="TSLA-10" data-name="TSLA" transform="translate(26 594)" fill="#d1d2d9" font-size="15" font-family="Poppins-Light, Poppins" font-weight="300"><tspan x="0" y="0">Type to search or select any of the following</tspan></text>
      <line id="Line_1117-4" data-name="Line 1117" x2="372" transform="translate(26.5 606.494)" fill="none" stroke="#707070" stroke-linecap="round" stroke-width="0.17"/>
      <path id="Icon_awesome-long-arrow-alt-up-2" data-name="Icon awesome-long-arrow-alt-up" d="M6.188,24.324c.061.029,5.791-.1,5.625,0h3.239A1.688,1.688,0,0,1,16.245,27.2l-6.051,6.051a1.688,1.688,0,0,1-2.387,0L1.756,27.2a1.688,1.688,0,0,1,1.193-2.881Z" transform="translate(371.69 559.713)" fill="#d1d2d9"/>
      <path id="Icon_awesome-transgender" data-name="Icon awesome-transgender" d="M20.711,0h-4.4a.669.669,0,0,0-.473,1.141l.941.941L12.288,6.575a8.018,8.018,0,1,0-6.052,14.6v1.537h-2a.67.67,0,0,0-.668.668v2.227a.67.67,0,0,0,.668.668h2v1.559a.67.67,0,0,0,.668.668H9.131a.67.67,0,0,0,.668-.668V26.279h2a.67.67,0,0,0,.668-.668V23.384a.67.67,0,0,0-.668-.668h-2V21.179A8.019,8.019,0,0,0,14.8,9.092L19.3,4.6l.941.941a.668.668,0,0,0,1.141-.473V.668A.67.67,0,0,0,20.711,0ZM8.017,17.816a4.454,4.454,0,1,1,4.454-4.454A4.46,4.46,0,0,1,8.017,17.816Z" transform="translate(26 545.994)" fill="#01ffff"/>
    </g>
    <text id="Heading_Text" data-name="Heading Text" transform="translate(19.088 129.5)" fill="#fff" font-size="18" font-family="Poppins-SemiBold, Poppins" font-weight="600"><tspan x="0" y="0">Let&apos;s get you started</tspan></text>
    <text id="Body_Text" data-name="Body Text" transform="translate(21.08 162)" fill="#fff" font-size="15" font-family="Poppins-Regular, Poppins"><tspan x="0" y="0">The Business Operating System for businesses &amp;</tspan><tspan x="0" y="25">organizations of all sizes.</tspan></text>
    <g transform="matrix(1, 0, 0, 1, 0, 0)" filter="url(#Heading_Container-2)">
      <g id="Heading_Container-4" data-name="Heading Container" transform="translate(0 -1)" fill="#fff" stroke="rgba(199,199,199,0.16)" stroke-width="1">
        <path d="M0,0H428a0,0,0,0,1,0,0V74a14,14,0,0,1-14,14H14A14,14,0,0,1,0,74V0A0,0,0,0,1,0,0Z" stroke="none"/>
        <path d="M.5.5h427a0,0,0,0,1,0,0V74A13.5,13.5,0,0,1,414,87.5H14A13.5,13.5,0,0,1,.5,74V.5A0,0,0,0,1,.5.5Z" fill="none"/>
      </g>
    </g>
    <g id="Stautus_Bar" data-name="Stautus Bar" transform="translate(7 10)">
      <g id="Pin-Right" transform="translate(354.729 0.5)">
        <path id="Battery" d="M37.494,2.5H57.006A1.5,1.5,0,0,1,58.5,4.005v6.489A1.5,1.5,0,0,1,57.006,12H37.494A1.5,1.5,0,0,1,36,10.495V4.005A1.5,1.5,0,0,1,37.494,2.5ZM59,5.5h.75a.744.744,0,0,1,.75.742V8.258A.748.748,0,0,1,59.75,9H59ZM37.508,3A1.012,1.012,0,0,0,36.5,4.008v6.483A1.007,1.007,0,0,0,37.508,11.5H56.992A1.012,1.012,0,0,0,58,10.492V4.008A1.007,1.007,0,0,0,56.992,3Zm0,.5H56.993a.5.5,0,0,1,.507.492v6.516a.5.5,0,0,1-.507.492H37.507A.5.5,0,0,1,37,10.508V3.992A.5.5,0,0,1,37.507,3.5Z" transform="translate(-2.854 1.5)" fill-rule="evenodd"/>
        <text id="_100_" data-name="100%" transform="translate(0 13)" font-size="12" font-family="Poppins-Regular, Poppins"><tspan x="0" y="0">100%</tspan></text>
      </g>
      <text id="_9:41_AM" data-name="9:41 AM" transform="translate(182.123 13)" font-size="12" font-family="Poppins-Regular, Poppins"><tspan x="0" y="0">9:41 AM</tspan></text>
      <g id="Signal" transform="translate(0 0.5)">
        <path id="Wi-Fi" d="M96.144,12.439,94.023,14.5,91.86,12.405a2.884,2.884,0,0,1,4.284.033Zm2.179-2.117h0l-1.089,1.058a4.46,4.46,0,0,0-6.465-.031l-1.09-1.056a6.036,6.036,0,0,1,8.644.029ZM100.5,8.207,99.412,9.264A7.612,7.612,0,0,0,88.59,9.237L87.5,8.182a9.188,9.188,0,0,1,13,.025Z" transform="translate(-6.5 -1.5)" fill-rule="evenodd"/>
        <text id="Sketch" transform="translate(37.5 13)" font-size="12" font-family="Poppins-Regular, Poppins"><tspan x="0" y="0">Sunny</tspan></text>
        <path id="Mobile-Signal" d="M9.25,13A2.75,2.75,0,1,1,12,10.25,2.75,2.75,0,0,1,9.25,13Zm7,0A2.75,2.75,0,1,1,19,10.25,2.75,2.75,0,0,1,16.25,13Zm7,0A2.75,2.75,0,1,1,26,10.25,2.75,2.75,0,0,1,23.25,13Zm7,0A2.75,2.75,0,1,1,33,10.25,2.75,2.75,0,0,1,30.25,13Zm7,0A2.75,2.75,0,1,1,40,10.25,2.75,2.75,0,0,1,37.25,13Z" transform="translate(-6.5 -1.5)" fill-rule="evenodd"/>
      </g>
    </g>
    <g id="Group_165447" data-name="Group 165447" transform="translate(-55 -250)">
      <rect id="Rectangle_31" data-name="Rectangle 31" width="236" height="41" rx="20.5" transform="translate(151 285)" fill="#01ffff"/>
      <text id="Personal_Information_" data-name="Personal Information " transform="translate(173 312)" fill="#002d6a" font-size="18" font-family="Poppins-Regular, Poppins"><tspan x="0" y="0">Personal Information </tspan></text>
    </g>
    <path id="Icon_ionic-ios-arrow-down" data-name="Icon ionic-ios-arrow-down" d="M15.006,18.288l6.666-6.672a1.255,1.255,0,0,1,1.779,0,1.271,1.271,0,0,1,0,1.785L15.9,20.96A1.258,1.258,0,0,1,14.161,21l-7.606-7.59a1.26,1.26,0,0,1,1.779-1.785Z" transform="translate(31.327 36.813) rotate(90)" fill="#002d6a" opacity="0.8"/>
    <g id="Icon_material-bubble-chart" data-name="Icon material-bubble-chart" transform="translate(365.833 93.753)">
      <path id="Path_83893" data-name="Path 83893" d="M21.064,20.5A8.365,8.365,0,1,1,12.7,12.133,8.365,8.365,0,0,1,21.064,20.5Z" transform="translate(0 11.022)" fill="#f2f6f7"/>
      <path id="Path_83894" data-name="Path 83894" d="M24.323,22.562A5.228,5.228,0,1,1,19.1,17.333a5.228,5.228,0,0,1,5.228,5.228Z" transform="translate(13.471 18.37)" fill="#f2f6f7"/>
      <path id="Path_83895" data-name="Path 83895" d="M36.363,16.881A12.548,12.548,0,1,1,23.815,4.333,12.548,12.548,0,0,1,36.363,16.881Z" transform="translate(9.797)" fill="#f2f6f7"/>
    </g>
    <g id="Group_165458" data-name="Group 165458" transform="translate(-108 151)">
      <g transform="matrix(1, 0, 0, 1, 108, -151)" filter="url(#Rectangle_148373)">
        <rect id="Rectangle_148373-2" data-name="Rectangle 148373" width="330" height="49" rx="24" transform="translate(49 979)" fill="#01ffff"/>
      </g>
      <text id="TSLA-11" data-name="TSLA" transform="translate(280 859)" fill="#fff" font-size="18" font-family="Poppins-SemiBold, Poppins" font-weight="600"><tspan x="0" y="0">Continue</tspan></text>
    </g>
    <g id="Group_165471" data-name="Group 165471">
      <text id="TSLA-12" data-name="TSLA" transform="translate(65.66 488.5)" fill="#002d6a" font-size="18" font-family="Poppins-SemiBold, Poppins" font-weight="600"><tspan x="0" y="0">Mobile Number</tspan></text>
      <text id="TSLA-13" data-name="TSLA" transform="translate(88 523.5)" fill="#002d6a" font-size="15" font-family="Poppins-Light, Poppins" font-weight="300"><tspan x="0" y="0">+234 </tspan><tspan y="0" fill="#d1d2d9">800000000</tspan></text>
      <line id="Line_1118-2" data-name="Line 1118" x2="316.66" transform="translate(81.5 536)" fill="none" stroke="#707070" stroke-linecap="round" stroke-width="0.17"/>
      <path id="Icon_awesome-mobile" data-name="Icon awesome-mobile" d="M15,0H2.647A2.647,2.647,0,0,0,0,2.647V25.586a2.647,2.647,0,0,0,2.647,2.647H15a2.647,2.647,0,0,0,2.647-2.647V2.647A2.647,2.647,0,0,0,15,0ZM8.823,26.468A1.765,1.765,0,1,1,10.587,24.7,1.763,1.763,0,0,1,8.823,26.468Z" transform="translate(30.717 465.994)" fill="#01ffff"/>
      <g id="Mask_Group_185" data-name="Mask Group 185" transform="translate(995.66 -1612.5)" clip-path="url(#clip-path)">
        <g id="Group_165450" data-name="Group 165450" transform="translate(-972.607 2112.197)">
          <rect id="Rectangle_149045" data-name="Rectangle 149045" width="12" height="31" transform="translate(-0.394 -0.197)" fill="#26b105"/>
          <rect id="Rectangle_149046" data-name="Rectangle 149046" width="12" height="31" transform="translate(11.606 -0.197)" fill="#fff"/>
          <rect id="Rectangle_149047" data-name="Rectangle 149047" width="13" height="31" transform="translate(22.606 -0.197)" fill="#26b105"/>
        </g>
      </g>
      <path id="Icon_awesome-long-arrow-alt-up-3" data-name="Icon awesome-long-arrow-alt-up" d="M6.188,24.324c.061.029,5.791-.1,5.625,0h3.239A1.688,1.688,0,0,1,16.245,27.2l-6.051,6.051a1.688,1.688,0,0,1-2.387,0L1.756,27.2a1.688,1.688,0,0,1,1.193-2.881Z" transform="translate(58.402 485.981)" fill="#d1d2d9"/>
    </g>
    <g id="Group_165475" data-name="Group 165475" transform="translate(0 -5.273)">
      <text id="TSLA-14" data-name="TSLA" transform="translate(69.34 600.268)" fill="#002d6a" font-size="18" font-family="Poppins-SemiBold, Poppins" font-weight="600"><tspan x="0" y="0">Date of Birth</tspan></text>
      <g id="Group_165474" data-name="Group 165474" transform="translate(0.5)">
        <text id="TSLA-15" data-name="TSLA" transform="translate(35 629.381)" fill="#002d6a" font-size="15" font-family="Poppins-Regular, Poppins"><tspan x="0" y="0">Day</tspan></text>
        <text id="TSLA-16" data-name="TSLA" transform="translate(40 653.381)" fill="#d1d2d9" font-size="15" font-family="Poppins-Light, Poppins" font-weight="300"><tspan x="0" y="0">00</tspan></text>
        <line id="Line_1118-3" data-name="Line 1118" x2="39.66" transform="translate(29.5 661.768)" fill="none" stroke="#707070" stroke-linecap="round" stroke-width="0.17"/>
      </g>
      <g id="Group_165473" data-name="Group 165473" transform="translate(2)">
        <text id="TSLA-17" data-name="TSLA" transform="translate(80 628.994)" fill="#002d6a" font-size="15" font-family="Poppins-Regular, Poppins"><tspan x="0" y="0">Month</tspan></text>
        <text id="TSLA-18" data-name="TSLA" transform="translate(94 653.381)" fill="#d1d2d9" font-size="15" font-family="Poppins-Light, Poppins" font-weight="300"><tspan x="0" y="0">00</tspan></text>
        <line id="Line_1119" data-name="Line 1119" x2="39.66" transform="translate(83.5 661.768)" fill="none" stroke="#707070" stroke-linecap="round" stroke-width="0.17"/>
      </g>
      <g id="Group_165472" data-name="Group 165472" transform="translate(0.5)">
        <text id="TSLA-19" data-name="TSLA" transform="translate(152 629.381)" fill="#002d6a" font-size="15" font-family="Poppins-Regular, Poppins"><tspan x="0" y="0">Year</tspan></text>
        <text id="TSLA-20" data-name="TSLA" transform="translate(150 653.381)" fill="#d1d2d9" font-size="15" font-family="Poppins-Light, Poppins" font-weight="300"><tspan x="0" y="0">0000</tspan></text>
        <line id="Line_1120" data-name="Line 1120" x2="52" transform="translate(142.5 661.768)" fill="none" stroke="#707070" stroke-linecap="round" stroke-width="0.17"/>
      </g>
      <g id="Icon_feather-calendar" data-name="Icon feather-calendar" transform="translate(218.5 610.381)">
        <path id="Path_85144" data-name="Path 85144" d="M7.5,6h21a3,3,0,0,1,3,3V30a3,3,0,0,1-3,3H7.5a3,3,0,0,1-3-3V9a3,3,0,0,1,3-3Z" fill="none" stroke="#01ffff" stroke-linecap="round" stroke-linejoin="round" stroke-width="3"/>
        <path id="Path_85145" data-name="Path 85145" d="M24,3V9" fill="none" stroke="#01ffff" stroke-linecap="round" stroke-linejoin="round" stroke-width="3"/>
        <path id="Path_85146" data-name="Path 85146" d="M12,3V9" fill="none" stroke="#01ffff" stroke-linecap="round" stroke-linejoin="round" stroke-width="3"/>
        <path id="Path_85147" data-name="Path 85147" d="M4.5,15h27" fill="none" stroke="#01ffff" stroke-linecap="round" stroke-linejoin="round" stroke-width="3"/>
      </g>
      <path id="Icon_awesome-birthday-cake" data-name="Icon awesome-birthday-cake" d="M19.114,16.384c-1.2,0-1.334-1.365-3.179-1.365s-2,1.365-3.189,1.365S11.4,15.018,9.557,15.018c-1.828,0-2.015,1.365-3.179,1.365-1.2,0-1.331-1.365-3.189-1.365S1.2,16.384,0,16.384V12.97a2.048,2.048,0,0,1,2.048-2.048h.683V4.779H5.461v6.144H8.192V4.779h2.731v6.144h2.731V4.779h2.731v6.144h.683a2.048,2.048,0,0,1,2.048,2.048Zm0,5.461H0v-4.1c1.85,0,2-1.365,3.189-1.365s1.333,1.365,3.189,1.365c1.828,0,2.015-1.365,3.179-1.365,1.2,0,1.331,1.365,3.189,1.365s2-1.365,3.189-1.365c1.173,0,1.333,1.365,3.179,1.365ZM4.1,4.1A1.361,1.361,0,0,1,2.731,2.731C2.731,1.408,4.1,1.749,4.1,0c.512,0,1.365,1.259,1.365,2.389S4.853,4.1,4.1,4.1Zm5.461,0A1.361,1.361,0,0,1,8.192,2.731c0-1.323,1.365-.981,1.365-2.731.512,0,1.365,1.259,1.365,2.389S10.314,4.1,9.557,4.1Zm5.461,0a1.361,1.361,0,0,1-1.365-1.365c0-1.323,1.365-.981,1.365-2.731.512,0,1.365,1.259,1.365,2.389S15.776,4.1,15.018,4.1Z" transform="translate(30.34 581.268)" fill="#01ffff"/>
    </g>
  </g>
</svg>
